<?xml version="1.0" encoding="UTF-8" standalone="no"?>
<!-- Created with Inkscape (http://www.inkscape.org/) -->

<svg
   xmlns:dc="http://purl.org/dc/elements/1.1/"
   xmlns:cc="http://creativecommons.org/ns#"
   xmlns:rdf="http://www.w3.org/1999/02/22-rdf-syntax-ns#"
   xmlns:svg="http://www.w3.org/2000/svg"
   xmlns="http://www.w3.org/2000/svg"
   xmlns:sodipodi="http://sodipodi.sourceforge.net/DTD/sodipodi-0.dtd"
   xmlns:inkscape="http://www.inkscape.org/namespaces/inkscape"
   width="210mm"
   height="297mm"
   viewBox="0 0 210 297"
   version="1.1"
   id="svg8"
   inkscape:version="0.92.1 r15371"
   sodipodi:docname="sabacc_locks.svg">
  <defs
     id="defs2" />
  <sodipodi:namedview
     id="base"
     pagecolor="#ffffff"
     bordercolor="#666666"
     borderopacity="1.0"
     inkscape:pageopacity="0.0"
     inkscape:pageshadow="2"
     inkscape:zoom="0.7"
     inkscape:cx="385.48659"
     inkscape:cy="869.1829"
     inkscape:document-units="mm"
     inkscape:current-layer="layer1"
     showgrid="false"
     inkscape:measure-start="-294.965,682.863"
     inkscape:measure-end="116.168,918.229"
     inkscape:window-width="1920"
     inkscape:window-height="1001"
     inkscape:window-x="-9"
     inkscape:window-y="-9"
     inkscape:window-maximized="1" />
  <metadata
     id="metadata5">
    <rdf:RDF>
      <cc:Work
         rdf:about="">
        <dc:format>image/svg+xml</dc:format>
        <dc:type
           rdf:resource="http://purl.org/dc/dcmitype/StillImage" />
        <dc:title></dc:title>
      </cc:Work>
    </rdf:RDF>
  </metadata>
  <g
     inkscape:label="Layer 1"
     inkscape:groupmode="layer"
     id="layer1">
    <path
       style="fill:#000000;stroke-width:1"
       d="m 20.720647,171.76241 c -0.523262,-0.31909 -0.69099,-0.72632 -1.460399,-3.54585 -0.297829,-1.09141 -0.707395,-2.57969 -0.910146,-3.3073 -0.202751,-0.7276 -0.609959,-2.22878 -0.904906,-3.33595 l -0.536267,-2.01305 0.348739,-1.36774 c 0.30857,-1.2102 0.754518,-2.84213 1.418108,-5.1895 0.114272,-0.40423 0.382965,-1.36334 0.597096,-2.13137 0.746681,-2.67813 0.954215,-3.2213 1.349617,-3.53232 0.370014,-0.29106 0.535367,-0.30036 4.603592,-0.25892 3.877734,0.0395 4.244344,0.0652 4.522665,0.31729 0.309722,0.28052 0.574014,1.01335 1.252868,3.47395 0.454145,1.64612 1.152391,4.12996 1.652857,5.87963 0.701411,2.4522 0.719192,2.81229 0.228637,4.63021 -1.303638,4.83107 -2.668386,9.64065 -2.811444,9.90796 -0.369582,0.69057 -0.756298,0.74891 -4.961082,0.74832 -3.588377,0 -3.979445,-0.025 -4.389935,-0.27536 z m 8.667111,-0.18497 c 0.201469,-0.0918 0.409377,-0.2737 0.462019,-0.40423 0.09667,-0.23971 1.933616,-6.8058 2.73935,-9.79172 0.490555,-1.81792 0.472773,-2.17801 -0.228637,-4.63021 -0.329289,-1.15122 -0.633581,-2.23061 -1.636815,-5.80613 -0.204154,-0.72761 -0.48096,-1.70777 -0.615126,-2.17814 -0.414763,-1.45412 -0.305933,-1.42313 -4.998005,-1.42313 -2.379037,0 -4.143529,0.0596 -4.303916,0.14548 -0.27698,0.14823 -0.532298,0.84478 -1.239775,3.38229 -0.21413,0.76803 -0.482824,1.72714 -0.597096,2.13137 -0.663589,2.34737 -1.109537,3.9793 -1.418108,5.1895 l -0.348739,1.36774 0.536268,2.01305 c 0.294947,1.10717 0.702154,2.60835 0.904905,3.33595 0.202752,0.72761 0.612317,2.21589 0.910147,3.3073 0.72403,2.65324 0.925592,3.17332 1.300053,3.3545 0.453308,0.21932 8.053627,0.225 8.533475,0.006 z m -8.35686,-1.81337 c -0.141631,-0.52322 -0.251051,-1.00278 -0.243156,-1.06568 0.0079,-0.0629 0.858099,-0.14743 1.88934,-0.18785 1.535995,-0.0602 1.874985,-0.11336 1.874985,-0.29398 0,-0.18324 -0.339261,-0.22738 -2.008159,-0.2613 l -2.00816,-0.0408 -0.159953,-0.45885 c -0.08798,-0.25235 -0.159954,-0.51511 -0.159954,-0.58389 0,-0.0688 2.220343,-0.12506 4.934094,-0.12506 4.863901,0 4.932908,0.004 4.850694,0.29398 -0.04587,0.16169 -0.120347,0.42444 -0.165503,0.58388 -0.07582,0.26771 -0.235855,0.29301 -2.092792,0.33073 -1.779076,0.0361 -2.016375,0.0705 -2.060041,0.29806 -0.04497,0.23438 0.121349,0.25724 1.872306,0.25724 2.183409,0 2.070333,-0.0893 1.677072,1.32513 l -0.244586,0.87973 h -3.849338 -3.849338 z m 4.421941,-0.49228 c -0.129737,-0.026 -0.370903,-0.026 -0.535925,0 -0.287353,0.0452 -0.289506,0.0621 -0.05091,0.40071 l 0.249123,0.35351 0.286802,-0.35351 c 0.251447,-0.30993 0.257723,-0.35933 0.05091,-0.40071 z M 20.215841,152.2165 c 0,-0.0688 0.07262,-0.33336 0.16137,-0.58796 l 0.16137,-0.46291 h 1.974609 c 1.674935,0 1.988313,-0.0357 2.06491,-0.23532 0.153106,-0.39899 -0.253179,-0.49504 -2.10375,-0.49738 l -1.783736,-0.002 0.300153,-1.02893 0.300154,-1.02894 h 3.84263 3.842631 l 0.30301,1.02894 0.303011,1.02893 -1.780115,0.002 c -1.847072,0.002 -2.253186,0.0985 -2.100128,0.49738 0.0766,0.19961 0.389975,0.23532 2.06491,0.23532 h 1.974609 l 0.16137,0.46291 c 0.08875,0.2546 0.16137,0.51918 0.16137,0.58796 0,0.0688 -2.215885,0.12506 -4.924189,0.12506 -2.708304,0 -4.924189,-0.0563 -4.924189,-0.12506 z m 5.30176,-2.63102 c -0.387017,-0.67613 -0.412786,-0.68413 -0.660483,-0.20514 l -0.239105,0.46238 h 0.523414 c 0.456587,0 0.504615,-0.0328 0.376174,-0.25724 z m -4.911784,-3.71147 c -0.450596,-0.39563 -0.5655,-0.67127 -1.118271,-2.68258 -0.338841,-1.23291 -0.772947,-2.77082 -0.964681,-3.41757 -0.191734,-0.64676 -0.456482,-1.60588 -0.58833,-2.13137 -0.131848,-0.52549 -0.361543,-1.33001 -0.510432,-1.78781 -0.465127,-1.43017 -0.502278,-2.26922 -0.155141,-3.50385 0.298124,-1.06032 0.849033,-3.08951 1.257068,-4.63021 0.107053,-0.40423 0.405654,-1.46256 0.663557,-2.35185 0.257902,-0.8893 0.569945,-1.97796 0.693428,-2.41925 0.127918,-0.45714 0.401056,-0.97889 0.63484,-1.21267 l 0.410326,-0.41033 h 4.167836 c 4.465037,0 4.584725,0.0184 4.985506,0.76729 0.09161,0.17118 0.360279,1.01115 0.597035,1.86659 0.236756,0.85545 0.533225,1.91916 0.658816,2.36381 0.125594,0.44464 0.282449,1.00688 0.348568,1.24942 0.06612,0.24253 0.397947,1.43316 0.737394,2.64583 0.866226,3.09459 0.931267,3.45429 0.760811,4.20755 -0.15406,0.68081 -1.188467,4.49094 -2.301665,8.47796 -0.367963,1.31789 -0.733388,2.51643 -0.812056,2.66342 -0.07867,0.14699 -0.370291,0.3751 -0.64805,0.50691 -0.427466,0.20284 -1.10462,0.23964 -4.409689,0.23964 h -3.904672 z m 9.007628,-0.22053 c 0.182051,-0.18335 0.546309,-1.20665 0.967984,-2.71932 1.148194,-4.11892 2.156342,-7.8337 2.308736,-8.50715 0.170456,-0.75326 0.105416,-1.11296 -0.760811,-4.20755 -0.339447,-1.21267 -0.671274,-2.4033 -0.737393,-2.64583 -0.130513,-0.47874 -0.409519,-1.47451 -0.864898,-3.08681 -0.159837,-0.56591 -0.365927,-1.31354 -0.457978,-1.6614 -0.328167,-1.24013 -0.18412,-1.20492 -4.929055,-1.20492 -4.795713,0 -4.5749,-0.0598 -4.967668,1.34496 -0.120934,0.43253 -0.430891,1.51401 -0.688794,2.40331 -0.257903,0.88929 -0.556503,1.94762 -0.663557,2.35185 -0.408034,1.5407 -0.958944,3.56989 -1.257067,4.63021 -0.347137,1.23463 -0.309987,2.07368 0.15514,3.50385 0.14889,0.4578 0.378584,1.26232 0.510432,1.78781 0.131848,0.52549 0.396597,1.48461 0.58833,2.13137 0.191734,0.64675 0.626321,2.18638 0.965748,3.42137 0.500557,1.82127 0.688361,2.30148 0.99414,2.54201 0.360761,0.28377 0.552881,0.29468 4.460909,0.25338 3.857574,-0.0408 4.100087,-0.0595 4.375802,-0.33714 z m -8.284388,-0.79099 c -0.04571,-0.074 -0.21004,-0.54232 -0.365186,-1.0408 -0.203404,-0.65354 -0.234318,-0.92369 -0.110833,-0.96853 0.09419,-0.0342 0.965002,-0.0796 1.935141,-0.10084 1.452728,-0.0318 1.763888,-0.0775 1.763888,-0.25914 0,-0.18326 -0.339757,-0.22738 -2.012515,-0.26132 -1.858755,-0.0377 -2.018789,-0.063 -2.094618,-0.33073 -0.04516,-0.15944 -0.119632,-0.42218 -0.165503,-0.58387 -0.08222,-0.28981 -0.01321,-0.29398 4.860599,-0.29398 4.873806,0 4.942815,0.004 4.860599,0.29398 -0.04587,0.16169 -0.120347,0.42443 -0.165503,0.58387 -0.07583,0.26774 -0.235863,0.29301 -2.094618,0.33073 -1.672758,0.0339 -2.012515,0.0781 -2.012515,0.26132 0,0.18242 0.32629,0.22761 1.889644,0.26174 l 1.889645,0.0413 -0.09951,0.53043 c -0.05473,0.29174 -0.177723,0.76927 -0.273317,1.06118 l -0.173807,0.53074 -3.774245,0.0392 c -2.170096,0.0225 -3.809565,-0.0179 -3.857346,-0.0952 z m 3.421686,-0.9191 c 0.228494,-0.36588 0.0255,-0.58014 -0.435433,-0.45961 -0.328368,0.0859 -0.331727,0.10282 -0.09536,0.48131 0.229671,0.36776 0.289091,0.36533 0.530793,-0.0217 z m 1.282895,-0.017 c 0.122537,-0.38608 0.08203,-0.45728 -0.275121,-0.48359 -0.363214,-0.0268 -0.442758,0.15868 -0.220632,0.51436 0.241387,0.38652 0.36576,0.3788 0.495753,-0.0308 z m -1.450565,-6.09082 c -0.990381,-1.57752 -1.738552,-3.00872 -1.693939,-3.24037 0.04522,-0.23481 0.263068,-0.25995 2.252909,-0.25995 2.093715,0 2.204503,0.0146 2.236263,0.29398 0.04483,0.39439 -1.882672,3.65887 -2.195994,3.71922 -0.156338,0.0301 -0.376823,-0.15861 -0.599239,-0.51288 z m -1.619638,-4.54998 c -0.231962,-0.23197 -0.05211,-0.70516 0.881965,-2.32041 0.762907,-1.31925 1.053134,-1.70111 1.292927,-1.70111 0.239731,0 0.522341,0.37153 1.257882,1.65365 0.521775,0.9095 0.948682,1.81901 0.948682,2.02112 v 0.36748 l -2.139847,0.0405 c -1.176916,0.0223 -2.18564,-0.005 -2.241609,-0.0612 z m -2.747594,-6.79241 c 0,-0.0688 0.07262,-0.33336 0.16137,-0.58796 l 0.16137,-0.46291 1.859753,-0.002 c 1.924031,-0.002 2.333851,-0.0958 2.179766,-0.49738 -0.07634,-0.19894 -0.383422,-0.23532 -1.986056,-0.23532 H 20.69629 l 0.264421,-0.95358 c 0.145431,-0.52447 0.304198,-1.01795 0.352815,-1.09661 0.0544,-0.088 1.539695,-0.13113 3.862102,-0.1121 l 3.773708,0.0309 0.324042,1.06569 0.324042,1.06568 h -1.902579 c -1.608891,0 -1.916519,0.0363 -1.992881,0.23532 -0.154085,0.40154 0.255735,0.49505 2.179766,0.49738 l 1.859753,0.002 0.16137,0.46291 c 0.08875,0.2546 0.16137,0.51918 0.16137,0.58796 0,0.0688 -2.215885,0.12506 -4.924189,0.12506 -2.708304,0 -4.924189,-0.0563 -4.924189,-0.12506 z m 4.698494,-2.48403 c -0.0029,-0.0606 -0.0924,-0.26753 -0.198976,-0.45978 l -0.193768,-0.34954 -0.241996,0.3455 c -0.337868,0.48238 -0.306086,0.57407 0.198977,0.57407 0.242534,0 0.438628,-0.0496 0.435763,-0.11025 z m 1.328125,-0.004 c 0,-0.0628 -0.108898,-0.26976 -0.241995,-0.45978 l -0.241996,-0.3455 -0.193768,0.34954 c -0.280393,0.50581 -0.253716,0.57003 0.236787,0.57003 0.242535,0 0.440972,-0.0514 0.440972,-0.11429 z m -5.44404,-3.74322 c -0.60002,-0.40392 -0.755784,-0.69726 -1.151783,-2.16911 -0.163134,-0.60634 -0.472296,-1.73082 -0.687028,-2.49884 -1.103323,-3.94623 -1.438312,-5.18146 -1.724368,-6.35835 l -0.312859,-1.28716 0.311998,-1.21168 c 0.171599,-0.66642 0.453292,-1.70777 0.625985,-2.31411 0.172693,-0.60633 0.440427,-1.56545 0.594966,-2.13136 0.154538,-0.56592 0.379613,-1.38001 0.500165,-1.80911 0.120553,-0.4291 0.4248,-1.520505 0.676105,-2.425355 0.360122,-1.29665 0.548742,-1.7308 0.890374,-2.04939 l 0.433458,-0.40423 h 4.167093 c 3.920575,0 4.188828,0.0171 4.534496,0.289 0.202072,0.15895 0.440342,0.47314 0.52949,0.69821 0.18119,0.45743 1.640197,5.673855 2.761741,9.874105 0.400914,1.50144 0.390995,1.81385 -0.11485,3.61728 -0.158735,0.56591 -0.450519,1.62424 -0.648411,2.35185 -0.197892,0.7276 -0.516833,1.88515 -0.70876,2.57233 -0.191926,0.68719 -0.558246,2.0101 -0.814043,2.93982 -0.360671,1.31088 -0.563092,1.78939 -0.901601,2.13136 l -0.436511,0.44097 -4.008287,0.0432 c -3.988759,0.043 -4.010767,0.0416 -4.51737,-0.29947 z m 8.813489,-0.33173 c 0.166827,-0.16892 0.488363,-1.01306 0.755859,-1.98437 0.25604,-0.92972 0.622557,-2.25263 0.814483,-2.93982 0.191927,-0.68718 0.510867,-1.84473 0.708759,-2.57233 0.197893,-0.72761 0.489676,-1.78594 0.648412,-2.35185 0.59224,-2.11144 0.623646,-1.78892 -0.615475,-6.3206 -1.977622,-7.232515 -2.066992,-7.513275 -2.458188,-7.722635 -0.151037,-0.0808 -2.023813,-0.14138 -4.373277,-0.14138 -3.701459,0 -4.138805,0.0255 -4.408351,0.25724 -0.190692,0.16392 -0.465407,0.85399 -0.75735,1.9024 -0.251964,0.90485 -0.55675,1.996255 -0.677303,2.425355 -0.120553,0.4291 -0.345627,1.24319 -0.500166,1.80911 -0.154538,0.56591 -0.422273,1.52503 -0.594966,2.13136 -0.172693,0.60634 -0.454386,1.64769 -0.625985,2.31411 l -0.311998,1.21168 0.31286,1.28716 c 0.286056,1.17689 0.621045,2.41212 1.724367,6.35835 0.214732,0.76802 0.518385,1.86982 0.674784,2.44844 0.64663,2.39227 0.331995,2.26286 5.391551,2.21758 3.781205,-0.0338 4.017648,-0.052 4.291984,-0.3298 z m -8.295281,-0.81111 c -0.05254,-0.085 -0.217287,-0.58033 -0.3661,-1.1007 l -0.27057,-0.94614 1.936054,-0.0409 c 1.604751,-0.0339 1.936055,-0.0787 1.936055,-0.26142 0,-0.18326 -0.339757,-0.22738 -2.012515,-0.26132 -1.858755,-0.0377 -2.018789,-0.063 -2.094618,-0.33073 -0.04516,-0.15944 -0.119632,-0.42218 -0.165503,-0.58387 -0.08222,-0.28982 -0.01321,-0.29398 4.86642,-0.29398 4.467754,0 4.94107,0.0228 4.859972,0.23414 -0.04942,0.12878 -0.129353,0.39153 -0.177635,0.58391 -0.08643,0.34438 -0.118713,0.3504 -2.093991,0.39057 -1.667166,0.0339 -2.006204,0.0781 -2.006204,0.26128 0,0.18231 0.324515,0.22761 1.874131,0.26163 2.129913,0.0468 2.037427,-0.0315 1.602769,1.35527 l -0.253402,0.80845 -3.769666,0.0392 c -2.518785,0.0262 -3.801366,-0.0121 -3.865197,-0.11537 z m 2.921286,-1.35289 c -0.107137,-0.17335 -0.788277,-0.1368 -0.788277,0.0423 0,0.0862 0.07425,0.2954 0.165005,0.46497 l 0.165005,0.30831 0.264471,-0.35061 c 0.145458,-0.19284 0.232667,-0.40208 0.193796,-0.46497 z m 1.269593,0.078 c 0,-0.19257 -0.606107,-0.27224 -0.7763,-0.10205 -0.04969,0.0497 0.01768,0.25521 0.149707,0.45671 0.226263,0.34532 0.25115,0.35118 0.433321,0.10204 0.1063,-0.14537 0.193272,-0.35089 0.193272,-0.4567 z m 1.322916,0 c 0,-0.21005 -0.670479,-0.26864 -0.793644,-0.0694 -0.04182,0.0677 0.03086,0.27566 0.161516,0.4622 0.227149,0.3243 0.246201,0.32734 0.434843,0.0694 0.108507,-0.14839 0.197285,-0.35638 0.197285,-0.46219 z m -6.607522,-7.31294 c -0.150803,-0.1817 -0.01299,-0.51155 0.795312,-1.90351 1.123811,-1.93529 1.315562,-2.15017 1.634316,-1.83142 0.435558,0.43556 1.98375,3.28543 1.942244,3.57523 -0.04028,0.28123 -0.160624,0.3005 -2.116083,0.33884 -1.696282,0.0333 -2.106554,7.4e-4 -2.255789,-0.17914 z m 5.451984,-0.0452 c -0.105025,-0.19727 0.08087,-0.63156 0.797511,-1.86312 0.513952,-0.88323 1.036271,-1.70769 1.16071,-1.83213 0.203676,-0.20368 0.250663,-0.20184 0.470892,0.0184 0.134552,0.13455 0.656609,0.95901 1.160127,1.83213 1.229693,2.13234 1.249997,2.10196 -1.404767,2.10196 -1.799861,0 -2.064091,-0.0311 -2.184473,-0.25723 z m -0.859235,-1.39011 c -0.08269,-0.10452 -0.56496,-0.91285 -1.0717,-1.79629 -0.700861,-1.22186 -0.886454,-1.66156 -0.775547,-1.83738 0.215232,-0.34122 4.126736,-0.34325 4.341827,-0.002 0.109403,0.17344 -0.102938,0.65407 -0.876698,1.98438 -0.997851,1.71558 -1.312837,2.03712 -1.617882,1.65156 z m -4.534202,-8.36062 c -0.02921,-0.0473 -0.0016,-0.27886 0.06126,-0.51447 l 0.114361,-0.428375 1.922715,-0.0409 c 1.447776,-0.0308 1.965742,-0.0927 2.096902,-0.25079 0.349864,-0.42156 -0.0014,-0.51674 -1.907292,-0.51674 h -1.89183 l 0.28085,-0.98208 c 0.154467,-0.54015 0.336168,-1.0374 0.403779,-1.10501 0.06761,-0.0676 1.802396,-0.10524 3.855079,-0.0836 l 3.732149,0.0393 0.324,1.06569 0.323999,1.06568 h -1.902579 c -1.608891,0 -1.916519,0.0363 -1.992881,0.23532 -0.154085,0.40154 0.255735,0.49505 2.179766,0.49738 l 1.859753,0.002 0.162032,0.464815 c 0.08912,0.25564 0.141084,0.48576 0.11548,0.51136 -0.0871,0.0871 -9.684174,0.1267 -9.737543,0.0402 z m 3.944489,-2.429605 c 0.04969,-0.0497 -0.01768,-0.25521 -0.149707,-0.4567 -0.226263,-0.34533 -0.251151,-0.35119 -0.433322,-0.10205 -0.291134,0.39815 -0.233256,0.64909 0.149707,0.64909 0.188638,0 0.383633,-0.0406 0.433322,-0.0903 z m 1.28157,-0.10205 c 0,-0.10581 -0.08697,-0.31133 -0.193272,-0.4567 -0.182171,-0.24914 -0.207058,-0.24328 -0.433321,0.10205 -0.132028,0.20149 -0.199396,0.40701 -0.149707,0.4567 0.170193,0.17019 0.7763,0.0905 0.7763,-0.10205 z m 1.322916,0 c 0,-0.10581 -0.08697,-0.31133 -0.193271,-0.4567 -0.181862,-0.24871 -0.207895,-0.242 -0.440972,0.11372 -0.330449,0.50433 -0.319241,0.53537 0.193271,0.53537 0.265362,0 0.440972,-0.0766 0.440972,-0.19239 z m -6.315986,-3.8866 c -0.289177,-0.26506 -0.514618,-0.68254 -0.654848,-1.21267 -0.382935,-1.44766 -2.110588,-7.68338 -2.498952,-9.01962 -0.208225,-0.71644 -0.37781,-1.47712 -0.376856,-1.6904 0.0026,-0.58081 0.342404,-1.89197 1.986174,-7.66382 0.541061,-1.89985 1.017506,-3.60383 1.058765,-3.78662 0.04126,-0.18279 0.270681,-0.49698 0.509824,-0.6982 l 0.434807,-0.36587 h 4.166679 4.166679 l 0.42416,0.35691 c 0.339393,0.28558 0.505893,0.66011 0.833146,1.87413 0.224941,0.83447 0.464156,1.68259 0.531586,1.8847 0.06743,0.20211 0.330454,1.12815 0.5845,2.05787 0.254045,0.92972 0.698683,2.51721 0.988083,3.52778 0.665205,2.32284 0.672347,3.08254 0.04906,5.21817 -0.492194,1.68645 -1.339575,4.73432 -2.084209,7.49652 -0.34765,1.28959 -0.524196,1.69873 -0.872146,2.02112 l -0.436262,0.40423 H 25.14003 20.955433 Z m 9.084406,-0.14699 c 0.197153,-0.16784 0.453991,-0.81909 0.73912,-1.87413 0.774526,-2.86591 1.601509,-5.83887 2.085299,-7.49652 0.627126,-2.14878 0.61761,-2.8884 -0.06808,-5.29167 -0.299861,-1.05098 -0.710922,-2.50619 -0.913468,-3.23379 -0.202546,-0.72761 -0.461974,-1.65365 -0.576507,-2.05787 -0.114532,-0.40423 -0.380318,-1.36334 -0.590635,-2.13137 -0.234335,-0.85573 -0.497679,-1.49601 -0.680135,-1.65364 -0.268357,-0.23185 -0.706312,-0.25724 -4.437984,-0.25724 -4.452145,0 -4.667945,0.0343 -4.833249,0.76747 -0.04153,0.18423 -0.518205,1.88939 -1.059267,3.78924 -1.643769,5.77185 -1.983574,7.08301 -1.986173,7.66382 -9.56e-4,0.21328 0.16863,0.97396 0.376855,1.6904 0.378475,1.30221 2.094451,7.49351 2.499871,9.01962 0.362161,1.36327 0.210095,1.32292 4.985541,1.32292 3.745633,0 4.186545,-0.0254 4.458812,-0.25724 z m -8.282215,-0.77436 c -0.05254,-0.085 -0.217826,-0.58221 -0.367297,-1.10489 l -0.271767,-0.95032 h 1.905117 c 1.611219,0 1.919048,-0.0363 1.995419,-0.23532 0.154085,-0.40154 -0.255735,-0.49505 -2.179766,-0.49738 l -1.859753,-0.002 -0.16137,-0.46291 c -0.08875,-0.2546 -0.16137,-0.51918 -0.16137,-0.58796 0,-0.0688 2.215885,-0.12506 4.924189,-0.12506 2.708304,0 4.924189,0.0563 4.924189,0.12506 0,0.0688 -0.07262,0.33336 -0.16137,0.58796 l -0.16137,0.46291 -1.859753,0.002 c -1.924031,0.002 -2.333851,0.0958 -2.179766,0.49738 0.07636,0.199 0.38399,0.23532 1.992881,0.23532 h 1.902579 l -0.324002,1.06568 -0.324002,1.06569 -3.768629,0.0392 c -2.518059,0.0262 -3.800329,-0.0121 -3.864159,-0.11536 z m 2.109415,-0.95969 c 0.231018,-0.50704 0.230741,-0.50756 -0.270388,-0.50756 -0.242534,0 -0.440972,0.03 -0.440972,0.0666 0,0.16544 0.3515,0.81537 0.440972,0.81537 0.05489,0 0.176566,-0.16848 0.270388,-0.37439 z m 1.322916,0 c 0.231019,-0.50704 0.230742,-0.50756 -0.270387,-0.50756 -0.242535,0 -0.440972,0.03 -0.440972,0.0666 0,0.16544 0.351499,0.81537 0.440972,0.81537 0.05489,0 0.176565,-0.16848 0.270387,-0.37439 z m 1.322916,0 c 0.231019,-0.50704 0.230742,-0.50756 -0.270387,-0.50756 -0.242534,0 -0.440972,0.03 -0.440972,0.0666 0,0.16544 0.3515,0.81537 0.440972,0.81537 0.05489,0 0.176566,-0.16848 0.270387,-0.37439 z m 1.493502,-0.37685 c 0,-0.0719 -0.198438,-0.13071 -0.440972,-0.13071 -0.480219,0 -0.539858,0.138 -0.257234,0.59522 0.183476,0.29682 0.184106,0.29679 0.440972,-0.0183 0.141479,-0.17354 0.257234,-0.37434 0.257234,-0.44623 z m -7.186041,-5.53852 c -0.115299,-0.21544 0.03755,-0.58611 0.744151,-1.80463 0.48909,-0.84343 1.018148,-1.66579 1.175684,-1.82748 0.286209,-0.29376 0.286653,-0.29371 0.574475,0.0568 0.547017,0.66609 1.92271,3.23887 1.872302,3.50154 -0.04533,0.23619 -0.266444,0.26768 -2.136036,0.3042 -1.900363,0.0371 -2.098353,0.0167 -2.230576,-0.23038 z m 5.230027,0.16901 c -0.22809,-0.22809 -0.0595,-0.68628 0.797143,-2.16652 1.02715,-1.77486 1.205087,-1.97472 1.523102,-1.71079 0.391456,0.32488 2.002225,3.28176 1.957636,3.59362 -0.04132,0.28902 -0.147403,0.30637 -2.109768,0.34494 -1.136441,0.0223 -2.112091,-0.005 -2.168113,-0.0613 z m -4.29793,-6.4837 c -0.542751,-0.94993 -1.011902,-1.77142 -1.042557,-1.82554 -0.03065,-0.0541 0.04882,-0.20294 0.1766,-0.33073 0.18745,-0.18745 0.593797,-0.23233 2.103318,-0.23233 1.842341,0 2.223759,0.0895 2.223759,0.52163 0,0.17953 -1.585479,2.98154 -1.904714,3.36619 -0.104034,0.12536 -0.274749,0.22792 -0.379369,0.22792 -0.104619,0 -0.634285,-0.77722 -1.177037,-1.72714 z m 6.075508,1.4699 c -0.406954,-0.46733 -1.879434,-3.14166 -1.879434,-3.41344 0,-0.38928 0.276344,-0.44506 2.20486,-0.44506 0.956915,0 1.844473,0.0402 1.972353,0.0892 0.396642,0.15221 0.26262,0.62329 -0.595587,2.09346 -0.83789,1.43537 -1.192355,1.93306 -1.376766,1.93306 -0.05579,0 -0.202226,-0.11576 -0.325426,-0.25724 z m -7.095847,-6.98205 c 0.05229,-0.18191 0.126762,-0.44465 0.165503,-0.58388 0.06153,-0.22112 0.324962,-0.2583 2.082955,-0.29398 1.672758,-0.0339 2.012515,-0.0781 2.012515,-0.26132 0,-0.18289 -0.3336,-0.22749 -1.956159,-0.26156 -1.773032,-0.0372 -1.948643,-0.0648 -1.875867,-0.29398 0.04416,-0.1391 0.196829,-0.61671 0.339262,-1.06136 l 0.258969,-0.80845 h 3.821117 3.821118 l 0.173878,0.53074 c 0.09563,0.29191 0.218657,0.76944 0.273387,1.06118 l 0.09951,0.53043 -1.889645,0.0413 c -1.563354,0.0341 -1.889644,0.0793 -1.889644,0.26174 0,0.18326 0.339757,0.22738 2.012515,0.26132 1.757993,0.0357 2.021424,0.0729 2.082955,0.29398 0.03874,0.13923 0.113217,0.40197 0.165503,0.58388 l 0.09506,0.33072 h -4.943999 -4.943999 z m 3.300859,-2.20487 c -0.0055,-0.2143 -0.407227,-0.77989 -0.488364,-0.68747 -0.09707,0.11056 -0.388906,0.70193 -0.388906,0.78805 0,0.0457 0.198438,0.0832 0.440972,0.0832 0.257278,0 0.439025,-0.0765 0.436298,-0.18374 z m 1.327591,0.11716 c 0,-0.16543 -0.3515,-0.81536 -0.440972,-0.81536 -0.08947,0 -0.440972,0.64993 -0.440972,0.81536 0,0.0366 0.198437,0.0666 0.440972,0.0666 0.242534,0 0.440972,-0.03 0.440972,-0.0666 z m 1.322916,-0.0166 c 0,-0.0861 -0.291839,-0.67749 -0.388906,-0.78805 -0.08114,-0.0924 -0.482911,0.47317 -0.488363,0.68747 -0.0027,0.1072 0.17902,0.18374 0.436297,0.18374 0.242535,0 0.440972,-0.0374 0.440972,-0.0832 z m 1.219751,-0.01 c 0.07841,-0.0784 -0.101521,-0.56856 -0.28574,-0.77839 -0.08114,-0.0924 -0.482911,0.47316 -0.488364,0.68747 -0.0048,0.1875 0.605806,0.25921 0.774104,0.0909 z m -6.784177,-3.81681 c -0.190441,-0.1345 -0.446913,-0.48394 -0.569938,-0.77654 -0.24008,-0.57101 -1.553943,-5.21114 -2.570454,-9.078 l -0.623646,-2.37238 0.312279,-1.22889 c 0.171754,-0.67589 0.443699,-1.69191 0.604323,-2.25782 0.160625,-0.56592 0.702775,-2.51722 1.20478,-4.33623 1.0409,-3.77169 1.208232,-4.19353 1.780947,-4.48969 0.644351,-0.33321 7.896538,-0.31105 8.607444,0.0263 0.543915,0.25811 0.837541,0.70423 1.002774,1.52359 0.05706,0.28295 0.287657,1.14285 0.512434,1.91087 0.403754,1.37957 0.606882,2.10865 1.18763,4.26273 0.163471,0.60634 0.428984,1.56546 0.590028,2.13137 0.610239,2.1444 0.632816,2.40262 0.321485,3.67713 -0.157668,0.64546 -0.666817,2.52955 -1.131443,4.18687 -0.464626,1.65732 -1.028615,3.70315 -1.253309,4.54629 -0.248462,0.93232 -0.550866,1.70984 -0.771792,1.98437 l -0.363258,0.4514 -4.247014,0.0416 c -3.766984,0.0369 -4.28615,0.0139 -4.59327,-0.20295 z m 9.064982,-0.47746 c 0.125847,-0.18967 0.407933,-1.01649 0.626859,-1.83739 0.218926,-0.8209 0.778194,-2.84853 1.24282,-4.50585 0.464626,-1.65732 0.973776,-3.54141 1.131444,-4.18687 0.313285,-1.28251 0.290634,-1.52988 -0.343453,-3.75063 -0.28879,-1.01142 -0.637435,-2.28897 -1.204947,-4.41533 -0.119498,-0.44773 -0.388986,-1.40685 -0.598861,-2.13136 -0.209876,-0.72452 -0.448377,-1.58792 -0.530002,-1.91868 -0.288479,-1.16895 -0.240125,-1.15693 -4.85281,-1.20574 -4.079329,-0.0432 -4.085355,-0.0428 -4.466715,0.29399 -0.317259,0.28014 -0.546905,0.93413 -1.357176,3.86497 -0.536415,1.94028 -1.106326,3.9908 -1.266469,4.55672 -0.160144,0.56591 -0.431696,1.58193 -0.603449,2.25782 l -0.312279,1.22889 0.623645,2.37238 c 0.831483,3.16301 2.311776,8.43685 2.522511,8.98697 0.316799,0.82698 0.301453,0.82455 4.914928,0.77789 l 4.245142,-0.0429 z m -8.432747,-0.65195 c -0.04158,-0.10836 -0.19899,-0.60453 -0.349794,-1.10261 l -0.27419,-0.90558 1.932891,-0.0409 c 1.82126,-0.0385 1.932891,-0.0579 1.932891,-0.3349 0,-0.27764 -0.111597,-0.29625 -2.008159,-0.33479 l -2.00816,-0.0408 -0.159953,-0.45884 c -0.08798,-0.25237 -0.159954,-0.51512 -0.159954,-0.5839 0,-0.0688 2.215885,-0.12506 4.924189,-0.12506 2.708304,0 4.924189,0.0563 4.924189,0.12506 0,0.0688 -0.07198,0.33153 -0.159954,0.5839 l -0.159953,0.45884 -2.00816,0.0408 c -1.896562,0.0385 -2.008159,0.0571 -2.008159,0.33479 0,0.277 0.111629,0.29635 1.932092,0.33489 l 1.932092,0.0409 -0.295505,0.98803 c -0.162528,0.54341 -0.36766,1.03346 -0.455849,1.08899 -0.08819,0.0555 -1.80163,0.10709 -3.807647,0.11458 -2.922942,0.0109 -3.662318,-0.0255 -3.722907,-0.1834 z m 1.695127,-1.31831 c 0.0018,-0.0606 -0.195169,-0.11025 -0.437703,-0.11025 -0.479473,0 -0.540262,0.13899 -0.258281,0.59051 0.180464,0.28897 0.185803,0.28849 0.437704,-0.0387 0.140257,-0.18221 0.256483,-0.38089 0.25828,-0.44152 z m 1.105699,0.33072 0.228036,-0.44097 h -0.522017 -0.522017 l 0.228035,0.44097 c 0.12542,0.24254 0.257711,0.44098 0.293982,0.44098 0.03627,0 0.168562,-0.19844 0.293981,-0.44098 z m 1.396412,-0.24858 c 0,-0.11613 -0.176275,-0.19239 -0.444747,-0.19239 h -0.444747 l 0.242511,0.46897 c 0.229834,0.44445 0.253084,0.4545 0.444747,0.19239 0.11123,-0.15212 0.202236,-0.36315 0.202236,-0.46897 z m 1.318241,-0.009 c 0.0027,-0.1072 -0.17902,-0.18374 -0.436297,-0.18374 -0.510472,0 -0.522935,0.0323 -0.201862,0.52226 0.224217,0.3422 0.251394,0.34875 0.436298,0.10508 0.108452,-0.14293 0.19929,-0.34254 0.201861,-0.4436 z m 1.322917,0 c 0.0027,-0.1072 -0.17902,-0.18374 -0.436298,-0.18374 -0.510472,0 -0.522934,0.0323 -0.201861,0.52226 0.224216,0.3422 0.251393,0.34875 0.436297,0.10508 0.108453,-0.14293 0.199291,-0.34254 0.201862,-0.4436 z m -3.941664,-4.79014 c -0.988472,-1.67352 -1.169608,-2.04915 -1.092424,-2.26541 0.09404,-0.26349 3.763528,-0.26003 3.982445,0.004 0.115161,0.13876 -0.08572,0.60677 -0.772885,1.80063 -0.51067,0.88723 -1.030744,1.63359 -1.15572,1.65859 -0.150747,0.0301 -0.474345,-0.37294 -0.961416,-1.19757 z m -4.040157,-2.9875 c -0.196762,-0.19676 -0.081,-0.49036 0.795978,-2.01876 0.599038,-1.044 0.978721,-1.55801 1.150857,-1.55801 0.338547,0 2.121268,3.07852 1.986339,3.43014 -0.08075,0.21044 -0.355283,0.24463 -1.964525,0.24463 -1.02886,0 -1.914752,-0.0441 -1.968649,-0.098 z m 6.026619,0 c -0.196762,-0.19676 -0.081,-0.49036 0.795978,-2.01876 0.622296,-1.08454 0.975574,-1.55801 1.162494,-1.55801 0.343833,0 2.110484,3.0763 1.972761,3.4352 -0.07831,0.20406 -0.369165,0.23957 -1.962584,0.23957 -1.02886,0 -1.914752,-0.0441 -1.968649,-0.098 z m -1.986462,-1.56859 c -1.05155,-1.78031 -1.190402,-2.07716 -1.065854,-2.27869 0.08041,-0.1301 0.634152,-0.16823 2.008586,-0.1383 1.647803,0.0359 1.903865,0.0742 1.945391,0.29073 0.06354,0.33137 -1.63821,3.26571 -1.927621,3.32382 -0.149658,0.0301 -0.474999,-0.37559 -0.960502,-1.19756 z m -1.039873,-3.24378 c -0.145408,-0.1752 -0.02465,-0.48284 0.650746,-1.65787 0.94681,-1.64722 1.139844,-1.88344 1.443792,-1.76681 0.305518,0.11724 1.897652,2.97379 1.836166,3.29438 -0.04488,0.23401 -0.257512,0.26805 -1.901347,0.30445 -1.482129,0.0328 -1.886385,-0.002 -2.029357,-0.17415 z m -2.876034,-4.82777 c 0.05229,-0.1819 0.126762,-0.44464 0.165503,-0.58387 0.06153,-0.22112 0.324962,-0.2583 2.082955,-0.29398 1.672758,-0.0339 2.012515,-0.0781 2.012515,-0.26132 0,-0.18063 -0.33899,-0.23378 -1.874985,-0.29399 -1.031241,-0.0404 -1.881444,-0.12495 -1.88934,-0.18785 -0.0079,-0.0629 0.101817,-0.54353 0.243805,-1.06808 l 0.25816,-0.95372 3.836041,0.0392 3.83604,0.0391 0.24545,0.73495 c 0.478673,1.4333 0.536582,1.38176 -1.605114,1.42877 -1.549616,0.034 -1.874131,0.0793 -1.874131,0.26163 0,0.18326 0.339757,0.22738 2.012515,0.26132 1.757993,0.0357 2.021424,0.0729 2.082955,0.29398 0.03874,0.13923 0.113217,0.40197 0.165503,0.58387 l 0.09506,0.33073 h -4.943999 -4.943999 z m 2.574961,-2.4539 c -0.232612,-0.43464 -0.414642,-0.48722 -0.584969,-0.16896 -0.224169,0.41886 -0.201142,0.45475 0.291778,0.45475 0.396335,0 0.429068,-0.0319 0.293191,-0.28579 z m 1.322917,0 c -0.242907,-0.45388 -0.396094,-0.47274 -0.65315,-0.0804 l -0.239953,0.36621 h 0.523028 c 0.472484,0 0.508247,-0.0276 0.370075,-0.28579 z m 1.23235,-0.0804 c -0.257056,-0.39232 -0.410243,-0.37346 -0.65315,0.0804 -0.138172,0.25817 -0.10241,0.28579 0.370075,0.28579 h 0.523028 z m 1.409101,0.28305 c 0,-0.0457 -0.06946,-0.21295 -0.154366,-0.37159 -0.170327,-0.31826 -0.352356,-0.26568 -0.584969,0.16896 -0.135876,0.25388 -0.103144,0.28579 0.293191,0.28579 0.245379,0 0.446144,-0.0374 0.446144,-0.0832 z m 1.322917,0 c 0,-0.17422 -0.309607,-0.65179 -0.42255,-0.65179 -0.06502,0 -0.19357,0.16536 -0.285658,0.36747 -0.158196,0.3472 -0.143277,0.36748 0.270387,0.36748 0.240801,0 0.437821,-0.0374 0.437821,-0.0832 z m -7.35756,-3.66063 c -0.536728,-0.29194 -0.800026,-0.89278 -1.483491,-3.38526 -0.332528,-1.21267 -0.734696,-2.66788 -0.893707,-3.23379 -0.709481,-2.52502 -1.436536,-5.45016 -1.436536,-5.77958 0,-0.37345 0.06452,-0.63404 0.734471,-2.96637 0.220611,-0.76803 0.581192,-2.05787 0.80129,-2.86632 0.220098,-0.80845 0.525865,-1.89985 0.679483,-2.42534 0.153617,-0.5255 0.410835,-1.44398 0.571594,-2.04107 0.341602,-1.26878 0.616142,-1.74052 1.125672,-1.93424 0.203147,-0.0772 2.121201,-0.14043 4.262343,-0.14043 3.184794,0 3.971082,0.0404 4.322299,0.222 0.649418,0.33583 0.602631,0.21314 1.905305,4.99617 0.154128,0.56591 0.421597,1.52502 0.594374,2.13136 0.172777,0.60634 0.551677,2.01036 0.841997,3.12006 l 0.527854,2.01763 -0.46893,1.80413 c -0.257912,0.99227 -0.628534,2.36637 -0.823607,3.05355 -0.195071,0.68718 -0.694876,2.5053 -1.110679,4.04025 -0.415802,1.53496 -0.828985,2.87878 -0.918185,2.98626 -0.470957,0.56747 -0.87079,0.61716 -4.916745,0.61112 -3.075432,-0.005 -4.021647,-0.0507 -4.314802,-0.21013 z m 8.665059,-0.29048 c 0.376979,-0.19494 0.46856,-0.42889 1.107665,-2.82957 0.38319,-1.43938 0.787277,-2.91472 0.897969,-3.27852 0.355766,-1.16925 1.053668,-3.71651 1.322451,-4.82677 l 0.261095,-1.07852 -0.525492,-2.00829 c -0.289019,-1.10456 -0.666854,-2.50438 -0.839631,-3.11072 -0.172778,-0.60634 -0.440246,-1.56545 -0.594375,-2.13136 -0.646916,-2.37528 -1.146319,-4.13094 -1.238243,-4.35307 -0.208712,-0.50433 -0.759487,-0.57112 -4.709595,-0.57112 -2.133323,0 -4.03811,0.0606 -4.23286,0.13462 -0.381275,0.14496 -0.543783,0.47568 -0.908938,1.84975 -0.128905,0.48507 -0.359146,1.31189 -0.511646,1.83739 -0.1525,0.52549 -0.457353,1.61689 -0.677451,2.42534 -0.220098,0.80845 -0.580678,2.09829 -0.80129,2.86632 -0.669949,2.33233 -0.734471,2.59292 -0.734471,2.96637 0,0.33122 0.71152,3.19143 1.456038,5.85307 0.169605,0.60634 0.602847,2.16077 0.962759,3.45428 0.523364,1.88096 0.730968,2.41807 1.036871,2.68258 0.376279,0.32537 0.446849,0.33073 4.350336,0.33073 3.173331,0 4.050142,-0.0426 4.378808,-0.21251 z m -8.440553,-1.76636 c -0.141425,-0.52247 -0.247885,-0.99302 -0.236578,-1.04568 0.01131,-0.0527 0.803396,-0.0849 1.760197,-0.0717 1.391127,0.0192 1.776434,-0.0203 1.923303,-0.19731 0.362277,-0.43651 0.02092,-0.52816 -1.967306,-0.52816 h -1.961321 l -0.16137,-0.4629 c -0.08875,-0.2546 -0.16137,-0.51918 -0.16137,-0.58796 0,-0.0688 2.220343,-0.12506 4.934094,-0.12506 4.863901,0 4.932908,0.004 4.850694,0.29398 -0.27363,0.96453 -0.06489,0.88194 -2.229285,0.88194 -1.679038,0 -1.992773,0.0357 -2.069384,0.23532 -0.15578,0.40596 0.265843,0.50394 2.083903,0.48424 0.970138,-0.0105 1.750221,0.0383 1.733516,0.10839 -0.0167,0.0701 -0.142277,0.54091 -0.27905,1.04619 l -0.248678,0.91869 h -3.857114 -3.857115 z m 1.101263,-0.0693 c 0.221497,-0.41388 0.197935,-0.45064 -0.28881,-0.45064 -0.496082,0 -0.515012,0.0324 -0.258623,0.44297 0.228692,0.36619 0.354612,0.36796 0.547433,0.008 z m 1.322916,0 c 0.221497,-0.41388 0.197935,-0.45064 -0.28881,-0.45064 -0.496081,0 -0.515011,0.0324 -0.258623,0.44297 0.228692,0.36619 0.354612,0.36796 0.547433,0.008 z m 1.270461,0.0271 c 0.293382,-0.38648 0.248241,-0.47772 -0.236354,-0.47772 -0.486745,0 -0.510307,0.0368 -0.28881,0.45064 0.187628,0.35058 0.276126,0.35515 0.525164,0.0271 z m 1.322916,0 c 0.293382,-0.38648 0.248241,-0.47772 -0.236354,-0.47772 -0.486745,0 -0.510307,0.0368 -0.28881,0.45064 0.187629,0.35058 0.276127,0.35515 0.525164,0.0271 z m 1.322917,0 c 0.293381,-0.38648 0.248241,-0.47772 -0.236354,-0.47772 -0.486745,0 -0.510307,0.0368 -0.28881,0.45064 0.187628,0.35058 0.276126,0.35515 0.525164,0.0271 z m 1.353798,-0.11024 c 0.158195,-0.3472 0.143277,-0.36748 -0.270387,-0.36748 -0.483504,0 -0.506997,0.0371 -0.285659,0.45064 0.203767,0.38074 0.354982,0.35812 0.556046,-0.0832 z m -8.487291,-6.01286 c -0.145823,-0.1757 -0.01749,-0.49492 0.696091,-1.73149 0.586396,-1.01616 0.970964,-1.5307 1.166285,-1.56044 0.232201,-0.0354 0.461766,0.2565 1.129837,1.43641 0.461134,0.81443 0.816515,1.59507 0.789736,1.73476 -0.0424,0.22118 -0.278261,0.2593 -1.825928,0.29509 -1.418819,0.0328 -1.813293,-0.002 -1.956021,-0.17433 z m 6.03827,0.014 c -0.230901,-0.27821 1.493409,-3.33509 1.881246,-3.33509 0.18958,0 0.492161,0.3761 0.975629,1.21267 1.081495,1.87138 1.097103,1.9075 0.917737,2.12362 -0.225644,0.27189 -3.548849,0.27083 -3.774612,-0.001 z m -1.458848,-0.28503 c -0.460137,-0.56798 -1.662801,-2.80707 -1.622008,-3.01981 0.04177,-0.21788 0.291191,-0.25611 1.903043,-0.29175 1.492067,-0.033 1.870594,-2.8e-4 1.934845,0.16715 0.102018,0.26585 -1.625991,3.32814 -1.878026,3.32814 -0.103951,0 -0.255985,-0.0827 -0.337854,-0.18373 z m -1.588214,-4.42129 c -0.122219,-0.3185 1.691853,-3.35581 1.972069,-3.30184 0.218353,0.042 0.758066,0.84103 1.634357,2.41947 0.558113,1.00531 0.444982,1.07767 -1.68487,1.07767 -1.400019,0 -1.864736,-0.0472 -1.921556,-0.1953 z m -1.648264,-0.5764 c -0.157579,-0.26274 -0.564907,-0.96094 -0.905173,-1.55154 -0.846069,-1.46854 -0.79322,-1.51957 1.51825,-1.46612 1.573076,0.0364 1.783041,0.0714 1.827757,0.30459 0.02779,0.14491 -0.325673,0.92213 -0.785465,1.72714 -0.92531,1.62004 -1.183016,1.77353 -1.655369,0.98593 z m 5.439016,-1.04581 c -1.148336,-2.00133 -1.146685,-2.00425 1.133419,-2.00425 2.339986,0 2.335185,-0.008 1.179389,1.97331 -0.622792,1.06762 -0.990073,1.55447 -1.172706,1.55447 -0.183229,0 -0.537745,-0.47374 -1.140102,-1.52353 z m -6.793385,-5.06912 c 0,-0.0688 0.07262,-0.33336 0.16137,-0.58796 l 0.16137,-0.4629 h 1.961321 c 1.988229,0 2.329583,-0.0917 1.967306,-0.52817 -0.146869,-0.17696 -0.532176,-0.21649 -1.923303,-0.1973 -0.956801,0.0132 -1.74889,-0.0191 -1.760197,-0.0717 -0.01131,-0.0527 0.09515,-0.52322 0.236578,-1.04568 l 0.257136,-0.94994 h 3.854832 3.854831 l 0.244586,0.87973 c 0.134521,0.48385 0.24471,0.9634 0.244863,1.06568 2.06e-4,0.14163 -0.411446,0.17662 -1.727141,0.14678 -1.776646,-0.0403 -2.204168,0.0569 -2.047433,0.46531 0.07661,0.19965 0.390346,0.23533 2.069384,0.23533 1.759518,0 1.987041,0.0285 2.05082,0.25723 0.03946,0.14148 0.114516,0.40606 0.166802,0.58796 l 0.09506,0.33073 h -4.934094 c -2.713751,0 -4.934094,-0.0563 -4.934094,-0.12506 z m 2.05787,-2.49268 c 0,-0.0654 -0.09513,-0.24729 -0.211398,-0.40422 -0.208892,-0.28195 -0.214062,-0.28185 -0.436297,0.009 -0.324682,0.42442 -0.288497,0.51447 0.206723,0.51447 0.242535,0 0.440972,-0.0535 0.440972,-0.1189 z m 1.322917,0 c 0,-0.0654 -0.09513,-0.24729 -0.211398,-0.40422 -0.208893,-0.28195 -0.214063,-0.28185 -0.436297,0.009 -0.324683,0.42442 -0.288498,0.51447 0.206722,0.51447 0.242535,0 0.440973,-0.0535 0.440973,-0.1189 z m 1.322916,0 c 0,-0.0654 -0.09922,-0.24729 -0.220486,-0.40422 -0.218257,-0.28245 -0.222715,-0.28245 -0.440972,0 -0.320391,0.41461 -0.274656,0.52312 0.220486,0.52312 0.242534,0 0.440972,-0.0535 0.440972,-0.1189 z m 1.318242,0.009 c -0.0026,-0.0606 -0.10588,-0.24254 -0.229575,-0.40423 -0.222235,-0.2905 -0.227404,-0.2906 -0.436297,-0.009 -0.309387,0.41758 -0.263072,0.52312 0.229574,0.52312 0.242535,0 0.438869,-0.0496 0.436298,-0.11024 z m 1.322916,0 c -0.0026,-0.0606 -0.10588,-0.24254 -0.229575,-0.40423 -0.222234,-0.2905 -0.227404,-0.2906 -0.436297,-0.009 -0.309387,0.41758 -0.263072,0.52312 0.229575,0.52312 0.242534,0 0.438868,-0.0496 0.436297,-0.11024 z m 1.322916,0 c -0.0026,-0.0606 -0.105879,-0.24254 -0.229574,-0.40423 -0.222235,-0.2905 -0.227405,-0.2906 -0.436297,-0.009 -0.309387,0.41758 -0.263072,0.52312 0.229574,0.52312 0.242535,0 0.438868,-0.0496 0.436297,-0.11024 z"
       id="path5091"
       inkscape:connector-curvature="0"
       sodipodi:nodetypes="cscccscccscccscccccscccscccscccsccccccscccsscsccscccccccccccsccscccccccccccsccssscccsccscsccccsccsscccscsccscccccscccscccccscccccccccscccscccsccccccccsccscccccccscccccscscccccccccscccccccsccccssccccccscscccsscccsccccccccscccccccccccccccccscsccsccccccccccccsscccscscscccccccsccccscccsscccsscsccccccccssccccccccccccccscccccccsccccccccccsccscccssccsscsscsccccccssccscccccccsssccccsccccssccccsscccsssccccsccccccssscccssscccssscccsccccccccccccccccccccccsscsccssccscccccsccccccccccscccccccccssccssssscccscccccccccscscsccscsccscccscccsscscccccscscsccccccccscccssscccscccccccscccccccccscsscccscsccccsccccccccccccscsccsscsccccccccccccccccsccccccccscccccccccsccccsccccscccccscccssscccscscscscscssscsccccccscccccccscccssscccscccccsccsscscccscccccsccccsccccsccccsccccsccccsccccccsccccsccccccccsccccsccccccccscsccccscccccccccccscccsccsccsssscassssccsscccscccccscccccscc" />
    <path
       style="fill:#000000;stroke-width:1"
       d="m 21.439082,164.19154 c 0.004,-0.0785 0.25883,-0.63414 0.5663,-1.23472 l 0.55903,-1.09197 -0.43232,-0.81895 c -0.38364,-0.72671 -0.42653,-0.9363 -0.38089,-1.86115 0.0405,-0.82185 0.13254,-1.16479 0.43507,-1.62194 l 0.38364,-0.57972 -0.56178,-1.09745 c -0.30898,-0.60359 -0.56505,-1.15753 -0.56905,-1.23098 -0.004,-0.0735 0.41638,0.27328 0.93419,0.7705 l 0.94147,0.90405 0.49172,-0.2084 c 0.47938,-0.20318 0.49064,-0.22803 0.449,-0.991 l -0.0427,-0.78259 0.41078,0.73497 c 0.22593,0.40423 0.50948,0.73497 0.63011,0.73497 0.12063,0 0.40195,-0.33074 0.62516,-0.73497 l 0.40583,-0.73497 -0.0378,0.78076 c -0.0361,0.74612 -0.0177,0.78934 0.41439,0.97435 0.44294,0.18966 0.4721,0.17576 1.43318,-0.68332 0.53957,-0.48231 0.98104,-0.84613 0.98104,-0.80848 0,0.0376 -0.2689,0.57286 -0.59755,1.18937 l -0.59755,1.12092 0.28108,0.40363 c 0.84024,1.20655 0.81324,3.20755 -0.0562,4.16831 -0.20285,0.22414 -0.16751,0.36011 0.37309,1.4353 0.32844,0.65324 0.59716,1.23687 0.59716,1.29696 0,0.0601 -0.42231,-0.30929 -0.93846,-0.82086 l -0.93847,-0.93012 -0.54074,0.19554 -0.54074,0.19553 0.0992,0.72088 c 0.11576,0.8417 -0.0529,0.8248 -0.44489,-0.0446 -0.15153,-0.33604 -0.3706,-0.59482 -0.50325,-0.59448 -0.12921,3.2e-4 -0.42096,0.31453 -0.64835,0.69822 l -0.41343,0.69762 0.0838,-0.74179 0.0838,-0.74179 -0.53257,-0.19258 -0.53256,-0.19258 -0.93846,0.93012 c -0.51616,0.51157 -0.9352,0.86589 -0.93119,0.78738 z m 4.95375,-1.8514 c 0.44151,-0.16218 0.41678,-0.34146 -0.0976,-0.70775 l -0.42836,-0.30502 -0.33038,0.53457 -0.33039,0.53456 -0.27372,-0.53354 c -0.15055,-0.29345 -0.32592,-0.53355 -0.38971,-0.53355 -0.0638,0 -0.29939,0.19144 -0.52356,0.42543 l -0.40758,0.42542 0.49033,0.15297 c 0.97949,0.30558 1.47388,0.30708 2.29099,0.007 z m -3.08304,-1.96618 0.47116,-0.95546 -0.47116,-0.95546 c -0.25913,-0.5255 -0.5214,-0.95546 -0.58282,-0.95546 -0.28095,0 -0.62141,1.00582 -0.62196,1.83742 -5.4e-4,0.8185 0.37251,1.98441 0.63493,1.98441 0.0543,0 0.31072,-0.42995 0.56985,-0.95545 z m 4.77094,0.46125 c 0.38386,-0.80496 0.43668,-1.69564 0.14882,-2.50946 -0.1411,-0.39889 -0.3247,-0.74683 -0.408,-0.7732 -0.0833,-0.0264 -0.36381,0.38268 -0.62335,0.909 l -0.47189,0.95695 0.47116,0.95546 c 0.25914,0.5255 0.51085,0.95545 0.55937,0.95545 0.0485,0 0.19427,-0.22239 0.32389,-0.4942 z m -3.12239,-3.91245 c 0.10118,-0.24427 0.22984,-0.44413 0.2859,-0.44413 0.0561,0 0.21761,0.24257 0.35899,0.53906 l 0.25706,0.53905 0.46839,-0.46988 c 0.38724,-0.38848 0.4307,-0.49336 0.2509,-0.60534 -0.55156,-0.3435 -2.09529,-0.34504 -2.64931,-0.003 -0.17743,0.10966 -0.14095,0.21002 0.20924,0.57553 0.48096,0.50202 0.56173,0.48903 0.81883,-0.13166 z"
       id="path5095"
       inkscape:connector-curvature="0" />
  </g>
</svg>
