<?xml version="1.0" encoding="UTF-8" standalone="no"?>
<!-- Created with Inkscape (http://www.inkscape.org/) -->

<svg
   xmlns:dc="http://purl.org/dc/elements/1.1/"
   xmlns:cc="http://creativecommons.org/ns#"
   xmlns:rdf="http://www.w3.org/1999/02/22-rdf-syntax-ns#"
   xmlns:svg="http://www.w3.org/2000/svg"
   xmlns="http://www.w3.org/2000/svg"
   xmlns:sodipodi="http://sodipodi.sourceforge.net/DTD/sodipodi-0.dtd"
   xmlns:inkscape="http://www.inkscape.org/namespaces/inkscape"
   width="210mm"
   height="297mm"
   viewBox="0 0 210 297"
   version="1.1"
   id="svg8"
   inkscape:version="0.92.1 r15371"
   sodipodi:docname="sabacc_template.svg">
  <defs
     id="defs2" />
  <sodipodi:namedview
     id="base"
     pagecolor="#ffffff"
     bordercolor="#666666"
     borderopacity="1.0"
     inkscape:pageopacity="0.0"
     inkscape:pageshadow="2"
     inkscape:zoom="5.6"
     inkscape:cx="102.37805"
     inkscape:cy="1036.4556"
     inkscape:document-units="mm"
     inkscape:current-layer="layer1"
     showgrid="false"
     inkscape:window-width="1920"
     inkscape:window-height="1001"
     inkscape:window-x="-9"
     inkscape:window-y="-9"
     inkscape:window-maximized="1" />
  <metadata
     id="metadata5">
    <rdf:RDF>
      <cc:Work
         rdf:about="">
        <dc:format>image/svg+xml</dc:format>
        <dc:type
           rdf:resource="http://purl.org/dc/dcmitype/StillImage" />
        <dc:title></dc:title>
      </cc:Work>
    </rdf:RDF>
  </metadata>
  <g
     inkscape:label="Layer 1"
     inkscape:groupmode="layer"
     id="layer1">
    <path
       style="fill:#000000;stroke-width:1"
       d="m 18.731717,28.34571 c -1.88823,-0.0178 -2.0153,-0.0273 -2.13411,-0.15855 -0.13177,-0.14561 -1.46526,-5.41285 -1.46526,-5.78774 0,-0.10841 0.30418,-1.43022 0.67594,-2.93736 0.5472,-2.218355 0.70515,-2.764064 0.82934,-2.865257 0.13824,-0.112637 0.35795,-0.125 2.22162,-0.125 1.18742,0 2.12288,0.02926 2.19657,0.0687 0.0706,0.03778 0.16427,0.15832 0.20813,0.267857 0.13517,0.337479 1.3684,5.37714 1.3684,5.59201 0,0.25508 -1.24992,5.31474 -1.38739,5.61614 -0.0619,0.13579 -0.18092,0.24774 -0.30365,0.28571 -0.111,0.0343 -1.10531,0.0539 -2.20959,0.0435 z m -0.0994,-1.62391 v -1.32143 h 0.25 0.25001 v 1.32143 1.32143 h 0.85549 c 0.80982,0 0.86086,-0.009 0.95588,-0.16071 0.0914,-0.14634 1.26369,-4.82725 1.26114,-5.03572 -8.1e-4,-0.0664 -0.22072,-0.0893 -0.85823,-0.0893 h -0.85714 v 1.4215 1.42151 l -0.42822,0.37097 c -0.29393,0.25463 -0.43943,0.34085 -0.46395,0.27492 -0.0197,-0.0528 -0.0439,-0.88354 -0.0539,-1.84604 l -0.0182,-1.75 h -0.64285 -0.64286 l -0.0191,1.80356 c -0.0145,1.37341 -0.0401,1.8029 -0.10714,1.80074 -0.0484,-0.002 -0.24877,-0.15059 -0.4452,-0.33119 l -0.35714,-0.32835 -0.022,-1.41881 -0.022,-1.41881 h -0.84108 c -0.46259,0 -0.85835,0.0173 -0.87947,0.0384 -0.0572,0.0572 1.19747,5.01626 1.3006,5.14052 0.0695,0.0838 0.27128,0.10679 0.93702,0.10679 h 0.8484 z m 0.88522,-4.6487 c 0.0238,-0.0621 0.0434,-0.88178 0.0434,-1.82143 0,-1.13813 0.0249,-1.70844 0.0745,-1.70844 0.041,0 0.23316,0.14842 0.4271,0.32982 l 0.3526,0.32982 0.0193,1.40232 0.0193,1.40233 0.875,0.0201 c 0.67372,0.0154 0.87519,-10e-4 0.8758,-0.0714 0.002,-0.21359 -1.17004,-4.891759 -1.26256,-5.040153 -0.0977,-0.15664 -0.13401,-0.162175 -0.93778,-0.142857 l -0.83617,0.0201 -0.0195,1.30357 -0.0195,1.30357 h -0.24678 -0.24678 l -0.0195,-1.30357 -0.0195,-1.30357 -0.82873,-0.02003 c -0.67309,-0.01627 -0.84572,4.32e-4 -0.91917,0.08893 -0.10433,0.125716 -1.36025,5.08484 -1.30241,5.14269 0.0211,0.0211 0.41877,0.0384 0.88365,0.0384 h 0.84524 v -1.42303 -1.42304 l 0.37377,-0.32696 c 0.20557,-0.17984 0.4145,-0.32697 0.46429,-0.32697 0.0706,0 0.0905,0.38955 0.0905,1.77381 0,0.97559 0.0214,1.79523 0.0476,1.82142 0.0262,0.0262 0.31203,0.0476 0.63521,0.0476 0.46992,0 0.59628,-0.0226 0.63095,-0.11298 z"
       id="path4511"
       inkscape:connector-curvature="0" />
  </g>
</svg>
