<?xml version="1.0" encoding="UTF-8" standalone="no"?>
<!-- Created with Inkscape (http://www.inkscape.org/) -->

<svg
   xmlns:dc="http://purl.org/dc/elements/1.1/"
   xmlns:cc="http://creativecommons.org/ns#"
   xmlns:rdf="http://www.w3.org/1999/02/22-rdf-syntax-ns#"
   xmlns:svg="http://www.w3.org/2000/svg"
   xmlns="http://www.w3.org/2000/svg"
   xmlns:sodipodi="http://sodipodi.sourceforge.net/DTD/sodipodi-0.dtd"
   xmlns:inkscape="http://www.inkscape.org/namespaces/inkscape"
   width="210mm"
   height="297mm"
   viewBox="0 0 210 297"
   version="1.1"
   id="svg9712"
   inkscape:version="0.92.1 r15371"
   sodipodi:docname="ties.svg">
  <defs
     id="defs9706" />
  <sodipodi:namedview
     id="base"
     pagecolor="#ffffff"
     bordercolor="#666666"
     borderopacity="1.0"
     inkscape:pageopacity="0.0"
     inkscape:pageshadow="2"
     inkscape:zoom="0.35"
     inkscape:cx="-70"
     inkscape:cy="560"
     inkscape:document-units="mm"
     inkscape:current-layer="layer1"
     showgrid="false"
     inkscape:window-width="1920"
     inkscape:window-height="1001"
     inkscape:window-x="-9"
     inkscape:window-y="-9"
     inkscape:window-maximized="1" />
  <metadata
     id="metadata9709">
    <rdf:RDF>
      <cc:Work
         rdf:about="">
        <dc:format>image/svg+xml</dc:format>
        <dc:type
           rdf:resource="http://purl.org/dc/dcmitype/StillImage" />
        <dc:title></dc:title>
      </cc:Work>
    </rdf:RDF>
  </metadata>
  <g
     inkscape:label="Layer 1"
     inkscape:groupmode="layer"
     id="layer1">
    <path
       style="display:inline;opacity:1;vector-effect:none;fill:none;fill-opacity:1;stroke:#ff1104;stroke-width:0.11977537;stroke-linecap:butt;stroke-linejoin:miter;stroke-miterlimit:4;stroke-dasharray:none;stroke-dashoffset:0;stroke-opacity:1"
       d="m 24.422326,154.51855 10.643932,6.95115 1.810154,-0.65169 0.578984,-2.89627 z"
       id="path9201"
       inkscape:connector-curvature="0" />
    <path
       style="display:inline;opacity:1;vector-effect:none;fill:none;fill-opacity:1;stroke:#ff1104;stroke-width:0.11977537;stroke-linecap:butt;stroke-linejoin:miter;stroke-miterlimit:4;stroke-dasharray:none;stroke-dashoffset:0;stroke-opacity:1"
       d="m 39.26592,158.57339 -0.362251,3.18596 1.665376,1.81017 11.078324,1.66536 z"
       id="path9203"
       inkscape:connector-curvature="0" />
    <path
       style="display:inline;opacity:1;vector-effect:none;fill:none;fill-opacity:1;stroke:#ff1104;stroke-width:0.11977537;stroke-linecap:butt;stroke-linejoin:miter;stroke-miterlimit:4;stroke-dasharray:none;stroke-dashoffset:0;stroke-opacity:1"
       d="m 41.365688,165.01765 2.099833,-0.28961 11.440393,2.38947 -1.448147,3.69276 -2.389447,-0.65164 z"
       id="path9205"
       inkscape:connector-curvature="0" />
    <path
       style="display:inline;opacity:1;vector-effect:none;fill:none;fill-opacity:1;stroke:#ff1104;stroke-width:0.11977537;stroke-linecap:butt;stroke-linejoin:miter;stroke-miterlimit:4;stroke-dasharray:none;stroke-dashoffset:0;stroke-opacity:1"
       d="m 48.461644,169.86898 -7.892416,-4.12722 h -2.099834 l -0.506533,1.23091 z"
       id="path9207"
       inkscape:connector-curvature="0" />
    <path
       style="display:inline;opacity:1;vector-effect:none;fill:none;fill-opacity:1;stroke:#ff1104;stroke-width:0.11977537;stroke-linecap:butt;stroke-linejoin:miter;stroke-miterlimit:4;stroke-dasharray:none;stroke-dashoffset:0;stroke-opacity:1"
       d="m 34.124958,162.48342 1.461334,2.26583 -0.57465,0.90328 -11.892436,-5.41374 z"
       id="path9209"
       inkscape:connector-curvature="0"
       sodipodi:nodetypes="ccccc" />
    <path
       style="display:inline;opacity:1;vector-effect:none;fill:none;fill-opacity:1;stroke:#ff1104;stroke-width:0.11977537;stroke-linecap:butt;stroke-linejoin:miter;stroke-miterlimit:4;stroke-dasharray:none;stroke-dashoffset:0;stroke-opacity:1"
       d="m 21.670846,154.01171 -0.434458,4.92371 11.657591,2.53428 -1.230918,-1.23091 z"
       id="path9211"
       inkscape:connector-curvature="0" />
    <path
       style="display:inline;opacity:1;vector-effect:none;fill:none;fill-opacity:1;stroke:#ff1104;stroke-width:0.11977537;stroke-linecap:butt;stroke-linejoin:miter;stroke-miterlimit:4;stroke-dasharray:none;stroke-dashoffset:0;stroke-opacity:1"
       d="m 20.72955,152.34635 18.174302,4.7789 17.30543,9.34058 -2.389512,5.28574 -16.191297,-3.94531"
       id="path9215"
       inkscape:connector-curvature="0" />
    <path
       style="display:inline;opacity:1;vector-effect:none;fill:none;fill-opacity:1;stroke:#ff1104;stroke-width:0.11977537;stroke-linecap:butt;stroke-linejoin:miter;stroke-miterlimit:4;stroke-dasharray:none;stroke-dashoffset:0;stroke-opacity:1"
       d="m 34.13406,166.24464 -13.422609,-6.62134 -0.543072,-1.12229 0.57688,-6.14434"
       id="path9217"
       inkscape:connector-curvature="0" />
    <path
       style="display:inline;opacity:1;vector-effect:none;fill:none;fill-opacity:1;stroke:#ff1104;stroke-width:0.11977537;stroke-linecap:butt;stroke-linejoin:miter;stroke-miterlimit:4;stroke-dasharray:none;stroke-dashoffset:0;stroke-opacity:1"
       d="m 29.415975,183.9173 -0.02482,-1.33125 -0.153559,-0.28177 0.255728,-1.76636 -0.435329,-0.40937 0.153558,-0.92161 -0.255727,-0.23038 0.153558,-1.40802 -0.383939,-0.81918 -0.178948,-0.76801 0.128169,-1.07517 0.153558,-1.28003 0.128168,-0.89596 0.562883,-1.024 0.537498,-0.66562 0.716768,-0.61441 0.614281,-0.38411 0.793612,-0.46077 0.614285,-1.3312 0.4861,-0.0771 1.638374,-2.25277 h 0.35855 l 1.766369,-3.3792 0.204991,-0.0771 h 0.204947 l 0.281771,0.0261 0.33255,0.10234 0.230337,0.12804 0.358549,0.17899 0.102169,0.10235 -0.844762,3.81439 -0.230337,1.024 0.486099,0.53763 0.30716,0.46076 0.07678,0.53763 -0.153559,0.99839 0.255728,0.48667 -0.04956,0.33272 0.486718,0.66563 0.383939,0.58875 0.230338,0.53763 0.02482,0.51198 0.04956,0.28133 0.33255,0.0767 0.204947,0.0767 0.07678,0.71679 -0.563505,0.12804 0.02482,0.48642 v 0.43506 l -0.04956,0.43507 -0.04956,0.15373 0.358549,0.0767 -0.268748,0.90881 -0.550502,-0.0131 -0.409329,0.61428 -0.230338,0.38411 -0.102168,0.17899 0.294138,0.3201 -0.30716,0.61428 -0.448328,-0.11498 -0.230338,0.38412 -0.63998,0.53749 -0.512103,0.25564 -0.512112,0.23039 -0.383939,0.10234 -0.38394,0.58893 -0.972817,0.56284 -1.356805,2.25281 -0.435328,-0.0261 -0.33255,0.58889"
       id="path9255"
       inkscape:connector-curvature="0"
       sodipodi:nodetypes="cccccccccccccccccccccccccccccccccccccccccccccccccccccccccccccccccccccc" />
    <path
       style="display:inline;opacity:1;vector-effect:none;fill:none;fill-opacity:1;stroke:#ff1104;stroke-width:0.11977537;stroke-linecap:butt;stroke-linejoin:miter;stroke-miterlimit:4;stroke-dasharray:none;stroke-dashoffset:0;stroke-opacity:1"
       d="m 15.656156,182.10364 11.366409,4.7104 1.254388,0.20512 0.972756,-2.17599 z"
       id="path9259"
       inkscape:connector-curvature="0" />
    <path
       style="display:inline;opacity:1;vector-effect:none;fill:none;fill-opacity:1;stroke:#ff1104;stroke-width:0.11977537;stroke-linecap:butt;stroke-linejoin:miter;stroke-miterlimit:4;stroke-dasharray:none;stroke-dashoffset:0;stroke-opacity:1"
       d="m 11.636975,181.64284 0.358419,3.32798 1.791998,0.5635 9.702375,1.40802 -1.40802,-1.12638 z"
       id="path9261"
       inkscape:connector-curvature="0" />
    <path
       style="display:inline;opacity:1;vector-effect:none;fill:none;fill-opacity:1;stroke:#ff1104;stroke-width:0.11977537;stroke-linecap:butt;stroke-linejoin:miter;stroke-miterlimit:4;stroke-dasharray:none;stroke-dashoffset:0;stroke-opacity:1"
       d="m 15.169765,186.60927 10.086366,1.58714 1.356809,0.64006 0.153558,0.69119 0.742402,0.66554 -0.204948,0.89604 z"
       id="path9265"
       inkscape:connector-curvature="0" />
    <path
       style="display:inline;opacity:1;vector-effect:none;fill:none;fill-opacity:1;stroke:#ff1104;stroke-width:0.11977537;stroke-linecap:butt;stroke-linejoin:miter;stroke-miterlimit:4;stroke-dasharray:none;stroke-dashoffset:0;stroke-opacity:1"
       d="m 29.9409,191.62678 0.486104,-1.30559 1.075239,0.10234 0.30716,-0.25564 1.407959,0.28177 8.959977,3.89122 z"
       id="path9267"
       inkscape:connector-curvature="0" />
    <path
       style="display:inline;opacity:1;vector-effect:none;fill:none;fill-opacity:1;stroke:#ff1104;stroke-width:0.11977537;stroke-linecap:butt;stroke-linejoin:miter;stroke-miterlimit:4;stroke-dasharray:none;stroke-dashoffset:0;stroke-opacity:1"
       d="m 31.732911,185.43167 -0.614285,1.4848 0.178948,0.5375 0.358549,0.35842 0.230338,0.48672 1.63844,0.4861 0.358549,-0.0766 10.342363,1.84317 z"
       id="path9269"
       inkscape:connector-curvature="0" />
    <path
       style="display:inline;opacity:1;vector-effect:none;fill:none;fill-opacity:1;stroke:#ff1104;stroke-width:0.11977537;stroke-linecap:butt;stroke-linejoin:miter;stroke-miterlimit:4;stroke-dasharray:none;stroke-dashoffset:0;stroke-opacity:1"
       d="m 30.8113,184.20285 17.919959,7.29594 -3.327964,4.65923 -16.870349,-3.71201 -17.100775,-6.65601 -0.307203,-0.40981 -0.486413,-5.29915 20.172741,4.1216"
       id="path9257"
       inkscape:connector-curvature="0"
       sodipodi:nodetypes="cccccccc" />
    <path
       style="display:inline;opacity:1;vector-effect:none;fill:none;fill-opacity:1;stroke:#ff1104;stroke-width:0.11977537;stroke-linecap:butt;stroke-linejoin:miter;stroke-miterlimit:4;stroke-dasharray:none;stroke-dashoffset:0;stroke-opacity:1"
       d="m 47.306521,191.94187 -2.109802,2.5986 -1.810276,-0.50157 -8.909263,-4.09176 1.794049,-0.1803 z"
       id="path9261-1"
       inkscape:connector-curvature="0" />
    <path
       style="display:inline;opacity:1;vector-effect:none;fill:none;fill-opacity:1;stroke:#ff1104;stroke-width:0.11977537;stroke-linecap:butt;stroke-linejoin:miter;stroke-miterlimit:4;stroke-dasharray:none;stroke-dashoffset:0;stroke-opacity:1"
       d="m 33.998013,172.74839 -0.787419,0.67882 -0.04956,1.5797 0.850767,0.96847 1.260581,-0.10452 0.684749,-0.93729 0.01873,-1.47026 -0.769338,-0.73312 z"
       id="path9397"
       inkscape:connector-curvature="0"
       sodipodi:nodetypes="ccccccccc" />
    <path
       style="display:inline;opacity:1;vector-effect:none;fill:none;fill-opacity:1;stroke:#ff1104;stroke-width:0.11977537;stroke-linecap:butt;stroke-linejoin:miter;stroke-miterlimit:4;stroke-dasharray:none;stroke-dashoffset:0;stroke-opacity:1"
       d="m 33.742578,171.36053 -0.30716,0.11541 -0.345528,0.14067 -0.204948,0.11497 -0.30716,0.19206 -0.255727,0.23691 -0.249543,0.23691 -0.147374,0.27524 -0.121375,0.28787 -0.09598,0.26261 -0.11519,0.4159 -0.04956,0.45441 -0.0061,0.44155 0.07678,0.37758 0.121374,0.38412 0.255728,0.52482 0.191969,0.33272 0.313344,0.37759 0.403102,0.30702 0.473718,0.26871 0.601895,0.16636 0.569699,0.0497 0.377755,-0.0261 0.563506,-0.0767 0.550501,-0.21732 0.544309,-0.40937 0.300933,-0.39674 0.332549,-0.64642 0.21736,-0.63361 0.03092,-0.62081 -0.03092,-0.4544 -0.07678,-0.46081 -0.230338,-0.6016 -0.2316,-0.47361 -0.266876,-0.3201 -0.409939,-0.2944 -0.486104,-0.19205 -0.601277,-0.17943 -0.575891,-0.0514 -0.396917,0.0261 z"
       id="path9416"
       inkscape:connector-curvature="0"
       sodipodi:nodetypes="ccccccccccccccccccccccccccccccccccccccccc" />
    <path
       style="display:inline;opacity:1;vector-effect:none;fill:none;fill-opacity:1;stroke:#ff1104;stroke-width:0.11977537;stroke-linecap:butt;stroke-linejoin:miter;stroke-miterlimit:4;stroke-dasharray:none;stroke-dashoffset:0;stroke-opacity:1"
       d="m 31.816197,172.93492 1.401639,0.48641"
       id="path9418"
       inkscape:connector-curvature="0" />
    <path
       style="display:inline;opacity:1;vector-effect:none;fill:none;fill-opacity:1;stroke:#ff1104;stroke-width:0.11977537;stroke-linecap:butt;stroke-linejoin:miter;stroke-miterlimit:4;stroke-dasharray:none;stroke-dashoffset:0;stroke-opacity:1"
       d="m 33.704188,171.36693 0.281771,1.36321"
       id="path9420"
       inkscape:connector-curvature="0" />
    <path
       style="display:inline;opacity:1;vector-effect:none;fill:none;fill-opacity:1;stroke:#ff1104;stroke-width:0.11977537;stroke-linecap:butt;stroke-linejoin:miter;stroke-miterlimit:4;stroke-dasharray:none;stroke-dashoffset:0;stroke-opacity:1"
       d="m 35.208188,172.73014 0.345528,-1.28643"
       id="path9422"
       inkscape:connector-curvature="0" />
    <path
       style="display:inline;opacity:1;vector-effect:none;fill:none;fill-opacity:1;stroke:#ff1104;stroke-width:0.11977537;stroke-linecap:butt;stroke-linejoin:miter;stroke-miterlimit:4;stroke-dasharray:none;stroke-dashoffset:0;stroke-opacity:1"
       d="m 37.198602,173.00534 -1.228815,0.44164"
       id="path9424"
       inkscape:connector-curvature="0"
       sodipodi:nodetypes="cc" />
    <path
       style="display:inline;opacity:1;vector-effect:none;fill:none;fill-opacity:1;stroke:#ff1104;stroke-width:0.11977537;stroke-linecap:butt;stroke-linejoin:miter;stroke-miterlimit:4;stroke-dasharray:none;stroke-dashoffset:0;stroke-opacity:1"
       d="m 37.166583,175.56531 -1.23519,-0.63997"
       id="path9426"
       inkscape:connector-curvature="0" />
    <path
       style="display:inline;opacity:1;vector-effect:none;fill:none;fill-opacity:1;stroke:#ff1104;stroke-width:0.11977537;stroke-linecap:butt;stroke-linejoin:miter;stroke-miterlimit:4;stroke-dasharray:none;stroke-dashoffset:0;stroke-opacity:1"
       d="m 35.732991,177.12049 c -0.02482,-0.0174 -0.473718,-1.25438 -0.473718,-1.25438"
       id="path9428"
       inkscape:connector-curvature="0" />
    <path
       style="display:inline;opacity:1;vector-effect:none;fill:none;fill-opacity:1;stroke:#ff1104;stroke-width:0.11977537;stroke-linecap:butt;stroke-linejoin:miter;stroke-miterlimit:4;stroke-dasharray:none;stroke-dashoffset:0;stroke-opacity:1"
       d="m 33.697808,177.19091 0.345528,-1.24157"
       id="path9430"
       inkscape:connector-curvature="0"
       sodipodi:nodetypes="cc" />
    <path
       style="display:inline;opacity:1;vector-effect:none;fill:none;fill-opacity:1;stroke:#ff1104;stroke-width:0.11977537;stroke-linecap:butt;stroke-linejoin:miter;stroke-miterlimit:4;stroke-dasharray:none;stroke-dashoffset:0;stroke-opacity:1"
       d="M 31.873849,175.50774 33.1644,174.9847"
       id="path9432"
       inkscape:connector-curvature="0"
       sodipodi:nodetypes="cc" />
    <path
       style="display:inline;opacity:1;vector-effect:none;fill:none;fill-opacity:1;stroke:#ff1104;stroke-width:0.08423682;stroke-linecap:butt;stroke-linejoin:miter;stroke-miterlimit:4;stroke-dasharray:none;stroke-dashoffset:0;stroke-opacity:1"
       d="m 54.708796,102.55998 9.688199,0.40719 9.420849,-8.606055 -15.226135,-6.925627 -22.304493,-1.069377 -4.382516,11.53599 16.004901,4.620419 1.619007,-0.009"
       id="path9527"
       inkscape:connector-curvature="0"
       sodipodi:nodetypes="cccccccc" />
    <path
       style="display:inline;opacity:1;vector-effect:none;fill:none;fill-opacity:1;stroke:#ff1104;stroke-width:0.08423682;stroke-linecap:butt;stroke-linejoin:miter;stroke-miterlimit:4;stroke-dasharray:none;stroke-dashoffset:0;stroke-opacity:1"
       d="m 55.826745,103.44522 -0.460975,-0.51315 -0.644257,-0.37192 -0.140058,-0.90388 -0.521963,-0.48376 -0.241878,-1.451314 -0.331026,-0.420261 0.05095,-2.571643 -0.127297,-0.420261 -0.496513,-0.216445 -0.509233,-0.06358 -0.534697,0.02613 -0.48377,0.178121 -0.432846,0.394565 0.145937,2.472785 -0.495115,0.648159 -0.252069,0.684124 -0.126034,0.51316 -0.01786,0.55809 -0.459107,0.51316 -0.09002,0.47709 -0.54913,0.29701 -0.243054,0.37802 -0.369089,-0.0632 -0.621144,0.81918 -0.504121,0.8552 -0.378103,0.94526 -0.153036,0.83716 0.126035,1.25129 0.27907,0.90924 0.297056,0.81017 0.378104,0.3153 -0.03615,0.18901 1.071245,0.8552 0.261041,0.40502 0.16205,0.86421 0.441104,0.0632 0.306071,1.93546"
       id="path9531"
       inkscape:connector-curvature="0"
       sodipodi:nodetypes="cccccccccccccccccccccccccccccccccccccc" />
    <path
       style="display:inline;opacity:1;vector-effect:none;fill:none;fill-opacity:1;stroke:#ff1104;stroke-width:0.08423682;stroke-linecap:butt;stroke-linejoin:miter;stroke-miterlimit:4;stroke-dasharray:none;stroke-dashoffset:0;stroke-opacity:1"
       d="m 57.167048,88.534741 -4.36669,5.576134 -2.851725,0.140232 -12.53991,-6.32729 z"
       id="path9550"
       inkscape:connector-curvature="0" />
    <path
       style="display:inline;opacity:1;vector-effect:none;fill:none;fill-opacity:1;stroke:#ff1104;stroke-width:0.08423682;stroke-linecap:butt;stroke-linejoin:miter;stroke-miterlimit:4;stroke-dasharray:none;stroke-dashoffset:0;stroke-opacity:1"
       d="m 48.053891,94.932668 -0.684161,1.18827 -13.915207,1.12499 3.304034,-8.396101 z"
       id="path9552"
       inkscape:connector-curvature="0"
       sodipodi:nodetypes="ccccc" />
    <path
       style="display:inline;opacity:1;vector-effect:none;fill:none;fill-opacity:1;stroke:#ff1104;stroke-width:0.08423682;stroke-linecap:butt;stroke-linejoin:miter;stroke-miterlimit:4;stroke-dasharray:none;stroke-dashoffset:0;stroke-opacity:1"
       d="m 49.91986,98.091936 -2.372184,3.520084 -12.697854,-3.549916 13.88176,-0.798363 z"
       id="path9574"
       inkscape:connector-curvature="0"
       sodipodi:nodetypes="ccccc" />
    <path
       style="display:inline;opacity:1;vector-effect:none;fill:none;fill-opacity:1;stroke:#ff1104;stroke-width:0.08423682;stroke-linecap:butt;stroke-linejoin:miter;stroke-miterlimit:4;stroke-dasharray:none;stroke-dashoffset:0;stroke-opacity:1"
       d="m 56.851474,96.669628 -0.720169,0.9362 8.263914,4.393002 6.823592,-6.103396 z"
       id="path9580"
       inkscape:connector-curvature="0"
       sodipodi:nodetypes="ccccc" />
    <path
       style="display:inline;opacity:1;vector-effect:none;fill:none;fill-opacity:1;stroke:#ff1104;stroke-width:0.08423682;stroke-linecap:butt;stroke-linejoin:miter;stroke-miterlimit:4;stroke-dasharray:none;stroke-dashoffset:0;stroke-opacity:1"
       d="m 54.762986,94.41908 1.800421,1.026262 14.493362,-0.702204 -12.440886,-5.905374 z"
       id="path9582"
       inkscape:connector-curvature="0" />
    <path
       style="display:inline;opacity:1;vector-effect:none;fill:none;fill-opacity:1;stroke:#ff1104;stroke-width:0.08423682;stroke-linecap:butt;stroke-linejoin:miter;stroke-miterlimit:4;stroke-dasharray:none;stroke-dashoffset:0;stroke-opacity:1"
       d="m 58.507857,114.09766 -26.646189,0.17987 -3.294766,5.67129 0.198023,1.06228 17.82414,2.05248 18.850385,0.0174 10.94654,-4.91517 z"
       id="path9584"
       inkscape:connector-curvature="0"
       sodipodi:nodetypes="cccccccc" />
    <path
       style="display:inline;opacity:1;vector-effect:none;fill:none;fill-opacity:1;stroke:#ff1104;stroke-width:0.08423682;stroke-linecap:butt;stroke-linejoin:miter;stroke-miterlimit:4;stroke-dasharray:none;stroke-dashoffset:0;stroke-opacity:1"
       d="m 52.566475,118.45465 -3.276762,0.32402 -14.187295,-3.13271 21.965105,-0.0348 z"
       id="path9586"
       inkscape:connector-curvature="0" />
    <path
       style="display:inline;opacity:1;vector-effect:none;fill:none;fill-opacity:1;stroke:#ff1104;stroke-width:0.08423682;stroke-linecap:butt;stroke-linejoin:miter;stroke-miterlimit:4;stroke-dasharray:none;stroke-dashoffset:0;stroke-opacity:1"
       d="m 46.409045,119.35488 -0.396089,0.54011 -14.475363,0.8282 -1.872436,-0.21601 2.340544,-4.24899 z"
       id="path9588"
       inkscape:connector-curvature="0" />
    <path
       style="display:inline;opacity:1;vector-effect:none;fill:none;fill-opacity:1;stroke:#ff1104;stroke-width:0.08423682;stroke-linecap:butt;stroke-linejoin:miter;stroke-miterlimit:4;stroke-dasharray:none;stroke-dashoffset:0;stroke-opacity:1"
       d="m 48.542308,120.54563 0.442488,0.40589 -3.365848,1.51934 -11.164985,-1.19672 z"
       id="path9590"
       inkscape:connector-curvature="0"
       sodipodi:nodetypes="ccccc" />
    <path
       style="display:inline;opacity:1;vector-effect:none;fill:none;fill-opacity:1;stroke:#ff1104;stroke-width:0.08423682;stroke-linecap:butt;stroke-linejoin:miter;stroke-miterlimit:4;stroke-dasharray:none;stroke-dashoffset:0;stroke-opacity:1"
       d="m 48.865325,122.52199 11.94156,0.15286 -6.543669,-1.55318 -3.437345,0.12717 z"
       id="path9592"
       inkscape:connector-curvature="0" />
    <path
       style="display:inline;opacity:1;vector-effect:none;fill:none;fill-opacity:1;stroke:#ff1104;stroke-width:0.08423682;stroke-linecap:butt;stroke-linejoin:miter;stroke-miterlimit:4;stroke-dasharray:none;stroke-dashoffset:0;stroke-opacity:1"
       d="m 65.211773,122.4456 7.111508,-3.15287 -15.361124,0.75948 -0.330982,0.17812 z"
       id="path9596"
       inkscape:connector-curvature="0"
       sodipodi:nodetypes="ccccc" />
    <path
       style="display:inline;opacity:1;vector-effect:none;fill:none;fill-opacity:1;stroke:#ff1104;stroke-width:0.08423682;stroke-linecap:butt;stroke-linejoin:miter;stroke-miterlimit:4;stroke-dasharray:none;stroke-dashoffset:0;stroke-opacity:1"
       d="m 52.202704,107.99187 -0.539662,-0.36713 -0.456137,-0.48123 -0.448128,-0.75368 -0.183346,-0.97775"
       id="path9602"
       inkscape:connector-curvature="0"
       sodipodi:nodetypes="ccccc" />
    <path
       style="display:inline;opacity:1;vector-effect:none;fill:none;fill-opacity:1;stroke:#ff1104;stroke-width:0.08423682;stroke-linecap:butt;stroke-linejoin:miter;stroke-miterlimit:4;stroke-dasharray:none;stroke-dashoffset:0;stroke-opacity:1"
       d="m 50.573179,105.42219 0.201638,-0.86421 0.259255,-0.56171 0.53292,-0.48973 0.705767,-0.3889 0.95062,-0.15852 0.748973,-0.0305 0.60494,0.24475 0.576135,0.47531 0.518523,0.64816 0.316872,0.64816 0.187222,0.72015 0.01437,0.64815 -0.100819,0.60496 -0.360074,0.60491 -0.331287,0.44653 -0.619346,0.36016 -0.662552,0.23038 -0.820992,-0.0435 -0.576131,-0.23038 -0.532925,-0.30268"
       id="path9604"
       inkscape:connector-curvature="0" />
    <path
       style="display:inline;opacity:1;vector-effect:none;fill:none;fill-opacity:1;stroke:#ff1104;stroke-width:0.08423682;stroke-linecap:butt;stroke-linejoin:miter;stroke-miterlimit:4;stroke-dasharray:none;stroke-dashoffset:0;stroke-opacity:1"
       d="m 51.027936,98.731559 -2.127876,3.133621 1.005746,0.0131"
       id="path9529"
       inkscape:connector-curvature="0"
       sodipodi:nodetypes="ccc" />
    <path
       style="display:inline;opacity:1;vector-effect:none;fill:none;fill-opacity:1;stroke:#ff1104;stroke-width:0.08423682;stroke-linecap:butt;stroke-linejoin:miter;stroke-miterlimit:4;stroke-dasharray:none;stroke-dashoffset:0;stroke-opacity:1"
       d="m 53.821137,114.17945 0.315086,-1.64742 0.306072,-0.18901 0.180037,-1.07125 0.63015,-0.23386 0.811982,-0.78678 0.595942,-0.76156 0.2917,-0.76157 0.26496,-1.17629 0.0074,-1.1121 -0.159481,-0.75638 -0.229902,-0.74841 -0.458127,-0.77115 -0.609242,-0.78133"
       id="path9533"
       inkscape:connector-curvature="0"
       sodipodi:nodetypes="cccccccccccccc" />
    <path
       style="display:inline;opacity:1;vector-effect:none;fill:none;fill-opacity:1;stroke:#ff1104;stroke-width:0.08423682;stroke-linecap:butt;stroke-linejoin:miter;stroke-miterlimit:4;stroke-dasharray:none;stroke-dashoffset:0;stroke-opacity:1"
       d="m 53.47905,98.335774 0.70217,-0.288303 7.96018,4.184919 -7.528079,-0.26565"
       id="path9576"
       inkscape:connector-curvature="0"
       sodipodi:nodetypes="cccc" />
    <path
       style="display:inline;opacity:1;vector-effect:none;fill:none;fill-opacity:1;stroke:#ff1104;stroke-width:0.08423682;stroke-linecap:butt;stroke-linejoin:miter;stroke-miterlimit:4;stroke-dasharray:none;stroke-dashoffset:0;stroke-opacity:1"
       d="m 54.959955,118.93728 1.026898,0.61414 17.611114,-0.84331 -14.233123,-2.69894 -4.532191,2.90263 z"
       id="path9594"
       inkscape:connector-curvature="0"
       sodipodi:nodetypes="cccccc" />
    <path
       style="display:inline;opacity:1;vector-effect:none;fill:none;fill-opacity:1;stroke:#ff1104;stroke-width:0.08423682;stroke-linecap:butt;stroke-linejoin:miter;stroke-miterlimit:4;stroke-dasharray:none;stroke-dashoffset:0;stroke-opacity:1"
       d="m 52.70331,106.24781 -0.619346,-1.10905 0.432106,-0.893 1.065845,-0.46089 1.22429,0.5473 0.44646,0.80659 -0.475307,1.18109 -1.022644,0.33141 z"
       id="path9652"
       inkscape:connector-curvature="0"
       sodipodi:nodetypes="ccccccccc" />
    <path
       style="display:inline;opacity:1;vector-effect:none;fill:none;fill-opacity:1;stroke:#ff1104;stroke-width:0.08423682;stroke-linecap:butt;stroke-linejoin:miter;stroke-miterlimit:4;stroke-dasharray:none;stroke-dashoffset:0;stroke-opacity:1"
       d="m 53.774782,106.63589 -0.07203,1.91565"
       id="path9654"
       inkscape:connector-curvature="0" />
    <path
       style="display:inline;opacity:1;vector-effect:none;fill:none;fill-opacity:1;stroke:#ff1104;stroke-width:0.08423682;stroke-linecap:butt;stroke-linejoin:miter;stroke-miterlimit:4;stroke-dasharray:none;stroke-dashoffset:0;stroke-opacity:1"
       d="m 52.680129,106.24703 -1.224281,1.12347"
       id="path9656"
       inkscape:connector-curvature="0" />
    <path
       style="display:inline;opacity:1;vector-effect:none;fill:none;fill-opacity:1;stroke:#ff1104;stroke-width:0.08423682;stroke-linecap:butt;stroke-linejoin:miter;stroke-miterlimit:4;stroke-dasharray:none;stroke-dashoffset:0;stroke-opacity:1"
       d="m 52.075189,105.12356 -1.483544,0.1729"
       id="path9658"
       inkscape:connector-curvature="0" />
    <path
       style="display:inline;opacity:1;vector-effect:none;fill:none;fill-opacity:1;stroke:#ff1104;stroke-width:0.08423682;stroke-linecap:butt;stroke-linejoin:miter;stroke-miterlimit:4;stroke-dasharray:none;stroke-dashoffset:0;stroke-opacity:1"
       d="m 52.521693,104.25935 -0.806586,-0.86421"
       id="path9660"
       inkscape:connector-curvature="0" />
    <path
       style="display:inline;opacity:1;vector-effect:none;fill:none;fill-opacity:1;stroke:#ff1104;stroke-width:0.08423682;stroke-linecap:butt;stroke-linejoin:miter;stroke-miterlimit:4;stroke-dasharray:none;stroke-dashoffset:0;stroke-opacity:1"
       d="m 53.558734,103.75526 0.02874,-0.83543"
       id="path9662"
       inkscape:connector-curvature="0" />
    <path
       style="display:inline;opacity:1;vector-effect:none;fill:none;fill-opacity:1;stroke:#ff1104;stroke-width:0.08423682;stroke-linecap:butt;stroke-linejoin:miter;stroke-miterlimit:4;stroke-dasharray:none;stroke-dashoffset:0;stroke-opacity:1"
       d="m 54.768617,104.34576 0.547327,-0.5041"
       id="path9664"
       inkscape:connector-curvature="0" />
    <path
       style="display:inline;opacity:1;vector-effect:none;fill:none;fill-opacity:1;stroke:#ff1104;stroke-width:0.08423682;stroke-linecap:butt;stroke-linejoin:miter;stroke-miterlimit:4;stroke-dasharray:none;stroke-dashoffset:0;stroke-opacity:1"
       d="m 55.215121,105.12356 0.835394,0.10061"
       id="path9666"
       inkscape:connector-curvature="0" />
    <path
       style="display:inline;opacity:1;vector-effect:none;fill:none;fill-opacity:1;stroke:#ff1104;stroke-width:0.08423682;stroke-linecap:butt;stroke-linejoin:miter;stroke-miterlimit:4;stroke-dasharray:none;stroke-dashoffset:0;stroke-opacity:1"
       d="m 54.768617,106.2614 1.109056,1.06585"
       id="path9668"
       inkscape:connector-curvature="0" />
    <path
       style="display:inline;opacity:1;vector-effect:none;fill:none;fill-opacity:1;stroke:#ff1104;stroke-width:0.07625028;stroke-linecap:butt;stroke-linejoin:miter;stroke-miterlimit:4;stroke-dasharray:none;stroke-dashoffset:0;stroke-opacity:1"
       d="m 99.247268,189.61156 -13.515422,-6.69936 0.01579,-0.35677 3.743282,-8.34086 18.291152,4.05187 12.80974,7.61035 0.12811,0.47184 -7.92244,5.78838 -9.79169,-1.99239"
       id="path8973"
       inkscape:connector-curvature="0"
       sodipodi:nodetypes="ccccccccc" />
    <path
       style="display:inline;opacity:1;vector-effect:none;fill:none;fill-opacity:1;stroke:#ff1104;stroke-width:0.07625028;stroke-linecap:butt;stroke-linejoin:miter;stroke-miterlimit:4;stroke-dasharray:none;stroke-dashoffset:0;stroke-opacity:1"
       d="m 99.399078,189.33731 -13.105518,-6.43576 0.0034,-0.34888 3.473289,-7.3972 17.439171,4.11089 12.46729,7.09543 -7.08424,5.24331 -9.67449,-1.98368"
       id="path8975"
       inkscape:connector-curvature="0" />
    <path
       style="display:inline;opacity:1;vector-effect:none;fill:none;fill-opacity:1;stroke:#ff1104;stroke-width:0.07625028;stroke-linecap:butt;stroke-linejoin:miter;stroke-miterlimit:4;stroke-dasharray:none;stroke-dashoffset:0;stroke-opacity:1"
       d="m 86.462165,182.95032 12.308538,0.93755 0.675325,-0.54811 -9.781794,-8.10146"
       id="path8977"
       inkscape:connector-curvature="0" />
    <path
       style="display:inline;opacity:1;vector-effect:none;fill:none;fill-opacity:1;stroke:#ff1104;stroke-width:0.07625028;stroke-linecap:butt;stroke-linejoin:miter;stroke-miterlimit:4;stroke-dasharray:none;stroke-dashoffset:0;stroke-opacity:1"
       d="m 91.041849,175.48575 9.531231,7.20352 2.66681,0.34336 3.43785,-3.93247"
       id="path8979"
       inkscape:connector-curvature="0" />
    <path
       style="display:inline;opacity:1;vector-effect:none;fill:none;fill-opacity:1;stroke:#ff1104;stroke-width:0.07625028;stroke-linecap:butt;stroke-linejoin:miter;stroke-miterlimit:4;stroke-dasharray:none;stroke-dashoffset:0;stroke-opacity:1"
       d="m 87.391994,183.46902 11.440403,1.47952 1.745333,1.15406 -2.395707,2.59581"
       id="path8981"
       inkscape:connector-curvature="0"
       sodipodi:nodetypes="cccc" />
    <path
       style="display:inline;opacity:1;vector-effect:none;fill:none;fill-opacity:1;stroke:#ff1104;stroke-width:0.07625028;stroke-linecap:butt;stroke-linejoin:miter;stroke-miterlimit:4;stroke-dasharray:none;stroke-dashoffset:0;stroke-opacity:1"
       d="m 100.67664,187.08896 -1.923245,1.91027"
       id="path8983"
       inkscape:connector-curvature="0" />
    <path
       style="display:inline;opacity:1;vector-effect:none;fill:none;fill-opacity:1;stroke:#ff1104;stroke-width:0.07625028;stroke-linecap:butt;stroke-linejoin:miter;stroke-miterlimit:4;stroke-dasharray:none;stroke-dashoffset:0;stroke-opacity:1"
       d="m 107.56913,179.54704 -3.44348,3.88674 1.38242,1.03646 13.79989,1.72823"
       id="path8985"
       inkscape:connector-curvature="0" />
    <path
       style="display:inline;opacity:1;vector-effect:none;fill:none;fill-opacity:1;stroke:#ff1104;stroke-width:0.07625028;stroke-linecap:butt;stroke-linejoin:miter;stroke-miterlimit:4;stroke-dasharray:none;stroke-dashoffset:0;stroke-opacity:1"
       d="m 119.03287,186.78995 -14.24668,-1.02271 -0.15177,0.27437 8.03531,5.43793"
       id="path8987"
       inkscape:connector-curvature="0" />
    <path
       style="display:inline;opacity:1;vector-effect:none;fill:none;fill-opacity:1;stroke:#ff1104;stroke-width:0.07625028;stroke-linecap:butt;stroke-linejoin:miter;stroke-miterlimit:4;stroke-dasharray:none;stroke-dashoffset:0;stroke-opacity:1"
       d="m 111.61206,191.37823 -7.68174,-4.64572 -0.92321,-0.14113"
       id="path8989"
       inkscape:connector-curvature="0" />
    <path
       style="display:inline;opacity:1;vector-effect:none;fill:none;fill-opacity:1;stroke:#ff1104;stroke-width:0.07625028;stroke-linecap:butt;stroke-linejoin:miter;stroke-miterlimit:4;stroke-dasharray:none;stroke-dashoffset:0;stroke-opacity:1"
       d="m 102.34448,202.35078 -19.930089,-4.46201 -2.937358,5.45444 14.034283,5.6519 14.574274,3.6473 9.79997,-3.61115 z"
       id="path8991"
       inkscape:connector-curvature="0"
       sodipodi:nodetypes="ccccccc" />
    <path
       style="display:inline;opacity:1;vector-effect:none;fill:none;fill-opacity:1;stroke:#ff1104;stroke-width:0.07625028;stroke-linecap:butt;stroke-linejoin:miter;stroke-miterlimit:4;stroke-dasharray:none;stroke-dashoffset:0;stroke-opacity:1"
       d="m 80.228757,203.27493 2.219062,-4.47546 19.536421,4.66287 13.69262,5.55028 -7.67638,3.08715 -13.555079,-3.31457 z"
       id="path8993"
       inkscape:connector-curvature="0"
       sodipodi:nodetypes="ccccccc" />
    <path
       style="display:inline;opacity:1;vector-effect:none;fill:none;fill-opacity:1;stroke:#ff1104;stroke-width:0.07625028;stroke-linecap:butt;stroke-linejoin:miter;stroke-miterlimit:4;stroke-dasharray:none;stroke-dashoffset:0;stroke-opacity:1"
       d="m 100.84541,203.17378 -2.959872,2.16631 -2.975358,-0.49083 -10.960963,-5.70544"
       id="path8995"
       inkscape:connector-curvature="0" />
    <path
       style="display:inline;opacity:1;vector-effect:none;fill:none;fill-opacity:1;stroke:#ff1104;stroke-width:0.07625028;stroke-linecap:butt;stroke-linejoin:miter;stroke-miterlimit:4;stroke-dasharray:none;stroke-dashoffset:0;stroke-opacity:1"
       d="m 102.45821,203.66686 -3.257187,2.34107 1.772027,0.65092 14.2101,2.16514"
       id="path8997"
       inkscape:connector-curvature="0" />
    <path
       style="display:inline;opacity:1;vector-effect:none;fill:none;fill-opacity:1;stroke:#ff1104;stroke-width:0.07625028;stroke-linecap:butt;stroke-linejoin:miter;stroke-miterlimit:4;stroke-dasharray:none;stroke-dashoffset:0;stroke-opacity:1"
       d="m 114.56794,209.42567 -14.14801,-1.66377 -0.1297,0.27871 8.00839,3.93479"
       id="path8999"
       inkscape:connector-curvature="0" />
    <path
       style="display:inline;opacity:1;vector-effect:none;fill:none;fill-opacity:1;stroke:#ff1104;stroke-width:0.07625028;stroke-linecap:butt;stroke-linejoin:miter;stroke-miterlimit:4;stroke-dasharray:none;stroke-dashoffset:0;stroke-opacity:1"
       d="m 106.46345,211.74301 -7.729881,-3.54235 -2.471517,-0.59716 -1.859029,1.16624"
       id="path9001"
       inkscape:connector-curvature="0" />
    <path
       style="display:inline;opacity:1;vector-effect:none;fill:none;fill-opacity:1;stroke:#ff1104;stroke-width:0.07625028;stroke-linecap:butt;stroke-linejoin:miter;stroke-miterlimit:4;stroke-dasharray:none;stroke-dashoffset:0;stroke-opacity:1"
       d="m 82.31769,204.09434 11.028608,2.50719 1.640791,0.51938 -1.618558,1.25147"
       id="path9003"
       inkscape:connector-curvature="0"
       sodipodi:nodetypes="cccc" />
    <path
       style="display:inline;opacity:1;vector-effect:none;fill:none;fill-opacity:1;stroke:#ff1104;stroke-width:0.07625028;stroke-linecap:butt;stroke-linejoin:miter;stroke-miterlimit:4;stroke-dasharray:none;stroke-dashoffset:0;stroke-opacity:1"
       d="m 82.411551,198.90733 10.97878,6.32751 -0.234557,0.26136 -12.830001,-2.42894"
       id="path9005"
       inkscape:connector-curvature="0" />
    <path
       style="display:inline;opacity:1;vector-effect:none;fill:none;fill-opacity:1;stroke:#ff1104;stroke-width:0.07625028;stroke-linecap:butt;stroke-linejoin:miter;stroke-miterlimit:4;stroke-dasharray:none;stroke-dashoffset:0;stroke-opacity:1"
       d="m 97.445832,201.24951 -0.144674,-0.63886 -0.106834,-2.18729 -0.354791,-0.74427 -0.770213,-1.71105 -0.430714,-1.62167 0.280284,-1.18417 0.631805,-0.99787 0.890327,-0.76714 1.707295,-1.06532 1.203293,-2.21816 0.48547,-0.32286 0.10368,-2.34473 0.3883,-0.31104 0.60662,-0.14073 0.74364,0.1703 0.42394,0.50585 -0.56065,2.36847 0.35479,0.74431 0.35715,2.35333 -0.004,0.4932 0.73075,0.86199 0.4803,0.6959 0.12891,0.50956 0.0394,0.84902 -0.15098,1.16821 -0.24323,0.68703 -0.44976,0.87677 -0.63554,0.70272 -0.74057,0.65006 -0.75264,0.55296 -0.56652,0.46418 -0.67311,1.72555 -0.703911,0.41566"
       id="path9007"
       inkscape:connector-curvature="0"
       sodipodi:nodetypes="cccccccccccccccccccccccccccccccccc" />
    <path
       style="display:inline;opacity:1;vector-effect:none;fill:none;fill-opacity:1;stroke:#ff1104;stroke-width:0.07625028;stroke-linecap:butt;stroke-linejoin:miter;stroke-miterlimit:4;stroke-dasharray:none;stroke-dashoffset:0;stroke-opacity:1"
       d="m 100.83713,187.79078 0.34966,-0.0927 0.22628,-0.0276 0.4265,-0.003 0.33744,0.0729 0.26058,0.1155 0.13521,0.16399"
       id="path9009"
       inkscape:connector-curvature="0" />
    <path
       style="display:inline;opacity:1;vector-effect:none;fill:none;fill-opacity:1;stroke:#ff1104;stroke-width:0.07625028;stroke-linecap:butt;stroke-linejoin:miter;stroke-miterlimit:4;stroke-dasharray:none;stroke-dashoffset:0;stroke-opacity:1"
       d="m 100.38027,191.25949 1.11066,-0.0315 -0.0197,0.76899 -0.34454,0.0315 -0.0915,0.0118 z"
       id="path9011"
       inkscape:connector-curvature="0" />
    <path
       style="display:inline;opacity:1;vector-effect:none;fill:none;fill-opacity:1;stroke:#ff1104;stroke-width:0.07625028;stroke-linecap:butt;stroke-linejoin:miter;stroke-miterlimit:4;stroke-dasharray:none;stroke-dashoffset:0;stroke-opacity:1"
       d="m 102.23378,191.59895 -0.18488,0.56869 0.33389,0.35361 0.4591,-0.23101 z"
       id="path9013"
       inkscape:connector-curvature="0" />
    <path
       style="display:inline;opacity:1;vector-effect:none;fill:none;fill-opacity:1;stroke:#ff1104;stroke-width:0.07625028;stroke-linecap:butt;stroke-linejoin:miter;stroke-miterlimit:4;stroke-dasharray:none;stroke-dashoffset:0;stroke-opacity:1"
       d="m 100.99623,192.57663 -0.33508,0.38988 0.0579,0.65471 0.63969,0.57102 0.63338,-0.0426 0.3879,-0.43135 -0.0836,-0.58189 -0.69393,-0.63398 z"
       id="path9017"
       inkscape:connector-curvature="0" />
    <path
       style="display:inline;opacity:1;vector-effect:none;fill:none;fill-opacity:1;stroke:#ff1104;stroke-width:0.07625028;stroke-linecap:butt;stroke-linejoin:miter;stroke-miterlimit:4;stroke-dasharray:none;stroke-dashoffset:0;stroke-opacity:1"
       d="m 100.45762,192.35303 -0.18489,0.28975 -1.224897,-0.0457 0.624197,-0.86687 z"
       id="path9019"
       inkscape:connector-curvature="0" />
    <path
       style="display:inline;opacity:1;vector-effect:none;fill:none;fill-opacity:1;stroke:#ff1104;stroke-width:0.07625028;stroke-linecap:butt;stroke-linejoin:miter;stroke-miterlimit:4;stroke-dasharray:none;stroke-dashoffset:0;stroke-opacity:1"
       d="m 98.8402,193.07586 0.230223,1.29527 1.174357,-0.73765 -0.0997,-0.33587 z"
       id="path9021"
       inkscape:connector-curvature="0" />
    <path
       style="display:inline;opacity:1;vector-effect:none;fill:none;fill-opacity:1;stroke:#ff1104;stroke-width:0.07625028;stroke-linecap:butt;stroke-linejoin:miter;stroke-miterlimit:4;stroke-dasharray:none;stroke-dashoffset:0;stroke-opacity:1"
       d="m 100.62985,194.21281 0.29408,0.21879 -0.3201,1.166 -1.022744,-0.57007 z"
       id="path9023"
       inkscape:connector-curvature="0" />
    <path
       style="display:inline;opacity:1;vector-effect:none;fill:none;fill-opacity:1;stroke:#ff1104;stroke-width:0.07625028;stroke-linecap:butt;stroke-linejoin:miter;stroke-miterlimit:4;stroke-dasharray:none;stroke-dashoffset:0;stroke-opacity:1"
       d="m 101.56551,194.73562 0.38869,-0.0481 0.28778,0.82363 -1.06796,0.19041 z"
       id="path9025"
       inkscape:connector-curvature="0" />
    <path
       style="display:inline;opacity:1;vector-effect:none;fill:none;fill-opacity:1;stroke:#ff1104;stroke-width:0.07625028;stroke-linecap:butt;stroke-linejoin:miter;stroke-miterlimit:4;stroke-dasharray:none;stroke-dashoffset:0;stroke-opacity:1"
       d="m 102.60828,194.06077 -0.20459,0.31576 0.4835,0.90389 0.44972,-0.77561 z"
       id="path9027"
       inkscape:connector-curvature="0"
       sodipodi:nodetypes="ccccc" />
    <path
       style="display:inline;opacity:1;vector-effect:none;fill:none;fill-opacity:1;stroke:#ff1104;stroke-width:0.07625028;stroke-linecap:butt;stroke-linejoin:miter;stroke-miterlimit:4;stroke-dasharray:none;stroke-dashoffset:0;stroke-opacity:1"
       d="m 102.74953,193.04464 -0.0157,0.53597 0.65577,0.2322 -0.13324,-0.98215 z"
       id="path9029"
       inkscape:connector-curvature="0"
       sodipodi:nodetypes="ccccc" />
  </g>
</svg>
