<?xml version="1.0" encoding="UTF-8" standalone="no"?>
<!-- Created with Inkscape (http://www.inkscape.org/) -->

<svg
   xmlns:dc="http://purl.org/dc/elements/1.1/"
   xmlns:cc="http://creativecommons.org/ns#"
   xmlns:rdf="http://www.w3.org/1999/02/22-rdf-syntax-ns#"
   xmlns:svg="http://www.w3.org/2000/svg"
   xmlns="http://www.w3.org/2000/svg"
   xmlns:sodipodi="http://sodipodi.sourceforge.net/DTD/sodipodi-0.dtd"
   xmlns:inkscape="http://www.inkscape.org/namespaces/inkscape"
   width="210mm"
   height="297mm"
   viewBox="0 0 210 297"
   version="1.1"
   id="svg4705"
   inkscape:version="0.92.1 r15371"
   sodipodi:docname="case_parts.svg">
  <defs
     id="defs4699" />
  <sodipodi:namedview
     id="base"
     pagecolor="#ffffff"
     bordercolor="#666666"
     borderopacity="1.0"
     inkscape:pageopacity="0.0"
     inkscape:pageshadow="2"
     inkscape:zoom="0.63521058"
     inkscape:cx="-160.43077"
     inkscape:cy="716.01848"
     inkscape:document-units="mm"
     inkscape:current-layer="layer1"
     showgrid="false"
     inkscape:window-width="1920"
     inkscape:window-height="1001"
     inkscape:window-x="-9"
     inkscape:window-y="-9"
     inkscape:window-maximized="1"
     inkscape:measure-start="217.389,535.401"
     inkscape:measure-end="221.321,535.942"
     showguides="true" />
  <metadata
     id="metadata4702">
    <rdf:RDF>
      <cc:Work
         rdf:about="">
        <dc:format>image/svg+xml</dc:format>
        <dc:type
           rdf:resource="http://purl.org/dc/dcmitype/StillImage" />
        <dc:title></dc:title>
      </cc:Work>
    </rdf:RDF>
  </metadata>
  <g
     inkscape:label="Layer 1"
     inkscape:groupmode="layer"
     id="layer1">
    <path
       inkscape:connector-curvature="0"
       style="fill:none;fill-opacity:1;stroke:#ff0000;stroke-width:0.019;stroke-miterlimit:4;stroke-dasharray:none;stroke-opacity:1"
       d="m 52.526603,140.36074 c -2.710976,0 -4.912042,2.16286 -4.983676,4.85655 h -0.0067 v 0.13384 9.99061 h 9.981303 v -9.99061 -0.13384 h -0.0067 c -0.07167,-2.69369 -2.273253,-4.85655 -4.984227,-4.85655 z"
       id="rect5268-68" />
    <path
       style="fill:none;fill-opacity:1;stroke:#ff0000;stroke-width:0.019;stroke-miterlimit:4;stroke-dasharray:none;stroke-opacity:1"
       d="m 65.621014,140.32173 v 5.2e-4 c -2.706407,0.005 -4.902316,2.16564 -4.973857,4.85603 h -0.0067 v 0.13384 9.99061 h 4.980575 6.98097 v -14.981 z"
       id="rect5268-7-0-8"
       inkscape:connector-curvature="0" />
    <path
       inkscape:connector-curvature="0"
       style="fill:none;fill-opacity:1;stroke:#ff0000;stroke-width:0.019;stroke-miterlimit:4;stroke-dasharray:none;stroke-opacity:1"
       d="m 39.663051,140.39123 v 5.3e-4 c 2.706407,0.005 4.902316,2.16564 4.973857,4.85603 h 0.0067 v 0.13384 9.99061 h -4.980576 -6.98097 v -14.981 z"
       id="rect5268-7-0-6-5" />
    <path
       inkscape:connector-curvature="0"
       style="fill:none;fill-opacity:1;stroke:#ff0000;stroke-width:0.019;stroke-miterlimit:4;stroke-dasharray:none;stroke-opacity:1"
       d="m 52.367166,157.4742 c -2.710976,0 -4.912042,2.16286 -4.983676,4.85655 h -0.0067 v 0.13384 9.99061 h 9.981303 v -9.99061 -0.13384 h -0.0067 c -0.07167,-2.69369 -2.273253,-4.85655 -4.984227,-4.85655 z"
       id="rect5268-68-2" />
    <path
       style="fill:none;fill-opacity:1;stroke:#ff0000;stroke-width:0.019;stroke-miterlimit:4;stroke-dasharray:none;stroke-opacity:1"
       d="m 65.461576,157.43519 v 5.2e-4 c -2.706407,0.005 -4.902313,2.16564 -4.973857,4.85603 h -0.0067 v 0.13384 9.99061 h 4.980575 6.980971 v -14.981 z"
       id="rect5268-7-0-8-1"
       inkscape:connector-curvature="0" />
    <path
       inkscape:connector-curvature="0"
       style="fill:none;fill-opacity:1;stroke:#ff0000;stroke-width:0.019;stroke-miterlimit:4;stroke-dasharray:none;stroke-opacity:1"
       d="m 39.503614,157.50469 v 5.3e-4 c 2.706408,0.005 4.902316,2.16564 4.973857,4.85603 h 0.0067 v 0.13384 9.99061 h -4.980576 -6.98097 v -14.981 z"
       id="rect5268-7-0-6-5-4" />
    <path
       inkscape:connector-curvature="0"
       style="fill:none;fill-opacity:1;stroke:#ff0000;stroke-width:0.019;stroke-miterlimit:4;stroke-dasharray:none;stroke-opacity:1"
       d="m 52.342753,174.74225 c -2.710976,0 -4.912042,2.16286 -4.983676,4.85655 h -0.0067 v 0.13384 9.99061 h 9.981303 v -9.99061 -0.13384 h -0.0067 c -0.07167,-2.69369 -2.273253,-4.85655 -4.984227,-4.85655 z"
       id="rect5268-68-8" />
    <path
       style="fill:none;fill-opacity:1;stroke:#ff0000;stroke-width:0.019;stroke-miterlimit:4;stroke-dasharray:none;stroke-opacity:1"
       d="m 65.437164,174.70324 v 5.2e-4 c -2.706407,0.005 -4.902316,2.16564 -4.973857,4.85603 h -0.0067 v 0.13384 9.99061 h 4.980575 6.98097 v -14.981 z"
       id="rect5268-7-0-8-5"
       inkscape:connector-curvature="0" />
    <path
       inkscape:connector-curvature="0"
       style="fill:none;fill-opacity:1;stroke:#ff0000;stroke-width:0.019;stroke-miterlimit:4;stroke-dasharray:none;stroke-opacity:1"
       d="m 39.479201,174.77274 v 5.3e-4 c 2.706407,0.005 4.902316,2.16564 4.973857,4.85603 h 0.0067 v 0.13384 9.99061 h -4.980576 -6.98097 v -14.981 z"
       id="rect5268-7-0-6-5-9" />
    <path
       inkscape:connector-curvature="0"
       style="fill:none;fill-opacity:1;stroke:#ff0000;stroke-width:0.019;stroke-miterlimit:4;stroke-dasharray:none;stroke-opacity:1"
       d="m 52.183316,191.85571 c -2.710976,0 -4.912042,2.16286 -4.983676,4.85655 h -0.0067 v 0.13384 9.99061 h 9.981303 v -9.99061 -0.13384 h -0.0067 c -0.07167,-2.69369 -2.273255,-4.85655 -4.984229,-4.85655 z"
       id="rect5268-68-2-2" />
    <path
       style="fill:none;fill-opacity:1;stroke:#ff0000;stroke-width:0.019;stroke-miterlimit:4;stroke-dasharray:none;stroke-opacity:1"
       d="m 65.277726,191.8167 v 5.3e-4 c -2.706407,0.005 -4.902313,2.16564 -4.973857,4.85603 h -0.0067 v 0.13384 9.99061 h 4.980575 6.980971 V 191.8167 Z"
       id="rect5268-7-0-8-1-3"
       inkscape:connector-curvature="0" />
    <path
       inkscape:connector-curvature="0"
       style="fill:none;fill-opacity:1;stroke:#ff0000;stroke-width:0.019;stroke-miterlimit:4;stroke-dasharray:none;stroke-opacity:1"
       d="m 39.319764,191.8862 v 5.3e-4 c 2.706408,0.005 4.902316,2.16564 4.973857,4.85603 h 0.0067 v 0.13384 9.99061 h -4.980576 -6.98097 v -14.981 z"
       id="rect5268-7-0-6-5-4-5" />
    <path
       inkscape:connector-curvature="0"
       style="fill:none;fill-opacity:1;stroke:#ff0000;stroke-width:0.019;stroke-miterlimit:4;stroke-dasharray:none;stroke-opacity:1"
       d="m 52.134489,209.20999 c -2.710976,0 -4.912042,2.16286 -4.983676,4.85655 h -0.0067 v 0.13384 9.99061 h 9.981303 v -9.99061 -0.13384 h -0.0067 c -0.07167,-2.69369 -2.273253,-4.85655 -4.984227,-4.85655 z"
       id="rect5268-68-4" />
    <path
       style="fill:none;fill-opacity:1;stroke:#ff0000;stroke-width:0.019;stroke-miterlimit:4;stroke-dasharray:none;stroke-opacity:1"
       d="m 65.2289,209.17098 v 5.2e-4 c -2.706407,0.005 -4.902316,2.16564 -4.973857,4.85603 h -0.0067 v 0.13384 9.99061 h 4.980575 6.98097 v -14.981 z"
       id="rect5268-7-0-8-9"
       inkscape:connector-curvature="0" />
    <path
       inkscape:connector-curvature="0"
       style="fill:none;fill-opacity:1;stroke:#ff0000;stroke-width:0.019;stroke-miterlimit:4;stroke-dasharray:none;stroke-opacity:1"
       d="m 39.270937,209.24048 v 5.2e-4 c 2.706407,0.005 4.902316,2.16565 4.973857,4.85604 h 0.0067 v 0.13384 9.99061 h -4.980576 -6.98097 v -14.981 z"
       id="rect5268-7-0-6-5-48" />
    <path
       inkscape:connector-curvature="0"
       style="fill:none;fill-opacity:1;stroke:#ff0000;stroke-width:0.019;stroke-miterlimit:4;stroke-dasharray:none;stroke-opacity:1"
       d="m 51.975052,226.32345 c -2.710976,0 -4.912042,2.16286 -4.983676,4.85655 h -0.0067 v 0.13384 9.99061 h 9.981303 V 231.31384 231.18 h -0.0067 c -0.07167,-2.69369 -2.273255,-4.85655 -4.984229,-4.85655 z"
       id="rect5268-68-2-1" />
    <path
       style="fill:none;fill-opacity:1;stroke:#ff0000;stroke-width:0.019;stroke-miterlimit:4;stroke-dasharray:none;stroke-opacity:1"
       d="m 65.069462,226.28444 v 5.2e-4 c -2.706407,0.005 -4.902313,2.16564 -4.973857,4.85604 h -0.0067 v 0.13384 9.9906 h 4.980575 6.980971 v -14.981 z"
       id="rect5268-7-0-8-1-8"
       inkscape:connector-curvature="0" />
    <path
       inkscape:connector-curvature="0"
       style="fill:none;fill-opacity:1;stroke:#ff0000;stroke-width:0.019;stroke-miterlimit:4;stroke-dasharray:none;stroke-opacity:1"
       d="m 39.1115,226.35394 v 5.2e-4 c 2.706408,0.005 4.902316,2.16564 4.973857,4.85604 h 0.0067 v 0.13384 9.99061 h -4.980576 -6.98097 v -14.981 z"
       id="rect5268-7-0-6-5-4-52" />
    <path
       inkscape:connector-curvature="0"
       style="fill:none;fill-opacity:1;stroke:#ff0000;stroke-width:0.019;stroke-miterlimit:4;stroke-dasharray:none;stroke-opacity:1"
       d="M -19.984304,-25.267354 H 225.0157 v 47 H -19.984304 Z"
       id="rect6660" />
    <rect
       style="fill:none;fill-opacity:1;stroke:#ff0000;stroke-width:0.019;stroke-miterlimit:4;stroke-dasharray:none;stroke-opacity:1"
       id="rect6044"
       width="245"
       height="12"
       x="-68.40097"
       y="56.6017" />
    <rect
       style="fill:none;fill-opacity:1;stroke:#ff0000;stroke-width:0.019;stroke-miterlimit:4;stroke-dasharray:none;stroke-opacity:1"
       id="rect6044-0"
       width="245"
       height="12"
       x="-68.40097"
       y="71.601692" />
    <rect
       style="fill:none;fill-opacity:1;stroke:#ff0000;stroke-width:0.019;stroke-miterlimit:4;stroke-dasharray:none;stroke-opacity:1"
       id="rect6044-3"
       width="245"
       height="12"
       x="-68.40097"
       y="86.601707" />
    <rect
       style="fill:none;fill-opacity:1;stroke:#ff0000;stroke-width:0.019;stroke-miterlimit:4;stroke-dasharray:none;stroke-opacity:1"
       id="rect6044-0-3"
       width="245"
       height="12"
       x="-68.40097"
       y="101.60171" />
  </g>
</svg>
