<?xml version="1.0" encoding="UTF-8" standalone="no"?>
<!-- Created with Inkscape (http://www.inkscape.org/) -->

<svg
   xmlns:dc="http://purl.org/dc/elements/1.1/"
   xmlns:cc="http://creativecommons.org/ns#"
   xmlns:rdf="http://www.w3.org/1999/02/22-rdf-syntax-ns#"
   xmlns:svg="http://www.w3.org/2000/svg"
   xmlns="http://www.w3.org/2000/svg"
   xmlns:sodipodi="http://sodipodi.sourceforge.net/DTD/sodipodi-0.dtd"
   xmlns:inkscape="http://www.inkscape.org/namespaces/inkscape"
   version="1.1"
   id="svg23353"
   width="186.66667"
   height="240"
   viewBox="0 0 186.66667 240"
   sodipodi:docname="marker.svg"
   inkscape:version="0.92.1 r15371">
  <metadata
     id="metadata23359">
    <rdf:RDF>
      <cc:Work
         rdf:about="">
        <dc:format>image/svg+xml</dc:format>
        <dc:type
           rdf:resource="http://purl.org/dc/dcmitype/StillImage" />
        <dc:title />
      </cc:Work>
    </rdf:RDF>
  </metadata>
  <defs
     id="defs23357" />
  <sodipodi:namedview
     pagecolor="#ffffff"
     bordercolor="#666666"
     borderopacity="1"
     objecttolerance="10"
     gridtolerance="10"
     guidetolerance="10"
     inkscape:pageopacity="0"
     inkscape:pageshadow="2"
     inkscape:window-width="1600"
     inkscape:window-height="1201"
     id="namedview23355"
     showgrid="false"
     inkscape:zoom="2.3805928"
     inkscape:cx="90.27188"
     inkscape:cy="147.93153"
     inkscape:window-x="2391"
     inkscape:window-y="-9"
     inkscape:window-maximized="1"
     inkscape:current-layer="svg23353" />
  <path
     style="fill:#000000;stroke-width:3.77952766"
     d="m 107.78738,49.868066 c -2.64998,-0.01776 -5.87698,0.07578 -9.992201,0.230475 -1.909418,0.07181 -7.535471,0.28955 -12.501922,0.484381 -8.802217,0.345335 -10.600025,0.423379 -20.998072,0.910148 -8.170583,0.38242 -7.667755,-0.464519 -12.910148,21.773435 l -0.562508,2.384769 1.376958,0.002 0.490242,-2.078135 c 4.891163,-20.748054 4.484221,-20.090665 12.60155,-20.470704 10.398123,-0.486788 12.195931,-0.564858 20.998035,-0.91016 30.805496,-1.208409 28.513166,-1.407462 36.574226,3.183598 2.9249,1.665854 7.93167,4.419867 11.12696,6.119143 3.19522,1.699237 9.91147,5.391307 14.92577,8.205089 5.01426,2.813783 9.95951,5.51161 10.9883,5.99607 1.02879,0.484535 2.5813,1.785108 3.4492,2.888693 l 1.57617,2.005833 -3.98827,17.535156 c -0.53983,2.373583 -1.07765,4.667263 -1.59178,6.796873 l 1.09375,1.16995 c 0.57789,-2.38941 1.18636,-4.96697 1.80076,-7.660152 l 4.29687,-18.837884 -1.57614,-2.007836 c -0.86785,-1.103584 -2.42045,-2.40223 -3.44923,-2.886728 -1.02879,-0.484497 -5.97404,-3.182324 -10.9883,-5.996069 -5.0143,-2.813783 -11.73056,-6.50778 -14.92577,-8.207055 -3.19529,-1.699238 -8.20199,-4.451312 -11.12697,-6.117181 -5.97959,-3.405581 -8.73759,-4.460451 -16.68748,-4.513674 z m -40.251968,7.666019 -1.466797,0.07812 -4.859339,0.253909 -3.646526,15.472653 3.335962,-5.458999 5.556624,-8.775383 1.07229,-1.558582 z m 77.121108,15.199204 c -0.71388,-0.07937 -1.41404,2.274822 -3.86328,12.527358 l 3.92969,4.1328 c 0.24529,-1.369436 0.71795,-3.325342 1.5078,-6.332032 1.96278,-7.471332 2.07734,-8.373581 1.11916,-8.900371 -0.58636,-0.322394 -1.61401,-0.889096 -2.28322,-1.26172 -0.15004,-0.08353 -0.28308,-0.151937 -0.41015,-0.165921 z m 7.14452,3.710967 -1.88085,7.978507 c -1.11878,4.745802 -1.75944,6.936567 -2.40234,7.925783 l 2.30857,2.451175 c 0.36321,-0.282709 0.94122,-0.208252 2.1055,0.06652 2.10074,0.495231 2.24481,0.691502 1.8203,2.492182 -0.12926,0.548863 -0.24454,0.925645 -0.39455,1.191383 l 2.293,2.435564 0.68553,-2.906266 3.95898,-16.794898 -4.24803,-2.419918 z"
     id="path5001-6"
     inkscape:connector-curvature="0" />
  <path
     style="fill:#000000;stroke:none;stroke-width:0.07181102;stroke-miterlimit:4;stroke-dasharray:none"
     d="m 70.832293,55.002837 c -0.280441,0.01361 -0.521159,0.04751 -0.730469,0.09959 -1.425827,0.3552 -2.646803,2.110938 -11.810532,17.023416 -0.828473,1.348044 -1.425827,2.346935 -2.148435,3.535181 l 1.535169,0.02646 c 0.608239,-0.993184 1.007584,-1.661177 1.712881,-2.806639 8.551446,-13.88931 9.746382,-15.596069 11.16601,-15.949228 1.674066,-0.41658 5.325203,0.336075 15.732397,3.242192 6.5712,1.835187 16.926276,4.673197 26.679726,7.312516 11.09525,3.002419 11.57748,3.259087 17.40234,9.277304 8.70659,8.995956 30.85243,32.431861 31.67966,33.523461 0.42557,0.56221 0.71218,1.97416 0.63866,3.13867 l 0.008,0.004 c -0.20069,3.02895 -17.05587,31.04817 -19.58007,32.53319 -1.98277,1.16632 -4.24002,0.80235 -16.64451,-2.69337 -4.93292,-1.39007 -11.51667,-3.2321 -14.63085,-4.09372 -3.11466,-0.86107 -9.69973,-2.70283 -14.633258,-4.09185 l -9.501959,-3.30663 -0.787125,-0.74022 0.05858,0.75001 0.02268,1.10544 v 0.31445 c 0.0076,0.004 0.02268,0.0151 0.03024,0.0227 1.792933,1.0839 7.546016,2.86984 25.267582,7.77347 3.11409,0.86169 9.69803,2.70368 14.63084,4.09372 12.40445,3.49576 14.66208,3.86184 16.64455,2.69533 1.34015,-0.78883 3.6912,-4.32061 11.25196,-16.85155 10.07505,-16.71247 10.91025,-18.65624 9.05469,-21.10745 -0.71921,-0.95002 -19.67422,-21.042898 -31.69531,-33.59762 -4.85711,-5.072693 -5.57696,-5.619174 -9.60744,-7.283225 -2.39615,-0.990003 -6.91733,-2.481971 -10.04882,-3.314677 C 105.36962,63.732382 94.045547,60.639103 85.836111,58.346744 76.729755,55.803731 72.796892,54.909521 70.834183,55.00495 Z m 1.318375,6.074238 -8.839861,14.712869 0.144378,0.002 1.767571,0.06652 1.386747,0.06047 1.406249,0.09373 0.675779,0.06236 0.65624,0.0858 0.488277,0.07824 0.281197,0.06652 0.390614,0.105448 0.250205,0.09373 0.277417,0.128882 0.242268,0.167811 0.20296,0.179527 0.214677,0.238488 0.250205,0.33978 0.140599,0.218835 0.214677,0.371149 0.195401,0.382791 0.238111,0.519534 0.117165,0.2657 0.249827,0.634772 0.23622,0.630879 0.181795,0.490205 0.164032,0.486349 0.253984,0.746079 0.960945,3.05862 0.671887,2.343723 0.345826,1.210961 c 0.830325,-1.364674 1.6255,-2.663433 2.505865,-4.121121 12.221707,-20.261065 11.70754,-18.917594 7.660158,-20.078098 -1.449185,-0.413745 -1.604788,-0.236221 -6.214867,7.43554 -3.697852,6.153827 -4.937197,7.825247 -5.693329,7.691414 -2.038677,-0.359433 -1.494349,-2.195187 2.746092,-9.251943 l 4.224604,-7.031282 -1.685556,-0.513676 c -0.926513,-0.281952 -2.949996,-0.840038 -4.496088,-1.242179 z m 23.972637,14.695295 1.398463,5.855471 1.40039,5.855471 -1.968756,1.695307 -1.968756,1.695307 -2.667968,-1.974614 -2.667969,-1.972649 1.748032,3.007823 c 2.291187,3.93823 1.547036,5.130936 -3.023433,4.84373 l -3.537109,-0.222615 3.107414,1.42972 3.107452,1.427717 -0.574223,2.539048 -0.574224,2.539084 -5.121109,1.30662 c -1.822941,0.46455 -3.396321,0.91771 -4.359345,1.24026 l 0.170079,0.6074 0.01512,0.0506 c 1.028788,0.14967 2.628246,0.31295 4.550778,0.43945 5.590677,0.36775 5.912126,0.46817 6.375005,1.99612 0.676195,2.23215 3.941594,6.04195 6.488277,7.57224 2.546607,1.5303 7.443967,2.62454 9.732397,2.17384 1.56631,-0.30841 1.80495,-0.0726 4.75393,4.69141 1.70785,2.75898 3.20235,4.85643 3.32031,4.66016 0.11792,-0.19654 -0.39258,-2.73419 -1.13284,-5.63868 l -1.3457,-5.28125 2.11525,-1.46483 c 2.09208,-1.44918 2.14265,-1.4423 4.76561,0.55469 l 2.65236,2.01754 -1.85741,-3.01757 c -1.257,-2.0437 -1.6407,-3.38064 -1.18753,-4.13477 0.45456,-0.75647 1.78855,-1.03343 4.1582,-0.86521 l 3.48831,0.24794 -2.98828,-1.42775 c -2.90336,-1.38565 -2.98243,-1.49643 -2.77149,-3.88868 l 0.21694,-2.46289 6.11328,-1.61522 6.11327,-1.617186 -6.18943,-0.492208 -6.18947,-0.490204 -1.93946,-3.343748 c -1.56749,-2.702287 -2.64768,-3.769928 -5.63086,-5.56252 -2.98318,-1.792592 -4.43081,-2.24383 -7.55274,-2.35937 l -3.86328,-0.144378 -3.339817,-5.234381 z m 9.359395,11.609386 c 2.26023,0.130771 6.58454,1.216327 8.33008,2.277316 2.36836,1.440378 5.84092,5.680668 5.85936,7.156271 0.004,0.399761 -2.28499,0.517984 -5.08789,0.263811 l -5.0957,-0.462879 -2.82033,-4.310551 c -1.55062,-2.371275 -2.71423,-4.485694 -2.58591,-4.699238 0.12321,-0.20485 0.64698,-0.268346 1.40039,-0.224504 z m -6.529323,1.890595 c 0.57207,-0.193512 1.829863,5.112189 1.386743,5.849613 -0.22374,0.372283 -1.365048,0.534311 -2.535152,0.359433 -2.682558,-0.401008 -2.975433,0.0926 -1.357418,2.281247 0.708662,0.957883 1.291125,1.992227 1.294904,2.296896 0.0036,0.30463 -1.386708,0.877 -3.089839,1.27344 l 0.002,0.002 c -1.703055,0.39651 -3.122834,0.55517 -3.156245,0.35149 -0.182174,-1.10793 1.121234,-5.294021 2.216768,-7.11719 1.093266,-1.819389 4.177021,-4.937272 5.238274,-5.296894 z m 46.710953,10.955109 c -0.23282,0.0491 -5.34531,8.48202 -11.38866,18.72265 l -10.9844,18.62109 2.14454,0.6328 2.14257,0.63477 4.37307,-7.25586 c 2.40495,-3.99038 4.79849,-7.46989 5.32225,-7.73242 0.52249,-0.2623 1.37855,-0.0934 1.90039,0.37493 0.86094,0.77148 0.55634,1.53812 -3.27927,8.24999 -3.81835,6.68152 -4.11697,7.42979 -3.0762,7.70509 0.63368,0.16819 2.48795,0.70039 4.11916,1.18553 1.63181,0.48393 3.23554,0.8784 3.56443,0.87696 0.32655,-0.004 4.47425,-6.6136 9.2168,-14.68943 l 8.61721,-14.68751 -1.96487,-2.13868 c -1.08053,-1.17699 -2.5172,-2.69534 -3.19336,-3.37304 l -1.22849,-1.23243 -4.53321,7.1797 c -4.11039,6.51202 -4.64504,7.14014 -5.73048,6.74219 -1.94226,-0.71237 -1.48086,-2.17429 3.08984,-9.80273 l 4.33595,-7.23632 -1.52149,-1.43948 c -0.83573,-0.79328 -1.70328,-1.39336 -1.92578,-1.33787 z m -24.82031,1.8711 -0.3789,2.58788 c -0.47523,3.24699 -2.73781,6.99023 -5.35547,8.86132 l -2.01173,1.43751 -0.81445,-3.06448 c -0.44818,-1.68533 -0.59301,-3.1787 -0.3224,-3.31835 0.271,-0.13946 1.45629,-0.10998 2.63479,0.0665 1.17849,0.17613 2.25823,0.12699 2.40038,-0.10923 0.14211,-0.2366 -0.32051,-1.21402 -1.02932,-2.17187 -0.7087,-0.95788 -1.29305,-1.99025 -1.29687,-2.29492 -0.004,-0.30463 1.3844,-0.8778 3.08398,-1.27344 z m -26.738265,4.75585 c 0.972132,0.0151 2.280567,0.0866 3.691389,0.21468 l 5.130856,0.46677 2.81836,4.31055 c 1.55063,2.37124 2.71423,4.48573 2.58595,4.69924 -0.1285,0.21354 -1.82003,0.1731 -3.75976,-0.09 -1.93984,-0.26306 -4.581541,-1.11183 -5.871116,-1.88674 -2.260347,-1.35825 -6.74589,-6.78021 -6.267553,-7.57618 0.06425,-0.10658 0.699704,-0.15269 1.671874,-0.13871 z m 51.060545,15.34568 c 0.94299,1.25714 1.75688,2.88684 2.38473,4.32812 l -2.03319,0.0801 c -1.11886,0.0435 -2.48788,0.034 -2.81443,-0.20107 -0.15496,-0.11225 2.19889,-4.07732 2.46289,-4.20703 z"
     id="path4977-4-3-7-0-8-5-6"
     inkscape:connector-curvature="0" />
  <path
     style="opacity:1;vector-effect:none;fill:none;fill-opacity:1;stroke:#ff1104;stroke-width:0.07310525;stroke-linecap:butt;stroke-linejoin:miter;stroke-miterlimit:4;stroke-dasharray:none;stroke-dashoffset:0;stroke-opacity:1"
     d="m 39.842019,38.46618 -0.03024,0.05858 h 0.08769 z"
     id="path23524"
     inkscape:connector-curvature="0" />
  <path
     style="opacity:1;vector-effect:none;fill:none;fill-opacity:1;stroke:#ff1104;stroke-width:0.07310525;stroke-linecap:butt;stroke-linejoin:miter;stroke-miterlimit:4;stroke-dasharray:none;stroke-dashoffset:0;stroke-opacity:1"
     d="m 87.480848,134.05661 54.572862,15.35864"
     id="path4566-8-0"
     inkscape:connector-curvature="0" />
  <path
     style="fill:none;fill-opacity:1;stroke:#ff0000;stroke-width:0.07559055;stroke-miterlimit:4;stroke-dasharray:none;stroke-opacity:1"
     d="m 126.59185,146.85353 a 8.4661418,8.4661418 0 0 1 -10.4431,5.856 8.4661418,8.4661418 0 0 1 -5.856,-10.4431 8.4661418,8.4661418 0 0 1 10.4431,-5.856 8.4661418,8.4661418 0 0 1 5.856,10.4431 z"
     id="path4568-6-1"
     inkscape:connector-curvature="0" />
  <path
     style="opacity:1;vector-effect:none;fill:none;fill-opacity:1;stroke:#ff1104;stroke-width:0.07310525;stroke-linecap:butt;stroke-linejoin:miter;stroke-miterlimit:4;stroke-dasharray:none;stroke-dashoffset:0;stroke-opacity:1"
     d="m 87.480848,134.05661 -15.35864,54.5729"
     id="path4566-8-6-1"
     inkscape:connector-curvature="0" />
  <path
     style="fill:none;fill-opacity:1;stroke:#ff0000;stroke-width:0.07559055;stroke-miterlimit:4;stroke-dasharray:none;stroke-opacity:1"
     d="m 78.000734,174.10108 a 8.4661418,8.4661418 0 0 0 10.4431,-5.856 8.4661418,8.4661418 0 0 0 -5.855962,-10.44309 8.4661418,8.4661418 0 0 0 -10.443138,5.856 8.4661418,8.4661418 0 0 0 5.856,10.44309 z"
     id="path4568-6-3-9"
     inkscape:connector-curvature="0" />
  <path
     id="path23365-4-2"
     style="fill:#000000;fill-opacity:1;stroke:none;stroke-width:0.15118119;stroke-miterlimit:4;stroke-dasharray:none;stroke-opacity:1"
     d="m 50.081477,106.88003 c -0.493757,0 -0.96737,3.11902 -1.453152,3.15062 -11.621783,0.75658 -20.814237,10.42246 -20.814237,22.23545 0,11.80955 9.187049,21.47384 20.80407,22.23541 0.489033,0.0302 1.043565,2.97411 1.540762,2.97411 0.576,0 1.086123,-2.94746 1.651162,-2.99047 11.506923,-0.87421 20.570873,-10.48834 20.570873,-22.21905 0,-11.82523 -9.211011,-21.49859 -20.84984,-22.23745 -0.473952,-0.0302 -0.968088,-3.14862 -1.449638,-3.14862 z m 0.04838,4.69293 4.380586,19.88066 h -8.806034 z m -1.856655,0.81475 -0.149669,1.41517 c -9.326325,0.9857 -16.59292,8.87562 -16.59292,18.46322 0,9.58473 7.262362,17.47378 16.584794,18.46314 l -0.03402,1.39688 c -10.076863,-1.01118 -17.944063,-9.51685 -17.944063,-19.86002 0,-10.40893 7.967584,-18.9569 18.136479,-19.87839 z m 3.719358,0.008 c 10.135559,0.95418 18.066217,9.48616 18.066217,19.87125 0,10.28919 -7.785071,18.76017 -17.78623,19.84376 l -0.03893,-1.39793 c 9.248504,-1.05918 16.431043,-8.91379 16.431043,-18.44583 0,-9.60473 -7.29241,-17.50564 -16.642848,-18.46825 z m 1.878501,8.08404 c 4.988334,1.59564 8.60039,6.26936 8.60039,11.78721 0,5.50896 -3.6,10.17709 -8.575937,11.77999 l 2.240958,-10.96656 h 3.329348 v -1.62615 h -3.406753 z m -7.593449,0.0189 -2.334652,10.95945 h -3.213279 v 1.62596 h 3.251981 l 2.108636,10.89731 c -4.867124,-1.66507 -8.366211,-6.27952 -8.366211,-11.71078 0,-5.50061 3.589342,-10.16217 8.553525,-11.77194 z m -0.631257,12.5856 h 8.786721 l -4.25794,19.5098 z m 4.44994,-49.366416 c -1.786091,4.16e-4 -3.233764,1.448429 -3.233612,3.234558 -1.14e-4,1.786053 1.447521,3.234179 3.233612,3.234595 1.78647,1.13e-4 3.234709,-1.448088 3.234558,-3.234595 1.89e-4,-1.78647 -1.448088,-3.234747 -3.234558,-3.234558 z m 0.02268,0.931767 c 1.283528,-3.02e-4 2.324107,1.040277 2.323805,2.323805 -2.64e-4,1.283112 -1.040655,2.323049 -2.323805,2.32286 -1.282733,-3.03e-4 -2.322557,-1.04024 -2.322784,-2.32286 -3.4e-4,-1.28315 1.03971,-2.323578 2.322784,-2.323805 z m 0.1663,89.821679 c -1.786092,4.5e-4 -3.233764,1.44842 -3.233613,3.23448 -1.13e-4,1.78613 1.447521,3.23425 3.233613,3.23467 1.786431,1.1e-4 3.234708,-1.44809 3.234557,-3.23467 1.51e-4,-1.7864 -1.448126,-3.23471 -3.234557,-3.23448 z m 0.02268,0.93176 c 1.283527,-3e-4 2.324107,1.04024 2.323805,2.32385 -2.65e-4,1.28315 -1.040656,2.32304 -2.323805,2.32282 -1.282734,-3.4e-4 -2.322558,-1.04024 -2.322785,-2.32282 -3.4e-4,-1.28319 1.039673,-2.32358 2.322785,-2.32385 z m -20.489878,12.3464 c -2.020997,-1.09853 -2.87037,-3.2213 -6.263026,-15.6542 -1.349254,-4.94419 -3.161121,-11.53641 -4.026482,-14.64942 -4.924611,-17.71581 -6.288265,-23.20848 -6.282671,-25.30359 0.0076,-2.43836 1.475566,-8.14129 9.263131,-35.957819 0.666444,-2.380536 1.860208,-6.687421 2.652699,-9.570482 1.96014,-7.131969 3.025853,-9.49954 4.672858,-10.381002 0.966539,-0.517757 7.401146,-0.687496 20.913789,-0.552756 17.502161,0.173859 19.635893,0.315213 20.674772,1.354205 1.21954,1.220598 2.455181,4.737298 5.324485,15.154772 2.263446,8.217452 5.444901,19.517022 7.49949,26.635462 0.89915,3.11301 1.949254,7.75763 2.335068,10.32136 0.649587,4.3118 0.551697,5.20989 -1.29464,11.98583 -4.569675,16.77044 -12.02914,43.36656 -12.473008,44.47237 -1.145348,2.85309 -3.242419,3.13977 -22.756876,3.11184 -14.6352,-0.0227 -18.873222,-0.22412 -20.239597,-0.96654 z m 39.303195,-1.31297 c 1.036044,-0.53677 2.098771,-1.50974 2.361486,-2.16416 0.509594,-1.27132 9.191018,-32.32592 12.417449,-44.4223 2.158367,-8.09265 2.130474,-8.63705 -1.010805,-19.69387 -2.76136,-9.71955 -5.66211,-20.05761 -7.473675,-26.635276 -2.86938,-10.417836 -4.105021,-13.934838 -5.324372,-15.155171 -1.03389,-1.035024 -3.112895,-1.180536 -19.422728,-1.356549 -15.38555,-0.166299 -18.505852,-0.04309 -19.795843,0.806476 -1.580258,1.035024 -2.570267,3.658016 -5.929135,15.704731 -0.969675,3.47932 -2.187099,7.824189 -2.704705,9.655449 -3.078274,10.88836 -5.021329,18.01451 -6.354898,23.30581 l -1.510488,5.99305 2.455521,8.98945 c 1.350539,4.94422 3.163994,11.53663 4.029959,14.64945 0.865474,3.11312 2.678325,9.70518 4.027541,14.64941 3.392807,12.43298 4.242029,14.55571 6.263018,15.65446 2.572989,1.39873 35.271799,1.41449 37.97144,0.0265 z m -36.12945,-4.17532 c -0.170456,-0.2812 -0.659112,-1.85893 -1.084762,-3.50699 -0.424327,-1.64806 -0.922318,-3.51178 -1.10468,-4.14149 -0.300095,-1.03389 0.494853,-1.16319 8.188573,-1.33179 7.728718,-0.16933 8.542602,-0.3035 8.760416,-1.43876 0.132661,-0.68855 -0.16441,-1.5081 -0.658054,-1.8209 -0.494815,-0.3137 -4.709782,-0.57301 -9.368844,-0.57917 l -8.470979,-0.0113 -0.561147,-2.16401 -0.561184,-2.16419 21.619087,-0.17575 c 11.890507,-0.0945 21.75171,-0.0552 21.913738,0.11905 0.162142,0.16215 0.09487,1.21493 -0.15496,2.33983 l -0.449575,2.04526 -8.437077,0.0113 c -8.892964,0.0113 -10.382476,0.3685 -9.992693,2.40026 0.217701,1.1353 1.030753,1.26932 8.729688,1.43838 l 8.489499,0.1867 -0.423231,1.68832 c -0.232819,0.92863 -0.793852,2.94232 -1.246186,4.47481 l -0.822312,2.7863 -17.027112,0.17802 c -9.364951,0.0945 -17.167332,-0.0552 -17.338885,-0.33298 z M 28.35611,99.097573 C 28.178095,98.918046 28.34477,97.749 28.729906,96.497749 l 0.698041,-2.275464 9.049738,-0.184063 c 8.54434,-0.173858 9.049852,-0.259276 9.049852,-1.516347 0,-1.252459 -0.506456,-1.342941 -8.490142,-1.51816 -4.669568,-0.105827 -8.485908,-0.402293 -8.48107,-0.665386 0.0038,-0.263433 0.547464,-2.277506 1.205102,-4.474999 l 1.19588,-3.995263 H 50.157068 67.35698 l 0.822274,2.786457 c 0.451654,1.532372 1.016013,3.555024 1.251553,4.494388 l 0.428485,1.708611 h -8.203087 c -8.232831,0 -10.086841,0.479093 -9.344957,2.411678 0.274771,0.717015 2.346217,0.918123 9.525619,0.918123 8.95045,0 9.183231,0.04309 9.575017,1.498356 1.08994,4.066999 2.5056,3.814299 -21.15617,3.774199 -11.866696,-0.02646 -21.721966,-0.18293 -21.900435,-0.359811 z"
     inkscape:connector-curvature="0" />
</svg>
