<?xml version="1.0" encoding="utf-8"?>
<!-- Generator: Adobe Illustrator 15.1.0, SVG Export Plug-In . SVG Version: 6.00 Build 0)  -->
<!DOCTYPE svg PUBLIC "-//W3C//DTD SVG 1.1//EN" "http://www.w3.org/Graphics/SVG/1.1/DTD/svg11.dtd">
<svg version="1.1" id="Layer_1" xmlns="http://www.w3.org/2000/svg" xmlns:xlink="http://www.w3.org/1999/xlink" x="0px" y="0px"
	 width="886.604px" height="931px" viewBox="0 0 886.604 931" enable-background="new 0 0 886.604 931" xml:space="preserve">
<rect x="183.761" y="774.919" fill="none" stroke="#EC008C" stroke-width="0.25" stroke-miterlimit="10" width="56.692" height="113.386"/>
<rect x="284.071" y="661.533" fill="none" stroke="#EC008C" stroke-width="0.25" stroke-miterlimit="10" width="56.692" height="226.771"/>
<rect x="373.941" y="548.147" fill="none" stroke="#EC008C" stroke-width="0.25" stroke-miterlimit="10" width="56.692" height="340.157"/>
<rect x="467.683" y="434.762" fill="none" stroke="#EC008C" stroke-width="0.25" stroke-miterlimit="10" width="56.692" height="453.543"/>
<rect x="566.345" y="321.375" fill="none" stroke="#EC008C" stroke-width="0.25" stroke-miterlimit="10" width="56.692" height="566.929"/>
<polygon fill="none" stroke="#EC008C" stroke-width="0.25" stroke-miterlimit="10" points="679.28,37.911 679.28,321.22 
	679.28,321.454 679.28,604.762 679.28,888.305 725.075,888.305 725.075,604.762 725.075,321.454 725.075,321.22 725.075,37.911 "/>
<polygon fill="none" stroke="#EC008C" stroke-width="0.25" stroke-miterlimit="10" points="764,14.12 764,108.595 764,108.673 
	764,203.148 764,297.702 809.795,297.702 809.795,203.148 809.795,108.673 809.795,108.595 809.795,14.12 "/>
<polygon fill="none" stroke="#EC008C" stroke-width="0.25" stroke-miterlimit="10" points="764,321.493 764,510.326 764,510.481 
	764,699.315 764,888.305 809.795,888.305 809.795,699.315 809.795,510.481 809.795,510.326 809.795,321.493 "/>
<line fill="none" stroke="#EC008C" stroke-width="0.25" stroke-miterlimit="10" x1="679.28" y1="604.723" x2="725.075" y2="604.723"/>
<line fill="none" stroke="#EC008C" stroke-width="0.25" stroke-miterlimit="10" x1="764" y1="604.723" x2="809.795" y2="604.723"/>
<line fill="none" stroke="#EC008C" stroke-width="0.25" stroke-miterlimit="10" x1="679.28" y1="321.493" x2="725.075" y2="321.493"/>
<g>
	<path fill="#2E3192" stroke="#EC008C" stroke-width="0.25" stroke-miterlimit="10" d="M51.551,692.566
		c0.266,0.621,0.652,1.197,1.159,1.729c0.507,0.532,1.171,0.97,1.995,1.312c0.823,0.342,1.843,0.513,3.059,0.513
		c2.432-0.024,4.344-0.613,5.738-1.767c1.393-1.152,2.09-2.945,2.09-5.377c0-1.216-0.197-2.28-0.589-3.192
		c-0.393-0.912-0.912-1.665-1.558-2.261c-0.646-0.595-1.368-1.045-2.166-1.349c-0.798-0.305-1.603-0.456-2.413-0.456
		c0.811,0.025,1.589-0.14,2.337-0.494c0.747-0.354,1.412-0.854,1.995-1.501c0.583-0.646,1.051-1.406,1.406-2.279
		c0.354-0.875,0.532-1.818,0.532-2.832c0-0.304-0.007-0.664-0.019-1.082c-0.013-0.419-0.076-0.855-0.19-1.312
		c-0.114-0.456-0.292-0.912-0.532-1.368c-0.241-0.456-0.583-0.868-1.026-1.235c-0.443-0.366-1.014-0.658-1.71-0.874
		c-0.697-0.215-1.539-0.322-2.527-0.322c-1.52,0-2.73,0.184-3.629,0.551c-0.899,0.367-1.596,0.823-2.09,1.367
		c-0.494,0.546-0.836,1.141-1.026,1.787c-0.19,0.646-0.323,1.26-0.399,1.843c0.076-0.583,0.209-1.197,0.399-1.843
		c0.19-0.646,0.532-1.241,1.026-1.787c0.494-0.544,1.19-1,2.09-1.367c0.899-0.367,2.109-0.551,3.629-0.551
		c0.988,0,1.83,0.107,2.527,0.322c0.696,0.216,1.267,0.508,1.71,0.874c0.443,0.367,0.785,0.779,1.026,1.235
		c0.241,0.456,0.418,0.912,0.532,1.368c0.114,0.456,0.177,0.899,0.19,1.33c0.012,0.431,0.019,0.785,0.019,1.063
		c0,1.014-0.178,1.957-0.532,2.832c-0.355,0.873-0.823,1.633-1.406,2.279c-0.583,0.646-1.248,1.146-1.995,1.501
		c-0.748,0.354-1.526,0.52-2.337,0.494c0.811,0,1.615,0.151,2.413,0.456c0.798,0.304,1.52,0.754,2.166,1.349
		c0.646,0.596,1.165,1.349,1.558,2.261c0.393,0.912,0.589,1.977,0.589,3.192c0,2.432-0.697,4.225-2.09,5.377
		c-1.394,1.153-3.306,1.742-5.738,1.767c-1.216,0-2.236-0.171-3.059-0.513c-0.824-0.342-1.488-0.779-1.995-1.312
		C52.203,693.764,51.816,693.188,51.551,692.566c-0.266-0.62-0.437-1.222-0.513-1.805C51.114,691.345,51.285,691.946,51.551,692.566
		z"/>
</g>
<g>
	<path fill="#2E3192" stroke="#EC008C" stroke-width="0.25" stroke-miterlimit="10" d="M395.011,868.095
		c0.076,0.583,0.247,1.185,0.513,1.806s0.652,1.197,1.159,1.729c0.507,0.532,1.171,0.969,1.995,1.311
		c0.822,0.343,1.843,0.514,3.059,0.514c2.433-0.025,4.345-0.613,5.738-1.768c1.393-1.152,2.09-2.944,2.09-5.377
		c0-1.215-0.196-2.279-0.589-3.191c-0.394-0.912-0.912-1.666-1.558-2.261c-0.646-0.596-1.368-1.046-2.166-1.35
		c-0.799-0.304-1.603-0.456-2.413-0.456c0.811,0.025,1.589-0.139,2.337-0.494c0.747-0.354,1.412-0.854,1.995-1.5
		c0.582-0.646,1.051-1.406,1.405-2.28s0.532-1.817,0.532-2.831c0-0.279-0.007-0.633-0.019-1.064c-0.014-0.43-0.076-0.874-0.19-1.33
		s-0.291-0.912-0.532-1.367c-0.241-0.457-0.583-0.868-1.025-1.235c-0.443-0.367-1.014-0.659-1.71-0.874
		c-0.697-0.215-1.539-0.323-2.527-0.323c-1.52,0-2.73,0.185-3.629,0.551c-0.899,0.367-1.596,0.823-2.09,1.368
		s-0.836,1.141-1.026,1.786c-0.189,0.646-0.323,1.261-0.398,1.843c0.075-0.582,0.209-1.197,0.398-1.843
		c0.19-0.646,0.532-1.241,1.026-1.786s1.19-1.001,2.09-1.368c0.898-0.366,2.109-0.551,3.629-0.551c0.988,0,1.83,0.108,2.527,0.323
		c0.696,0.215,1.267,0.507,1.71,0.874c0.442,0.367,0.784,0.778,1.025,1.235c0.241,0.455,0.418,0.911,0.532,1.367
		s0.177,0.894,0.19,1.312c0.012,0.418,0.019,0.778,0.019,1.083c0,1.014-0.178,1.957-0.532,2.831s-0.823,1.634-1.405,2.28
		c-0.583,0.646-1.248,1.146-1.995,1.5c-0.748,0.355-1.526,0.52-2.337,0.494c0.811,0,1.614,0.152,2.413,0.456
		c0.798,0.304,1.52,0.754,2.166,1.35c0.646,0.595,1.164,1.349,1.558,2.261c0.393,0.912,0.589,1.977,0.589,3.191
		c0,2.433-0.697,4.225-2.09,5.377c-1.394,1.154-3.306,1.742-5.738,1.768c-1.216,0-2.236-0.171-3.059-0.514
		c-0.824-0.342-1.488-0.778-1.995-1.311c-0.507-0.531-0.894-1.107-1.159-1.729S395.087,868.678,395.011,868.095z"/>
</g>
<g>
	<path fill="#2E3192" stroke="#EC008C" stroke-width="0.25" stroke-miterlimit="10" d="M409.052,562.846
		c-0.266-0.621-0.652-1.197-1.159-1.729c-0.507-0.532-1.171-0.97-1.995-1.311c-0.822-0.343-1.843-0.514-3.059-0.514
		c-2.433,0.025-4.345,0.613-5.738,1.768c-1.393,1.152-2.09,2.944-2.09,5.377c0,1.215,0.196,2.279,0.589,3.191
		c0.394,0.912,0.912,1.665,1.558,2.261c0.646,0.595,1.368,1.046,2.166,1.349c0.799,0.305,1.603,0.456,2.413,0.456
		c-0.811-0.025-1.589,0.14-2.337,0.495c-0.747,0.354-1.412,0.854-1.995,1.5c-0.582,0.646-1.051,1.406-1.405,2.28
		s-0.532,1.817-0.532,2.831c0,0.305,0.007,0.665,0.019,1.083c0.014,0.418,0.076,0.854,0.19,1.311s0.291,0.912,0.532,1.369
		c0.241,0.456,0.583,0.867,1.025,1.234c0.443,0.367,1.014,0.658,1.71,0.874c0.697,0.215,1.539,0.323,2.527,0.323
		c1.52,0,2.73-0.185,3.629-0.552c0.899-0.367,1.596-0.822,2.09-1.367s0.836-1.141,1.026-1.786c0.189-0.646,0.323-1.261,0.398-1.843
		c-0.075,0.582-0.209,1.197-0.398,1.843c-0.19,0.646-0.532,1.241-1.026,1.786s-1.19,1-2.09,1.367
		c-0.898,0.367-2.109,0.552-3.629,0.552c-0.988,0-1.83-0.108-2.527-0.323c-0.696-0.216-1.267-0.507-1.71-0.874
		c-0.442-0.367-0.784-0.778-1.025-1.234c-0.241-0.457-0.418-0.913-0.532-1.369s-0.177-0.899-0.19-1.33
		c-0.012-0.431-0.019-0.784-0.019-1.063c0-1.014,0.178-1.957,0.532-2.831s0.823-1.634,1.405-2.28c0.583-0.646,1.248-1.146,1.995-1.5
		c0.748-0.355,1.526-0.521,2.337-0.495c-0.811,0-1.614-0.151-2.413-0.456c-0.798-0.303-1.52-0.754-2.166-1.349
		c-0.646-0.596-1.164-1.349-1.558-2.261c-0.393-0.912-0.589-1.977-0.589-3.191c0-2.433,0.697-4.225,2.09-5.377
		c1.394-1.154,3.306-1.742,5.738-1.768c1.216,0,2.236,0.171,3.059,0.514c0.824,0.341,1.488,0.778,1.995,1.311
		C408.399,561.648,408.786,562.225,409.052,562.846s0.437,1.223,0.513,1.805C409.488,564.068,409.317,563.467,409.052,562.846z"/>
</g>
<g>
	<path fill="#2E3192" stroke="#EC008C" stroke-width="0.25" stroke-miterlimit="10" d="M304.836,873.453
		c2.28-2.533,4.345-4.826,6.194-6.878c0.785-0.86,1.564-1.723,2.337-2.584c0.772-0.86,1.469-1.646,2.09-2.356
		c0.621-0.709,1.14-1.311,1.558-1.805s0.665-0.804,0.741-0.932c0.152-0.252,0.354-0.551,0.608-0.893
		c0.253-0.342,0.5-0.746,0.741-1.216c0.24-0.468,0.449-1.02,0.627-1.653c0.177-0.633,0.266-1.367,0.266-2.203
		s-0.14-1.673-0.418-2.508c-0.279-0.836-0.709-1.591-1.292-2.262c-0.583-0.671-1.336-1.216-2.261-1.634s-2.046-0.627-3.363-0.627
		c-2.66,0.025-4.617,0.607-5.871,1.748c-1.254,1.14-1.881,2.647-1.881,4.521c0-1.874,0.627-3.382,1.881-4.521
		c1.254-1.141,3.211-1.723,5.871-1.748c1.317,0,2.438,0.209,3.363,0.627s1.678,0.963,2.261,1.634
		c0.583,0.671,1.013,1.426,1.292,2.262c0.278,0.835,0.418,1.672,0.418,2.508s-0.089,1.57-0.266,2.203
		c-0.178,0.634-0.387,1.186-0.627,1.653c-0.241,0.47-0.488,0.874-0.741,1.216c-0.253,0.342-0.456,0.641-0.608,0.893
		c-0.076,0.128-0.323,0.438-0.741,0.932s-0.938,1.096-1.558,1.805c-0.621,0.71-1.317,1.496-2.09,2.356
		c-0.773,0.861-1.552,1.724-2.337,2.584C309.181,868.627,307.116,870.92,304.836,873.453h14.972H304.836z"/>
</g>
<g>
	<path fill="#2E3192" stroke="#EC008C" stroke-width="0.25" stroke-miterlimit="10" d="M319.999,673.622
		c-2.28,2.532-4.345,4.826-6.194,6.878c-0.785,0.86-1.564,1.723-2.337,2.584c-0.772,0.86-1.469,1.646-2.09,2.355
		c-0.621,0.709-1.14,1.312-1.558,1.806s-0.665,0.804-0.741,0.931c-0.152,0.254-0.354,0.552-0.608,0.893
		c-0.253,0.343-0.5,0.747-0.741,1.217c-0.24,0.468-0.449,1.02-0.627,1.653c-0.177,0.632-0.266,1.368-0.266,2.204
		s0.14,1.672,0.418,2.508c0.279,0.835,0.709,1.589,1.292,2.261c0.583,0.671,1.336,1.216,2.261,1.634s2.046,0.627,3.363,0.627
		c2.66-0.025,4.617-0.607,5.871-1.748c1.254-1.14,1.881-2.647,1.881-4.521c0,1.874-0.627,3.382-1.881,4.521
		c-1.254,1.141-3.211,1.723-5.871,1.748c-1.317,0-2.438-0.209-3.363-0.627s-1.678-0.963-2.261-1.634
		c-0.583-0.672-1.013-1.426-1.292-2.261c-0.278-0.836-0.418-1.672-0.418-2.508s0.089-1.572,0.266-2.204
		c0.178-0.634,0.387-1.186,0.627-1.653c0.241-0.47,0.488-0.874,0.741-1.217c0.253-0.341,0.456-0.639,0.608-0.893
		c0.076-0.127,0.323-0.437,0.741-0.931s0.938-1.097,1.558-1.806c0.621-0.709,1.317-1.495,2.09-2.355
		c0.773-0.861,1.552-1.724,2.337-2.584C315.654,678.448,317.719,676.154,319.999,673.622h-14.972H319.999z"/>
</g>
<g>
	<path fill="#2E3192" stroke="#EC008C" stroke-width="0.25" stroke-miterlimit="10" d="M214.064,846.094h-3.914H214.064v27.359
		V846.094z"/>
</g>
<g>
	<path fill="#2E3192" stroke="#EC008C" stroke-width="0.25" stroke-miterlimit="10" d="M501.292,873.453v-27.55l-14.973,22.382
		h19.419h-19.419l14.973-22.382V873.453z"/>
</g>
<g>
	<path fill="#2E3192" stroke="#EC008C" stroke-width="0.25" stroke-miterlimit="10" d="M490.766,449.956v27.55l14.973-22.382
		h-19.419h19.419l-14.973,22.382V449.956z"/>
</g>
<g>
	<path fill="#2E3192" stroke="#EC008C" stroke-width="0.25" stroke-miterlimit="10" d="M585.97,869.69
		c0.152,0.179,0.431,0.463,0.836,0.855c0.405,0.394,0.932,0.798,1.577,1.216c0.646,0.418,1.425,0.793,2.337,1.121
		c0.912,0.33,1.977,0.507,3.192,0.532c1.216,0,2.375-0.267,3.477-0.798c1.103-0.532,2.084-1.267,2.945-2.204
		c0.861-0.937,1.545-2.026,2.052-3.269c0.507-1.24,0.76-2.559,0.76-3.951s-0.298-2.622-0.893-3.687
		c-0.596-1.063-1.324-1.956-2.185-2.679c-0.862-0.722-1.773-1.26-2.736-1.615c-0.963-0.354-1.812-0.531-2.546-0.531
		c-0.456-0.076-0.938-0.089-1.444-0.039c-0.431,0.052-0.938,0.14-1.52,0.267c-0.583,0.127-1.179,0.329-1.786,0.608l3.8-10.108h9.576
		h-9.576l-3.8,10.108c0.607-0.279,1.203-0.481,1.786-0.608c0.582-0.127,1.089-0.215,1.52-0.267c0.507-0.05,0.988-0.037,1.444,0.039
		c0.734,0,1.583,0.178,2.546,0.531c0.963,0.355,1.874,0.894,2.736,1.615c0.86,0.723,1.589,1.615,2.185,2.679
		c0.595,1.064,0.893,2.294,0.893,3.687s-0.253,2.711-0.76,3.951c-0.507,1.242-1.19,2.332-2.052,3.269
		c-0.861,0.938-1.843,1.672-2.945,2.204c-1.102,0.531-2.261,0.798-3.477,0.798c-1.216-0.025-2.28-0.202-3.192-0.532
		c-0.912-0.328-1.69-0.703-2.337-1.121c-0.646-0.418-1.172-0.822-1.577-1.216C586.4,870.153,586.122,869.869,585.97,869.69z"/>
</g>
<g>
	<path fill="#2E3192" stroke="#EC008C" stroke-width="0.25" stroke-miterlimit="10" d="M602.576,337.172
		c-0.405-0.393-0.932-0.798-1.577-1.216c-0.646-0.418-1.425-0.792-2.337-1.121c-0.912-0.33-1.977-0.507-3.192-0.532
		c-1.216,0-2.375,0.266-3.477,0.798c-1.103,0.532-2.084,1.267-2.945,2.204c-0.861,0.937-1.545,2.026-2.052,3.268
		c-0.507,1.241-0.76,2.559-0.76,3.952s0.298,2.622,0.893,3.686c0.596,1.064,1.324,1.957,2.185,2.679
		c0.862,0.722,1.773,1.26,2.736,1.615c0.963,0.354,1.812,0.532,2.546,0.532c0.456,0.076,0.938,0.088,1.444,0.038
		c0.431-0.051,0.938-0.14,1.52-0.266c0.583-0.127,1.179-0.33,1.786-0.608l-3.8,10.108h-9.576h9.576l3.8-10.108
		c-0.607,0.278-1.203,0.481-1.786,0.608c-0.582,0.126-1.089,0.215-1.52,0.266c-0.507,0.05-0.988,0.038-1.444-0.038
		c-0.734,0-1.583-0.178-2.546-0.532c-0.963-0.355-1.874-0.893-2.736-1.615c-0.86-0.722-1.589-1.615-2.185-2.679
		c-0.595-1.064-0.893-2.293-0.893-3.686s0.253-2.711,0.76-3.952c0.507-1.242,1.19-2.331,2.052-3.268
		c0.861-0.938,1.843-1.672,2.945-2.204c1.102-0.532,2.261-0.798,3.477-0.798c1.216,0.025,2.28,0.202,3.192,0.532
		c0.912,0.329,1.69,0.703,2.337,1.121C601.645,336.374,602.171,336.779,602.576,337.172c0.405,0.392,0.684,0.677,0.836,0.855
		C603.26,337.849,602.981,337.564,602.576,337.172z"/>
</g>
<g>
	<path fill="#2E3192" stroke="#EC008C" stroke-width="0.25" stroke-miterlimit="10" d="M126.714,696.119
		c2.28-2.532,4.345-4.826,6.194-6.877c0.785-0.861,1.564-1.723,2.337-2.585c0.772-0.86,1.469-1.646,2.09-2.355
		c0.621-0.709,1.14-1.312,1.558-1.806s0.665-0.803,0.741-0.931c0.152-0.253,0.354-0.551,0.608-0.893
		c0.253-0.343,0.5-0.747,0.741-1.217c0.24-0.468,0.449-1.019,0.627-1.652c0.177-0.633,0.266-1.368,0.266-2.204
		s-0.14-1.672-0.418-2.508c-0.279-0.836-0.709-1.59-1.292-2.262c-0.583-0.67-1.336-1.216-2.261-1.633
		c-0.925-0.418-2.046-0.628-3.363-0.628c-2.66,0.025-4.617,0.608-5.871,1.749c-1.254,1.139-1.881,2.646-1.881,4.521
		c0-1.875,0.627-3.383,1.881-4.521c1.254-1.141,3.211-1.724,5.871-1.749c1.317,0,2.438,0.21,3.363,0.628
		c0.925,0.417,1.678,0.963,2.261,1.633c0.583,0.672,1.013,1.426,1.292,2.262c0.278,0.836,0.418,1.672,0.418,2.508
		s-0.089,1.571-0.266,2.204c-0.178,0.634-0.387,1.185-0.627,1.652c-0.241,0.47-0.488,0.874-0.741,1.217
		c-0.253,0.342-0.456,0.64-0.608,0.893c-0.076,0.128-0.323,0.437-0.741,0.931s-0.938,1.097-1.558,1.806
		c-0.621,0.709-1.317,1.495-2.09,2.355c-0.773,0.862-1.552,1.724-2.337,2.585C131.059,691.293,128.994,693.587,126.714,696.119
		h14.972H126.714z"/>
</g>
<g>
	<path fill="#2E3192" stroke="#EC008C" stroke-width="0.25" stroke-miterlimit="10" d="M217.035,696.119V668.76h-3.914h3.914
		V696.119z"/>
</g>
<g>
	<path fill="#2E3192" stroke="#EC008C" stroke-width="0.25" stroke-miterlimit="10" d="M268.884,381.233
		c0.266,0.621,0.652,1.197,1.159,1.729c0.507,0.532,1.171,0.969,1.995,1.311c0.823,0.342,1.843,0.513,3.059,0.513
		c2.432-0.025,4.344-0.614,5.738-1.767c1.393-1.152,2.09-2.945,2.09-5.377c0-1.216-0.197-2.28-0.589-3.192
		c-0.393-0.912-0.912-1.666-1.558-2.261c-0.646-0.595-1.368-1.045-2.166-1.349c-0.798-0.304-1.603-0.456-2.413-0.456
		c0.811,0.025,1.589-0.139,2.337-0.494c0.747-0.354,1.412-0.855,1.995-1.501c0.583-0.646,1.051-1.406,1.406-2.28
		c0.354-0.874,0.532-1.818,0.532-2.831c0-0.304-0.007-0.665-0.019-1.083c-0.013-0.418-0.076-0.855-0.19-1.311
		c-0.114-0.456-0.292-0.912-0.532-1.368c-0.241-0.456-0.583-0.868-1.026-1.235c-0.443-0.367-1.014-0.659-1.71-0.874
		c-0.697-0.215-1.539-0.323-2.527-0.323c-1.52,0-2.73,0.184-3.629,0.551c-0.899,0.367-1.596,0.823-2.09,1.368
		c-0.494,0.545-0.836,1.14-1.026,1.786s-0.323,1.261-0.399,1.843c0.076-0.583,0.209-1.197,0.399-1.843s0.532-1.241,1.026-1.786
		c0.494-0.544,1.19-1,2.09-1.368c0.899-0.367,2.109-0.551,3.629-0.551c0.988,0,1.83,0.108,2.527,0.323
		c0.696,0.215,1.267,0.507,1.71,0.874c0.443,0.367,0.785,0.779,1.026,1.235c0.241,0.456,0.418,0.912,0.532,1.368
		c0.114,0.456,0.177,0.899,0.19,1.33c0.012,0.431,0.019,0.785,0.019,1.064c0,1.013-0.178,1.957-0.532,2.831
		c-0.355,0.874-0.823,1.634-1.406,2.28c-0.583,0.646-1.248,1.146-1.995,1.501c-0.748,0.355-1.526,0.52-2.337,0.494
		c0.811,0,1.615,0.152,2.413,0.456c0.798,0.304,1.52,0.754,2.166,1.349c0.646,0.596,1.165,1.349,1.558,2.261
		c0.393,0.912,0.589,1.976,0.589,3.192c0,2.432-0.697,4.225-2.09,5.377c-1.394,1.153-3.306,1.742-5.738,1.767
		c-1.216,0-2.236-0.171-3.059-0.513c-0.824-0.342-1.488-0.779-1.995-1.311C269.536,382.431,269.15,381.854,268.884,381.233
		c-0.266-0.62-0.437-1.222-0.513-1.805C268.447,380.012,268.618,380.613,268.884,381.233z"/>
</g>
<g>
	<path fill="#2E3192" stroke="#EC008C" stroke-width="0.25" stroke-miterlimit="10" d="M695.414,184.567
		c0.266,0.621,0.651,1.197,1.158,1.729c0.507,0.532,1.172,0.969,1.995,1.311c0.823,0.342,1.844,0.513,3.06,0.513
		c2.432-0.025,4.344-0.614,5.737-1.767c1.394-1.152,2.091-2.945,2.091-5.377c0-1.216-0.197-2.28-0.59-3.192
		s-0.911-1.666-1.558-2.261c-0.646-0.595-1.368-1.045-2.166-1.349c-0.798-0.304-1.603-0.456-2.413-0.456
		c0.811,0.025,1.59-0.139,2.337-0.494c0.747-0.354,1.412-0.855,1.995-1.501s1.051-1.406,1.406-2.28
		c0.354-0.874,0.532-1.818,0.532-2.831c0-0.304-0.007-0.665-0.02-1.083s-0.076-0.855-0.189-1.311
		c-0.114-0.456-0.292-0.912-0.532-1.368c-0.241-0.456-0.583-0.868-1.026-1.235s-1.014-0.659-1.71-0.874
		c-0.697-0.215-1.539-0.323-2.526-0.323c-1.521,0-2.73,0.184-3.63,0.551s-1.596,0.823-2.09,1.368
		c-0.494,0.545-0.836,1.14-1.025,1.786c-0.19,0.646-0.323,1.261-0.399,1.843c0.076-0.583,0.209-1.197,0.399-1.843
		c0.189-0.646,0.531-1.241,1.025-1.786c0.494-0.544,1.19-1,2.09-1.368s2.109-0.551,3.63-0.551c0.987,0,1.829,0.108,2.526,0.323
		c0.696,0.215,1.267,0.507,1.71,0.874s0.785,0.779,1.026,1.235c0.24,0.456,0.418,0.912,0.532,1.368
		c0.113,0.456,0.177,0.899,0.189,1.33s0.02,0.785,0.02,1.064c0,1.013-0.178,1.957-0.532,2.831c-0.355,0.874-0.823,1.634-1.406,2.28
		s-1.248,1.146-1.995,1.501c-0.747,0.355-1.526,0.52-2.337,0.494c0.811,0,1.615,0.152,2.413,0.456
		c0.798,0.304,1.521,0.754,2.166,1.349c0.646,0.596,1.165,1.349,1.558,2.261s0.59,1.976,0.59,3.192c0,2.432-0.697,4.225-2.091,5.377
		c-1.394,1.153-3.306,1.742-5.737,1.767c-1.216,0-2.236-0.171-3.06-0.513c-0.823-0.342-1.488-0.779-1.995-1.311
		C696.065,185.764,695.68,185.188,695.414,184.567c-0.267-0.62-0.438-1.222-0.514-1.805
		C694.977,183.345,695.147,183.947,695.414,184.567z"/>
</g>
<g>
	<path fill="#2E3192" stroke="#EC008C" stroke-width="0.25" stroke-miterlimit="10" d="M420.017,49.742
		c0.251-0.627,0.385-1.307,0.403-2.041c0.018-0.734-0.143-1.514-0.483-2.338c-0.339-0.824-0.94-1.666-1.8-2.525
		c-1.737-1.703-3.506-2.639-5.307-2.809c-1.8-0.17-3.56,0.604-5.28,2.324c-0.86,0.859-1.473,1.751-1.841,2.674
		c-0.367,0.922-0.533,1.822-0.497,2.7c0.036,0.877,0.228,1.706,0.578,2.485c0.349,0.779,0.81,1.455,1.383,2.029
		c-0.555-0.592-1.222-1.026-2.001-1.304c-0.779-0.277-1.604-0.394-2.472-0.35c-0.869,0.045-1.738,0.251-2.606,0.618
		c-0.868,0.367-1.662,0.909-2.378,1.625c-0.215,0.216-0.465,0.476-0.752,0.779c-0.286,0.305-0.551,0.659-0.792,1.062
		c-0.242,0.403-0.439,0.852-0.591,1.344c-0.152,0.493-0.201,1.026-0.148,1.599c0.054,0.573,0.251,1.184,0.591,1.827
		c0.341,0.646,0.859,1.317,1.558,2.016c1.075,1.075,2.061,1.801,2.957,2.177c0.895,0.376,1.71,0.546,2.444,0.511
		c0.735-0.036,1.397-0.216,1.989-0.538c0.591-0.322,1.12-0.663,1.585-1.021c-0.465,0.358-0.995,0.699-1.585,1.021
		c-0.591,0.322-1.253,0.502-1.989,0.538c-0.734,0.035-1.549-0.135-2.444-0.511c-0.896-0.376-1.882-1.102-2.957-2.177
		c-0.699-0.698-1.217-1.37-1.558-2.016c-0.34-0.644-0.538-1.254-0.591-1.827c-0.053-0.572-0.004-1.105,0.148-1.599
		c0.152-0.492,0.349-0.94,0.591-1.344c0.242-0.402,0.511-0.761,0.806-1.075c0.295-0.313,0.542-0.568,0.739-0.766
		c0.716-0.716,1.51-1.258,2.378-1.625c0.869-0.367,1.737-0.573,2.606-0.618c0.869-0.044,1.693,0.072,2.472,0.35
		c0.78,0.277,1.446,0.712,2.001,1.304c-0.573-0.574-1.034-1.25-1.383-2.029c-0.35-0.779-0.542-1.608-0.578-2.485
		c-0.036-0.878,0.13-1.778,0.497-2.7c0.368-0.923,0.981-1.814,1.841-2.674c1.72-1.721,3.48-2.494,5.28-2.324
		c1.801,0.17,3.569,1.105,5.307,2.809c0.86,0.859,1.461,1.701,1.8,2.525c0.341,0.824,0.501,1.604,0.483,2.338
		C420.402,48.436,420.268,49.115,420.017,49.742c-0.25,0.627-0.555,1.174-0.913,1.64C419.461,50.916,419.767,50.369,420.017,49.742z
		"/>
</g>
<g>
	<path fill="#2E3192" stroke="#EC008C" stroke-width="0.25" stroke-miterlimit="10" d="M380.02,384.787h-14.972
		c2.28-2.533,4.345-4.826,6.194-6.878c0.785-0.861,1.564-1.723,2.337-2.584c0.772-0.861,1.469-1.646,2.09-2.356
		c0.621-0.709,1.14-1.311,1.558-1.805s0.665-0.804,0.741-0.931c0.152-0.253,0.354-0.551,0.608-0.893
		c0.253-0.342,0.5-0.747,0.741-1.216c0.24-0.468,0.449-1.02,0.627-1.653c0.177-0.633,0.266-1.368,0.266-2.204
		s-0.14-1.672-0.418-2.508c-0.279-0.836-0.709-1.59-1.292-2.261c-0.583-0.671-1.336-1.216-2.261-1.634s-2.046-0.627-3.363-0.627
		c-2.66,0.025-4.617,0.608-5.871,1.748c-1.254,1.14-1.881,2.647-1.881,4.522c0-1.875,0.627-3.382,1.881-4.522
		c1.254-1.14,3.211-1.723,5.871-1.748c1.317,0,2.438,0.209,3.363,0.627s1.678,0.963,2.261,1.634
		c0.583,0.671,1.013,1.425,1.292,2.261c0.278,0.836,0.418,1.672,0.418,2.508s-0.089,1.571-0.266,2.204
		c-0.178,0.633-0.387,1.185-0.627,1.653c-0.241,0.469-0.488,0.874-0.741,1.216c-0.253,0.342-0.456,0.64-0.608,0.893
		c-0.076,0.127-0.323,0.437-0.741,0.931s-0.938,1.096-1.558,1.805c-0.621,0.709-1.317,1.495-2.09,2.356
		c-0.773,0.861-1.552,1.723-2.337,2.584c-1.849,2.052-3.914,4.345-6.194,6.878H380.02z"/>
</g>
<g>
	<path fill="#2E3192" stroke="#EC008C" stroke-width="0.25" stroke-miterlimit="10" d="M709.568,476.883h-14.972
		c2.28-2.533,4.345-4.826,6.193-6.878c0.786-0.861,1.564-1.723,2.338-2.584c0.772-0.86,1.469-1.646,2.09-2.356
		c0.62-0.709,1.14-1.311,1.558-1.805s0.665-0.804,0.741-0.931c0.151-0.253,0.354-0.551,0.608-0.893
		c0.252-0.342,0.5-0.747,0.74-1.216c0.241-0.468,0.449-1.02,0.627-1.653c0.177-0.633,0.267-1.368,0.267-2.204
		s-0.14-1.672-0.418-2.508c-0.279-0.836-0.71-1.59-1.292-2.261c-0.583-0.671-1.336-1.216-2.262-1.634
		c-0.924-0.418-2.045-0.627-3.362-0.627c-2.66,0.025-4.617,0.608-5.871,1.748c-1.254,1.14-1.881,2.647-1.881,4.522
		c0-1.875,0.627-3.382,1.881-4.522c1.254-1.14,3.211-1.723,5.871-1.748c1.317,0,2.438,0.209,3.362,0.627
		c0.926,0.418,1.679,0.963,2.262,1.634c0.582,0.671,1.013,1.425,1.292,2.261c0.278,0.836,0.418,1.672,0.418,2.508
		s-0.09,1.571-0.267,2.204c-0.178,0.633-0.386,1.185-0.627,1.653c-0.24,0.469-0.488,0.874-0.74,1.216
		c-0.254,0.342-0.457,0.64-0.608,0.893c-0.076,0.127-0.323,0.437-0.741,0.931s-0.938,1.096-1.558,1.805
		c-0.621,0.709-1.317,1.496-2.09,2.356c-0.773,0.861-1.552,1.723-2.338,2.584c-1.849,2.052-3.913,4.345-6.193,6.878H709.568z"/>
</g>
<g>
	<path fill="#2E3192" stroke="#EC008C" stroke-width="0.25" stroke-miterlimit="10" d="M466.482,134.9l10.587,10.588
		c-3.403,0.178-6.484,0.34-9.242,0.483c-1.165,0.054-2.325,0.112-3.48,0.175c-1.155,0.062-2.203,0.125-3.144,0.188
		s-1.733,0.121-2.379,0.175c-0.645,0.054-1.038,0.099-1.181,0.134c-0.287,0.072-0.642,0.14-1.063,0.202
		c-0.421,0.063-0.882,0.175-1.383,0.335c-0.502,0.162-1.04,0.404-1.613,0.727c-0.571,0.322-1.155,0.779-1.746,1.37
		s-1.083,1.28-1.479,2.068c-0.394,0.789-0.622,1.626-0.685,2.513s0.085,1.805,0.443,2.754s1.004,1.891,1.935,2.822
		c1.899,1.862,3.694,2.834,5.388,2.914c1.692,0.082,3.202-0.541,4.527-1.867c-1.325,1.326-2.835,1.949-4.527,1.867
		c-1.693-0.08-3.488-1.052-5.388-2.914c-0.931-0.932-1.576-1.873-1.935-2.822s-0.506-1.867-0.443-2.754s0.291-1.724,0.685-2.513
		c0.396-0.788,0.888-1.478,1.479-2.068s1.175-1.048,1.746-1.37c0.573-0.322,1.111-0.564,1.613-0.727
		c0.501-0.16,0.962-0.271,1.383-0.335c0.421-0.063,0.775-0.13,1.063-0.202c0.143-0.035,0.536-0.08,1.181-0.134
		c0.646-0.054,1.438-0.112,2.379-0.175s1.988-0.126,3.144-0.188c1.155-0.063,2.315-0.121,3.48-0.175
		c2.758-0.144,5.839-0.306,9.242-0.483L466.482,134.9z"/>
</g>
<g>
	<path fill="#2E3192" stroke="#EC008C" stroke-width="0.25" stroke-miterlimit="10" d="M474.368,384.787v-27.36h-3.914h3.914
		V384.787z"/>
</g>
<g>
	<path fill="#2E3192" stroke="#EC008C" stroke-width="0.25" stroke-miterlimit="10" d="M704.135,750.52V723.16h-3.914h3.914V750.52z
		"/>
</g>
<g>
	<path fill="#2E3192" stroke="#EC008C" stroke-width="0.25" stroke-miterlimit="10" d="M794.289,476.883h-14.973
		c2.279-2.533,4.345-4.826,6.193-6.878c0.785-0.861,1.564-1.723,2.338-2.584c0.772-0.86,1.469-1.646,2.09-2.356
		c0.621-0.709,1.14-1.311,1.559-1.805c0.418-0.494,0.664-0.804,0.74-0.931c0.152-0.253,0.354-0.551,0.607-0.893
		c0.254-0.342,0.5-0.747,0.741-1.216c0.241-0.468,0.45-1.02,0.628-1.653c0.176-0.633,0.266-1.368,0.266-2.204
		s-0.14-1.672-0.418-2.508c-0.279-0.836-0.709-1.59-1.292-2.261c-0.583-0.671-1.337-1.216-2.262-1.634s-2.046-0.627-3.362-0.627
		c-2.66,0.025-4.617,0.608-5.871,1.748c-1.254,1.14-1.881,2.647-1.881,4.522c0-1.875,0.627-3.382,1.881-4.522
		c1.254-1.14,3.211-1.723,5.871-1.748c1.316,0,2.438,0.209,3.362,0.627s1.679,0.963,2.262,1.634
		c0.583,0.671,1.013,1.425,1.292,2.261c0.278,0.836,0.418,1.672,0.418,2.508s-0.09,1.571-0.266,2.204
		c-0.178,0.633-0.387,1.185-0.628,1.653c-0.241,0.469-0.487,0.874-0.741,1.216c-0.253,0.342-0.455,0.64-0.607,0.893
		c-0.076,0.127-0.322,0.437-0.74,0.931c-0.419,0.494-0.938,1.096-1.559,1.805c-0.621,0.709-1.317,1.496-2.09,2.356
		c-0.773,0.861-1.553,1.723-2.338,2.584c-1.849,2.052-3.914,4.345-6.193,6.878H794.289z"/>
</g>
<g>
	<path fill="#2E3192" stroke="#EC008C" stroke-width="0.25" stroke-miterlimit="10" d="M788.854,750.52V723.16h-3.914h3.914V750.52z
		"/>
</g>
<g>
	<path fill="#2E3192" stroke="#EC008C" stroke-width="0.25" stroke-miterlimit="10" d="M788.854,159.917v-27.36h-3.914h3.914
		V159.917z"/>
</g>
<g>
	<path fill="#2E3192" stroke="#EC008C" stroke-width="0.25" stroke-miterlimit="10" d="M510.086,259.147l2.768,2.768
		L510.086,259.147l19.346-19.347L510.086,259.147z"/>
</g>
<g>
	<path fill="#2E3192" stroke="#EC008C" stroke-width="0.25" stroke-miterlimit="10" d="M295.106,459.29
		c0.583-0.076,1.185-0.247,1.805-0.513c0.621-0.266,1.197-0.652,1.729-1.159c0.532-0.507,0.969-1.171,1.311-1.995
		c0.342-0.823,0.513-1.843,0.513-3.059c-0.025-2.432-0.614-4.344-1.767-5.738c-1.152-1.393-2.945-2.09-5.377-2.09
		c-1.216,0-2.28,0.197-3.192,0.589c-0.912,0.393-1.666,0.912-2.261,1.558c-0.595,0.646-1.045,1.368-1.349,2.166
		c-0.304,0.798-0.456,1.603-0.456,2.413c0.025-0.811-0.139-1.589-0.494-2.337c-0.354-0.747-0.855-1.412-1.501-1.995
		c-0.646-0.583-1.406-1.051-2.28-1.406c-0.874-0.354-1.818-0.532-2.831-0.532c-0.279,0-0.633,0.007-1.064,0.019
		c-0.431,0.013-0.874,0.076-1.33,0.19c-0.456,0.114-0.912,0.292-1.368,0.532c-0.456,0.241-0.868,0.583-1.235,1.026
		c-0.367,0.443-0.659,1.014-0.874,1.71c-0.215,0.697-0.323,1.539-0.323,2.527c0,1.52,0.184,2.73,0.551,3.629
		c0.367,0.899,0.823,1.596,1.368,2.09c0.545,0.494,1.14,0.836,1.786,1.026s1.261,0.323,1.843,0.399
		c-0.583-0.076-1.197-0.209-1.843-0.399s-1.241-0.532-1.786-1.026c-0.544-0.494-1-1.19-1.368-2.09
		c-0.367-0.899-0.551-2.109-0.551-3.629c0-0.988,0.108-1.83,0.323-2.527c0.215-0.696,0.507-1.267,0.874-1.71
		c0.367-0.443,0.779-0.785,1.235-1.026c0.456-0.241,0.912-0.418,1.368-0.532c0.456-0.114,0.893-0.177,1.311-0.19
		c0.418-0.012,0.779-0.019,1.083-0.019c1.013,0,1.957,0.178,2.831,0.532c0.874,0.355,1.634,0.823,2.28,1.406
		c0.646,0.583,1.146,1.248,1.501,1.995c0.355,0.748,0.52,1.526,0.494,2.337c0-0.811,0.152-1.615,0.456-2.413
		c0.304-0.798,0.754-1.52,1.349-2.166c0.596-0.646,1.349-1.165,2.261-1.558c0.912-0.393,1.976-0.589,3.192-0.589
		c2.432,0,4.225,0.697,5.377,2.09c1.153,1.394,1.742,3.306,1.767,5.738c0,1.216-0.171,2.236-0.513,3.059
		c-0.342,0.824-0.779,1.488-1.311,1.995c-0.532,0.507-1.108,0.893-1.729,1.159C296.291,459.043,295.689,459.214,295.106,459.29z"/>
</g>
<g>
	<path fill="#2E3192" stroke="#EC008C" stroke-width="0.25" stroke-miterlimit="10" d="M300.464,519.357v14.973
		c-2.533-2.279-4.826-4.345-6.878-6.194c-0.861-0.784-1.723-1.563-2.584-2.337c-0.861-0.772-1.646-1.469-2.356-2.09
		c-0.709-0.621-1.311-1.141-1.805-1.559s-0.804-0.665-0.931-0.74c-0.253-0.152-0.551-0.354-0.893-0.608
		c-0.342-0.253-0.747-0.5-1.216-0.741c-0.468-0.24-1.02-0.449-1.653-0.627c-0.633-0.177-1.368-0.266-2.204-0.266
		s-1.672,0.14-2.508,0.418c-0.836,0.279-1.59,0.709-2.261,1.292c-0.671,0.583-1.216,1.337-1.634,2.261
		c-0.418,0.926-0.627,2.047-0.627,3.363c0.025,2.66,0.608,4.617,1.748,5.871c1.14,1.254,2.647,1.881,4.522,1.881
		c-1.875,0-3.382-0.627-4.522-1.881c-1.14-1.254-1.723-3.211-1.748-5.871c0-1.316,0.209-2.438,0.627-3.363
		c0.418-0.924,0.963-1.678,1.634-2.261c0.671-0.583,1.425-1.013,2.261-1.292c0.836-0.278,1.672-0.418,2.508-0.418
		s1.571,0.089,2.204,0.266c0.633,0.178,1.185,0.387,1.653,0.627c0.469,0.241,0.874,0.488,1.216,0.741
		c0.342,0.254,0.64,0.456,0.893,0.608c0.127,0.075,0.437,0.322,0.931,0.74s1.096,0.938,1.805,1.559
		c0.709,0.621,1.495,1.317,2.356,2.09c0.861,0.773,1.723,1.553,2.584,2.337c2.052,1.85,4.345,3.915,6.878,6.194V519.357z"/>
</g>
<g>
	<path fill="#2E3192" stroke="#EC008C" stroke-width="0.25" stroke-miterlimit="10" d="M273.104,604.93v3.914V604.93h27.36H273.104z
		"/>
</g>
<g>
	<path fill="none" stroke="#EC008C" stroke-width="0.25" stroke-miterlimit="10" d="M615.292,370.343v15.774
		c0,0,0,13.113-15.027,13.113c-15.776,0-15.776-13.113-15.776-13.113v-15.774"/>
	
		<line fill="none" stroke="#EC008C" stroke-width="0.25" stroke-miterlimit="10" x1="584.488" y1="370.343" x2="575.462" y2="379.37"/>
	
		<line fill="none" stroke="#EC008C" stroke-width="0.25" stroke-miterlimit="10" x1="584.488" y1="370.343" x2="592.936" y2="378.79"/>
</g>
<g>
	<path fill="none" stroke="#EC008C" stroke-width="0.25" stroke-miterlimit="10" d="M515.241,487.281v15.773
		c0,0,0,13.113-15.027,13.113c-15.776,0-15.776-13.113-15.776-13.113v-15.773"/>
	
		<line fill="none" stroke="#EC008C" stroke-width="0.25" stroke-miterlimit="10" x1="484.438" y1="487.281" x2="475.411" y2="496.308"/>
	
		<line fill="none" stroke="#EC008C" stroke-width="0.25" stroke-miterlimit="10" x1="484.438" y1="487.281" x2="492.885" y2="495.729"/>
</g>
<g>
	<path fill="none" stroke="#EC008C" stroke-width="0.25" stroke-miterlimit="10" d="M422.203,593.4v15.774
		c0,0,0,13.112-15.027,13.112c-15.776,0-15.776-13.112-15.776-13.112V593.4"/>
	
		<line fill="none" stroke="#EC008C" stroke-width="0.25" stroke-miterlimit="10" x1="391.399" y1="593.4" x2="382.373" y2="602.428"/>
	
		<line fill="none" stroke="#EC008C" stroke-width="0.25" stroke-miterlimit="10" x1="391.399" y1="593.4" x2="399.846" y2="601.848"/>
</g>
<g>
	<path fill="none" stroke="#EC008C" stroke-width="0.25" stroke-miterlimit="10" d="M332.334,708.717v15.773
		c0,0,0,13.113-15.027,13.113c-15.776,0-15.776-13.113-15.776-13.113v-15.773"/>
	
		<line fill="none" stroke="#EC008C" stroke-width="0.25" stroke-miterlimit="10" x1="301.53" y1="708.717" x2="292.504" y2="717.743"/>
	
		<line fill="none" stroke="#EC008C" stroke-width="0.25" stroke-miterlimit="10" x1="301.53" y1="708.717" x2="309.978" y2="717.163"/>
</g>
<g>
	<path fill="none" stroke="#EC008C" stroke-width="0.25" stroke-miterlimit="10" d="M207.883,662.082
		c0-15.775,13.113-15.775,13.113-15.775h15.774"/>
	
		<line fill="none" stroke="#EC008C" stroke-width="0.25" stroke-miterlimit="10" x1="236.77" y1="646.307" x2="227.743" y2="637.279"/>
	
		<line fill="none" stroke="#EC008C" stroke-width="0.25" stroke-miterlimit="10" x1="236.77" y1="646.307" x2="228.323" y2="654.753"/>
</g>
<g>
	<path fill="none" stroke="#EC008C" stroke-width="0.25" stroke-miterlimit="10" d="M124.55,662.082
		c0-15.775,13.113-15.775,13.113-15.775h15.774"/>
	
		<line fill="none" stroke="#EC008C" stroke-width="0.25" stroke-miterlimit="10" x1="153.437" y1="646.307" x2="144.41" y2="637.279"/>
	
		<line fill="none" stroke="#EC008C" stroke-width="0.25" stroke-miterlimit="10" x1="153.437" y1="646.307" x2="144.99" y2="654.753"/>
</g>
<g>
	<path fill="none" stroke="#EC008C" stroke-width="0.25" stroke-miterlimit="10" d="M46.55,662.082
		c0-15.775,13.113-15.775,13.113-15.775h15.774"/>
	
		<line fill="none" stroke="#EC008C" stroke-width="0.25" stroke-miterlimit="10" x1="75.437" y1="646.307" x2="66.41" y2="637.279"/>
	
		<line fill="none" stroke="#EC008C" stroke-width="0.25" stroke-miterlimit="10" x1="75.437" y1="646.307" x2="66.99" y2="654.753"/>
</g>
<g>
	<path fill="none" stroke="#EC008C" stroke-width="0.25" stroke-miterlimit="10" d="M267.248,601.822
		c-15.776,0-15.776,13.112-15.776,13.112v15.774"/>
	
		<line fill="none" stroke="#EC008C" stroke-width="0.25" stroke-miterlimit="10" x1="251.472" y1="630.709" x2="242.445" y2="621.682"/>
	
		<line fill="none" stroke="#EC008C" stroke-width="0.25" stroke-miterlimit="10" x1="251.472" y1="630.709" x2="259.919" y2="622.262"/>
</g>
<g>
	<path fill="none" stroke="#EC008C" stroke-width="0.25" stroke-miterlimit="10" d="M267.248,520.488
		c-15.776,0-15.776,13.113-15.776,13.113v15.773"/>
	
		<line fill="none" stroke="#EC008C" stroke-width="0.25" stroke-miterlimit="10" x1="251.472" y1="549.375" x2="242.445" y2="540.349"/>
	
		<line fill="none" stroke="#EC008C" stroke-width="0.25" stroke-miterlimit="10" x1="251.472" y1="549.375" x2="259.919" y2="540.929"/>
</g>
<g>
	<path fill="none" stroke="#EC008C" stroke-width="0.25" stroke-miterlimit="10" d="M267.248,440.489
		c-15.776,0-15.776,13.113-15.776,13.113v15.773"/>
	
		<line fill="none" stroke="#EC008C" stroke-width="0.25" stroke-miterlimit="10" x1="251.472" y1="469.375" x2="242.445" y2="460.349"/>
	
		<line fill="none" stroke="#EC008C" stroke-width="0.25" stroke-miterlimit="10" x1="251.472" y1="469.375" x2="259.919" y2="460.929"/>
</g>
<g>
	<path fill="none" stroke="#EC008C" stroke-width="0.25" stroke-miterlimit="10" d="M367.973,346.507c0,0-4.27-5.307,5.174-14.751
		c9.88-9.88,11.648-11.648,11.648-11.648"/>
	
		<line fill="none" stroke="#EC008C" stroke-width="0.25" stroke-miterlimit="10" x1="384.795" y1="320.108" x2="372.029" y2="320.108"/>
	
		<line fill="none" stroke="#EC008C" stroke-width="0.25" stroke-miterlimit="10" x1="384.795" y1="320.108" x2="384.795" y2="332.054"/>
</g>
<g>
	<path fill="none" stroke="#EC008C" stroke-width="0.25" stroke-miterlimit="10" d="M269.334,346.507c0,0-4.27-5.307,5.174-14.751
		c9.88-9.88,11.648-11.648,11.648-11.648"/>
	
		<line fill="none" stroke="#EC008C" stroke-width="0.25" stroke-miterlimit="10" x1="286.156" y1="320.108" x2="273.39" y2="320.108"/>
	
		<line fill="none" stroke="#EC008C" stroke-width="0.25" stroke-miterlimit="10" x1="286.156" y1="320.108" x2="286.156" y2="332.054"/>
</g>
<g>
	<path fill="none" stroke="#EC008C" stroke-width="0.25" stroke-miterlimit="10" d="M385.474,61.992c0,0-6.772,0.733-6.772,14.089
		c0,13.972,0,16.473,0,16.473"/>
	
		<line fill="none" stroke="#EC008C" stroke-width="0.25" stroke-miterlimit="10" x1="378.702" y1="92.554" x2="369.676" y2="83.527"/>
	
		<line fill="none" stroke="#EC008C" stroke-width="0.25" stroke-miterlimit="10" x1="378.702" y1="92.554" x2="387.149" y2="84.107"/>
</g>
<g>
	<path fill="none" stroke="#EC008C" stroke-width="0.25" stroke-miterlimit="10" d="M441.626,164.911c0,0-6.772,0.733-6.772,14.089
		c0,13.972,0,16.473,0,16.473"/>
	
		<line fill="none" stroke="#EC008C" stroke-width="0.25" stroke-miterlimit="10" x1="434.854" y1="195.473" x2="425.828" y2="186.445"/>
	
		<line fill="none" stroke="#EC008C" stroke-width="0.25" stroke-miterlimit="10" x1="434.854" y1="195.473" x2="443.301" y2="187.025"/>
</g>
<g>
	<path fill="none" stroke="#EC008C" stroke-width="0.25" stroke-miterlimit="10" d="M503.09,263.911c0,0-6.771,0.733-6.771,14.089
		c0,13.972,0,16.473,0,16.473"/>
	
		<line fill="none" stroke="#EC008C" stroke-width="0.25" stroke-miterlimit="10" x1="496.318" y1="294.473" x2="487.292" y2="285.445"/>
	
		<line fill="none" stroke="#EC008C" stroke-width="0.25" stroke-miterlimit="10" x1="496.318" y1="294.473" x2="504.765" y2="286.025"/>
</g>
<g>
	<path fill="none" stroke="#EC008C" stroke-width="0.25" stroke-miterlimit="10" d="M469.141,346.507c0,0-4.271-5.307,5.174-14.751
		c9.88-9.88,11.648-11.648,11.648-11.648"/>
	
		<line fill="none" stroke="#EC008C" stroke-width="0.25" stroke-miterlimit="10" x1="485.963" y1="320.108" x2="473.197" y2="320.108"/>
	
		<line fill="none" stroke="#EC008C" stroke-width="0.25" stroke-miterlimit="10" x1="485.963" y1="320.108" x2="485.963" y2="332.054"/>
</g>
<g>
	
		<line fill="none" stroke="#EC008C" stroke-width="0.25" stroke-miterlimit="10" x1="594.98" y1="835.734" x2="594.98" y2="805.173"/>
	
		<line fill="none" stroke="#EC008C" stroke-width="0.25" stroke-miterlimit="10" x1="594.98" y1="805.173" x2="585.954" y2="814.2"/>
	
		<line fill="none" stroke="#EC008C" stroke-width="0.25" stroke-miterlimit="10" x1="594.98" y1="805.173" x2="603.428" y2="813.62"/>
</g>
<g>
	
		<line fill="none" stroke="#EC008C" stroke-width="0.25" stroke-miterlimit="10" x1="497.29" y1="835.734" x2="497.29" y2="805.173"/>
	
		<line fill="none" stroke="#EC008C" stroke-width="0.25" stroke-miterlimit="10" x1="497.29" y1="805.173" x2="488.265" y2="814.2"/>
	
		<line fill="none" stroke="#EC008C" stroke-width="0.25" stroke-miterlimit="10" x1="497.29" y1="805.173" x2="505.738" y2="813.62"/>
</g>
<g>
	
		<line fill="none" stroke="#EC008C" stroke-width="0.25" stroke-miterlimit="10" x1="402.577" y1="835.734" x2="402.577" y2="805.173"/>
	
		<line fill="none" stroke="#EC008C" stroke-width="0.25" stroke-miterlimit="10" x1="402.577" y1="805.173" x2="393.551" y2="814.2"/>
	
		<line fill="none" stroke="#EC008C" stroke-width="0.25" stroke-miterlimit="10" x1="402.577" y1="805.173" x2="411.024" y2="813.62"/>
</g>
<g>
	
		<line fill="none" stroke="#EC008C" stroke-width="0.25" stroke-miterlimit="10" x1="312.707" y1="835.734" x2="312.707" y2="805.173"/>
	
		<line fill="none" stroke="#EC008C" stroke-width="0.25" stroke-miterlimit="10" x1="312.707" y1="805.173" x2="303.681" y2="814.2"/>
	
		<line fill="none" stroke="#EC008C" stroke-width="0.25" stroke-miterlimit="10" x1="312.707" y1="805.173" x2="321.154" y2="813.62"/>
</g>
<g>
	
		<line fill="none" stroke="#EC008C" stroke-width="0.25" stroke-miterlimit="10" x1="212.396" y1="835.734" x2="212.396" y2="805.173"/>
	
		<line fill="none" stroke="#EC008C" stroke-width="0.25" stroke-miterlimit="10" x1="212.396" y1="805.173" x2="203.37" y2="814.2"/>
	
		<line fill="none" stroke="#EC008C" stroke-width="0.25" stroke-miterlimit="10" x1="212.396" y1="805.173" x2="220.844" y2="813.62"/>
</g>
<path opacity="0.74" fill="none" stroke="#EC008C" stroke-width="0.25" stroke-miterlimit="10" d="M310.107,555.096v-56.693
	c-112.914,0-204.448,91.535-204.448,204.449h56.693C162.353,621.248,228.504,555.096,310.107,555.096z"/>
<path fill="none" stroke="#EC008C" stroke-width="0.25" stroke-miterlimit="10" d="M241.552,702.85
	c0-39.935,32.373-72.309,72.309-72.309v-56.693c-71.246,0-129.002,57.757-129.002,129.002c0,0.001,0,0.001,0,0.001l56.693,0.001
	C241.552,702.852,241.552,702.851,241.552,702.85z"/>
<path fill="none" stroke="#EC008C" stroke-width="0.25" stroke-miterlimit="10" d="M28.953,702.852h56.693
	c0-123.678,100.26-223.938,223.937-223.938v-56.693C154.595,422.221,28.953,547.863,28.953,702.852z"/>
<path fill="none" stroke="#EC008C" stroke-width="0.25" stroke-miterlimit="10" d="M559.133,248.965l-40.088-40.088
	c-47.492,47.492-76.867,113.103-76.867,185.573h56.692C498.87,337.635,521.9,286.198,559.133,248.965z"/>
<path fill="none" stroke="#EC008C" stroke-width="0.25" stroke-miterlimit="10" d="M501.047,150.391l-40.087-40.087
	c-72.72,72.72-117.698,173.18-117.698,284.147h56.693C399.955,299.139,438.587,212.851,501.047,150.391z"/>
<path fill="none" stroke="#EC008C" stroke-width="0.25" stroke-miterlimit="10" d="M446.811,50.351l-40.088-40.089
	c-98.323,98.322-159.136,234.154-159.136,384.188h56.693C304.279,260.071,358.748,138.413,446.811,50.351z"/>
</svg>
