<?xml version="1.0" encoding="UTF-8" standalone="no"?>
<!-- Created with Inkscape (http://www.inkscape.org/) -->

<svg
   xmlns:dc="http://purl.org/dc/elements/1.1/"
   xmlns:cc="http://creativecommons.org/ns#"
   xmlns:rdf="http://www.w3.org/1999/02/22-rdf-syntax-ns#"
   xmlns:svg="http://www.w3.org/2000/svg"
   xmlns="http://www.w3.org/2000/svg"
   xmlns:sodipodi="http://sodipodi.sourceforge.net/DTD/sodipodi-0.dtd"
   xmlns:inkscape="http://www.inkscape.org/namespaces/inkscape"
   width="210mm"
   height="297mm"
   viewBox="0 0 210 297"
   version="1.1"
   id="svg8"
   inkscape:version="0.92.1 r15371"
   sodipodi:docname="sabacc_locks.svg">
  <defs
     id="defs2" />
  <sodipodi:namedview
     id="base"
     pagecolor="#ffffff"
     bordercolor="#666666"
     borderopacity="1.0"
     inkscape:pageopacity="0.0"
     inkscape:pageshadow="2"
     inkscape:zoom="3.959798"
     inkscape:cx="101.77606"
     inkscape:cy="612.18153"
     inkscape:document-units="mm"
     inkscape:current-layer="layer1"
     showgrid="false"
     inkscape:measure-start="-294.965,682.863"
     inkscape:measure-end="116.168,918.229"
     inkscape:window-width="1600"
     inkscape:window-height="1201"
     inkscape:window-x="2391"
     inkscape:window-y="-9"
     inkscape:window-maximized="1" />
  <metadata
     id="metadata5">
    <rdf:RDF>
      <cc:Work
         rdf:about="">
        <dc:format>image/svg+xml</dc:format>
        <dc:type
           rdf:resource="http://purl.org/dc/dcmitype/StillImage" />
        <dc:title />
      </cc:Work>
    </rdf:RDF>
  </metadata>
  <g
     inkscape:label="Layer 1"
     inkscape:groupmode="layer"
     id="layer1">
    <path
       id="path23365-4"
       style="fill:#000000;fill-opacity:1;stroke:none;stroke-width:0.03999999;stroke-miterlimit:4;stroke-dasharray:none;stroke-opacity:1"
       d="m 8.1422431,278.90786 c -0.1091692,0 -0.2138712,0.68955 -0.3212569,0.69652 -2.5693388,0.16727 -4.6015817,2.30421 -4.6015817,4.91581 0,2.61084 2.0310633,4.74741 4.599323,4.91578 0.1080845,0.007 0.2307223,0.65752 0.3406351,0.65752 0.1273622,0 0.2401152,-0.65163 0.3650341,-0.66113 2.5439333,-0.19327 4.5477973,-2.31876 4.5477973,-4.91217 0,-2.6143 -2.03637,-4.75289 -4.6094712,-4.91624 -0.1048195,-0.007 -0.2140166,-0.69609 -0.3204797,-0.69609 z m 0.010846,1.0375 0.9684557,4.39521 h -1.946818 z m -0.4104606,0.18012 -0.033154,0.31287 c -2.0618578,0.21792 -3.668343,1.96223 -3.668343,4.08184 0,2.11898 1.6055515,3.86309 3.6665488,4.08182 l -0.00816,0.30881 c -2.2277812,-0.22355 -3.9670464,-2.10397 -3.9670464,-4.39063 0,-2.3012 1.7614669,-4.19098 4.0095881,-4.39471 z m 0.8222575,0.001 c 2.240764,0.21095 3.994074,2.09721 3.994074,4.39314 0,2.27471 -1.721117,4.14747 -3.9321708,4.38703 l -0.00816,-0.30905 c 2.0446548,-0.23417 3.6325668,-1.97065 3.6325668,-4.07798 0,-2.12341 -1.612205,-3.87015 -3.6793855,-4.08296 z m 0.4153137,1.78723 c 1.1028123,0.35276 1.9013643,1.38602 1.9013643,2.60591 0,1.21791 -0.79589,2.24993 -1.8959746,2.60429 l 0.4954377,-2.42446 h 0.7360509 v -0.35949 H 9.4639191 Z m -1.6787486,0.004 -0.5161467,2.42289 h -0.710388 v 0.35947 H 6.793859 l 0.4661634,2.40916 c -1.0760091,-0.36811 -1.8495916,-1.38827 -1.8495916,-2.589 0,-1.21607 0.7935423,-2.24665 1.8910203,-2.60252 z m -0.1395556,2.78234 h 1.9425416 l -0.9413396,4.3132 z m 0.9837694,-10.91337 c -0.3948619,1e-4 -0.7149111,0.32021 -0.7148719,0.71509 -2.8e-5,0.39486 0.32001,0.71501 0.7148719,0.7151 0.3949569,3e-5 0.7151291,-0.32014 0.7151011,-0.7151 2.8e-5,-0.39494 -0.3201442,-0.71513 -0.7151011,-0.71509 z m 0.00559,0.206 c 0.2837694,-7e-5 0.5138264,0.22998 0.5137537,0.51373 -5.03e-5,0.28368 -0.2300626,0.51358 -0.513737,0.51354 -0.2835905,-7e-5 -0.5134686,-0.22997 -0.5135245,-0.51354 -7.82e-5,-0.28367 0.2298502,-0.51368 0.5135078,-0.51373 z m 0.036789,19.85768 c -0.3948619,9e-5 -0.714911,0.32021 -0.7148719,0.71507 -2.8e-5,0.39488 0.32001,0.71502 0.7148719,0.71512 0.3949569,2e-5 0.7151291,-0.32014 0.7151012,-0.71512 2.79e-5,-0.39492 -0.3201443,-0.71513 -0.7151012,-0.71507 z m 0.00559,0.20599 c 0.2837694,-6e-5 0.5138208,0.22997 0.5137537,0.51376 -5.03e-5,0.28367 -0.2300626,0.51357 -0.513737,0.51352 -0.2835904,-7e-5 -0.5134685,-0.22998 -0.5135245,-0.51352 -7.82e-5,-0.28369 0.2298502,-0.5137 0.5135245,-0.51376 z m -4.5298726,2.72954 C 3.2169612,296.54307 3.029194,296.07378 2.2791382,293.32512 1.9808546,292.23206 1.5802788,290.77466 1.3889727,290.08645 0.30024417,286.16985 -0.00123182,284.95553 3.7784895e-6,284.49235 0.00112197,283.95329 0.32621979,282.69248 2.0478903,276.54284 c 0.1473387,-0.52629 0.4112546,-1.47845 0.586453,-2.11584 0.4333445,-1.57672 0.668948,-2.10014 1.0330708,-2.29501 0.2136811,-0.11447 1.6362405,-0.15199 4.6235934,-0.12221 3.8693665,0.0384 4.3410705,0.0697 4.5707535,0.29939 0.269624,0.26985 0.542799,1.04732 1.177127,3.3504 0.500403,1.8167 1.203763,4.3148 1.657978,5.88854 0.198793,0.68821 0.430952,1.71505 0.516236,2.28183 0.143615,0.95325 0.121934,1.1518 -0.286212,2.64981 -1.010265,3.70759 -2.659387,9.58744 -2.757531,9.83191 -0.253204,0.63076 -0.716823,0.69414 -5.031052,0.68796 -3.2355302,-0.006 -4.1724584,-0.0496 -4.4745438,-0.21368 z m 8.6891077,-0.29027 c 0.229023,-0.11867 0.463978,-0.33377 0.522051,-0.47845 0.112697,-0.28107 2.031957,-7.14659 2.745252,-9.82084 0.477174,-1.7891 0.471012,-1.90946 -0.223453,-4.35389 -0.610483,-2.14879 -1.251778,-4.43431 -1.652275,-5.8885 -0.634368,-2.30307 -0.907543,-3.0806 -1.177111,-3.3504 -0.228587,-0.22882 -0.688203,-0.26098 -4.2939558,-0.2999 -3.4014252,-0.0368 -4.091244,-0.01 -4.3764391,0.1783 -0.3493515,0.22881 -0.5682321,0.80871 -1.310802,3.47197 -0.2143799,0.76921 -0.483529,1.72977 -0.597948,2.13463 -0.680549,2.40718 -1.11011962,3.98262 -1.40495354,5.15241 l -0.33392598,1.32494 0.54286591,1.98738 c 0.29856871,1.09306 0.69949121,2.5505 0.89094261,3.23868 0.1913395,0.68825 0.5921111,2.14562 0.8904058,3.23868 0.7500673,2.74868 0.9378119,3.21796 1.3846083,3.46088 0.5688415,0.30922 7.7978468,0.31271 8.3946818,0.006 z m -7.9874584,-0.92308 c -0.037739,-0.0622 -0.1457118,-0.41097 -0.2398189,-0.77532 -0.093822,-0.36435 -0.2039024,-0.77638 -0.2442133,-0.91559 -0.066398,-0.22858 0.1094375,-0.25716 1.8103206,-0.29444 1.7086491,-0.0374 1.888572,-0.0671 1.9367381,-0.31807 0.029297,-0.15223 -0.036285,-0.33341 -0.1454769,-0.40257 -0.1094375,-0.0694 -1.04125,-0.12668 -2.0712677,-0.12804 l -1.8727383,-0.003 -0.1241083,-0.47843 -0.1241026,-0.47844 4.7795198,-0.0389 c 2.6287319,-0.0209 4.8088389,-0.0122 4.8446549,0.0263 0.03584,0.0358 0.02091,0.26859 -0.03422,0.51729 l -0.09939,0.45216 -1.865274,0.003 c -1.9660346,0.003 -2.2953424,0.0815 -2.2091633,0.53064 0.048194,0.251 0.2278821,0.28063 1.9299453,0.31801 l 1.876842,0.0413 -0.09355,0.37325 c -0.05144,0.2053 -0.175506,0.65048 -0.275483,0.98928 l -0.181796,0.61599 -3.7643463,0.0394 c -2.0703957,0.0209 -3.7953367,-0.0122 -3.8332602,-0.0736 z m -1.0248238,-18.3856 c -0.03936,-0.0396 -0.0028,-0.29815 0.082696,-0.57477 l 0.1543274,-0.50306 2.0006987,-0.0408 c 1.8889799,-0.0384 2.0007266,-0.0573 2.0007266,-0.33522 0,-0.2769 -0.112015,-0.2969 -1.8769875,-0.33564 -1.0323435,-0.0234 -1.8760536,-0.0889 -1.8749857,-0.1471 0.00112,-0.0583 0.1209829,-0.50351 0.2664318,-0.98933 l 0.2643632,-0.88327 h 3.8025099 3.8025378 l 0.181785,0.61603 c 0.0998,0.33877 0.224622,0.78593 0.276696,0.99361 l 0.09477,0.37774 h -1.81353 c -1.8201105,0 -2.2299897,0.10591 -2.0659675,0.53317 0.060695,0.15851 0.5186961,0.20298 2.1059035,0.20298 1.97876,0 2.030219,0.01 2.116834,0.33125 0.240954,0.89913 0.553942,0.84327 -4.6771823,0.8344 -2.6234705,-0.006 -4.8022639,-0.0405 -4.8417249,-0.0796 z"
       inkscape:connector-curvature="0" />
    <path
       style="fill:#000000;stroke-width:1"
       d="M 3.5124561,269.63426 C 3.141156,269.32183 2.9882104,268.94213 2.4610344,267.02398 2.1217307,265.78942 1.6871739,264.2499 1.4953521,263.60285 1.3035309,262.95579 1.0386607,261.99624 0.90675187,261.4705 c -0.13190816,-0.52573 -0.3661394,-1.34411 -0.52051401,-1.81863 -0.46383414,-1.42573 -0.50600847,-2.50338 -0.14752258,-3.76957 0.29513409,-1.04243 0.82709332,-2.99846 1.25980322,-4.63234 0.1071024,-0.4044 0.4058398,-1.46322 0.6638613,-2.35292 0.2580205,-0.8897 0.5693531,-1.97593 0.6918492,-2.41383 0.1224967,-0.43791 0.3773001,-0.95077 0.56623,-1.1397 L 3.7639685,245 h 4.2810374 c 2.6367431,0 4.3889961,0.0578 4.5621151,0.15043 0.39918,0.21363 0.562084,0.57647 1.049498,2.33759 0.236865,0.85585 0.533469,1.92005 0.659119,2.36489 0.125651,0.44485 0.282578,1.00736 0.348727,1.25 0.06615,0.24264 0.397073,1.43382 0.735385,2.64705 1.053376,3.77755 1.045347,3.65034 0.38056,6.02938 -0.203409,0.72793 -0.742136,2.68013 -1.197166,4.33821 -0.45503,1.65808 -0.987757,3.55301 -1.183837,4.21095 -0.511908,1.71769 -0.362125,1.67138 -5.4050905,1.67138 H 3.9469618 Z m 8.7357119,-0.16606 c 0.5689,-0.26995 0.556625,-0.236 2.04096,-5.64476 0.455031,-1.65808 0.981978,-3.57719 1.171,-4.26469 0.64043,-2.32937 0.672353,-1.83261 -0.354396,-5.51468 -0.338308,-1.21323 -0.669233,-2.4044 -0.735383,-2.64705 -0.06615,-0.24264 -0.223076,-0.80514 -0.348727,-1.24998 -0.12565,-0.44486 -0.422254,-1.50906 -0.659119,-2.36489 -0.487415,-1.76113 -0.650318,-2.12397 -1.049498,-2.33761 -0.171757,-0.0919 -1.831726,-0.15042 -4.2679991,-0.15042 -3.9819364,0 -3.9873512,4.3e-4 -4.3304305,0.3435 -0.1889299,0.18893 -0.4437339,0.7018 -0.56623,1.1397 -0.1224961,0.43791 -0.4338287,1.52414 -0.6918497,2.41383 -0.2580209,0.8897 -0.5567584,1.94852 -0.6638608,2.35294 -0.3978584,1.50227 -0.9567405,3.5622 -1.25435516,4.6233 -0.33463885,1.19309 -0.31171558,1.68238 0.14854971,3.17077 0.15006987,0.4853 0.38108355,1.3125 0.51336355,1.83823 0.13228,0.52573 0.3974537,1.48529 0.5892755,2.13234 0.1918212,0.64706 0.6263786,2.18657 0.9656824,3.42113 0.5271759,1.91815 0.680121,2.29786 1.0514211,2.61029 l 0.4345057,0.36561 h 3.7532388 c 3.1507275,0 3.8336025,-0.0381 4.2538515,-0.23756 z m -7.9520518,-0.97318 c -0.098,-0.29386 -0.5187787,-1.77869 -0.5187787,-1.83064 0,-0.0258 0.7556133,-0.0469 1.6791409,-0.0469 1.8631182,0 2.1443698,-0.0579 2.1443698,-0.44117 0,-0.38736 -0.2795008,-0.44118 -2.2914284,-0.44118 -1.0044095,0 -1.8261987,-0.017 -1.8261987,-0.0377 0,-0.0207 -0.061557,-0.25237 -0.1367927,-0.5147 l -0.1367926,-0.47697 h 4.9024166 4.9024166 l -0.15674,0.51071 -0.15674,0.51071 -1.998602,0.0407 -1.9986026,0.0407 v 0.36764 0.36765 l 1.8766866,0.0412 1.876687,0.0412 -0.09359,0.37289 c -0.05147,0.20509 -0.175319,0.6498 -0.275209,0.98823 l -0.18162,0.61535 -3.7742438,0.0392 c -2.9434662,0.0306 -3.7879208,-0.002 -3.836378,-0.14706 z m 3.5936378,-1.25248 c 0.00306,-0.10737 -0.1782838,-0.18383 -0.4359638,-0.18383 -0.5012645,0 -0.5586615,0.208 -0.199068,0.72139 l 0.2421066,0.34566 0.1938572,-0.3497 c 0.1066207,-0.19234 0.1962017,-0.43242 0.199068,-0.53352 z m 1.3287335,0.0204 c 0,-0.12629 -0.1591026,-0.20429 -0.4166642,-0.20429 -0.5697662,0 -0.6259776,0.099 -0.342108,0.60221 l 0.2440691,0.43271 0.257351,-0.31317 c 0.1415438,-0.17224 0.2573521,-0.40509 0.2573521,-0.51746 z m -1.3755927,-5.4244 c -0.4144143,-0.41442 -2.0342456,-3.46666 -1.9526328,-3.67934 0.068647,-0.17888 0.4655566,-0.21816 2.2049408,-0.21816 1.8376021,0 2.1337032,0.0325 2.2145572,0.24322 0.101588,0.26474 -1.7653077,3.66839 -2.0796593,3.79156 -0.098761,0.0387 -0.2730045,-0.0231 -0.3872059,-0.13728 z m -1.949622,-5.13721 c -0.044388,-0.11568 0.3725424,-0.99251 0.9265116,-1.94852 0.7301966,-1.26015 1.0843758,-1.73822 1.2877564,-1.73822 0.203205,0 0.5599366,0.48036 1.2940955,1.74257 0.5574571,0.95841 0.9779917,1.83524 0.9345227,1.94852 -0.117294,0.30566 -4.3255043,0.30154 -4.4428862,-0.004 z m -2.5198987,-7.06507 0.1567407,-0.5107 1.9986022,-0.0408 c 1.8869764,-0.0385 1.9986022,-0.0572 1.9986022,-0.33488 0,-0.27658 -0.1117581,-0.29657 -1.8749907,-0.33527 -1.0312451,-0.0226 -1.8740923,-0.0888 -1.8729935,-0.14706 0.00111,-0.0582 0.120846,-0.50295 0.2661053,-0.98825 l 0.2641082,-0.88234 h 3.8082905 3.80829 l 0.167689,0.58822 c 0.09223,0.32354 0.211711,0.76824 0.265515,0.98824 l 0.09783,0.4 -1.876687,0.0412 c -1.764924,0.0387 -1.8766866,0.0587 -1.8766866,0.33529 0,0.27769 0.1116258,0.2964 1.9986026,0.33488 l 1.998602,0.0407 0.15674,0.51071 0.15674,0.51071 H 8.1155518 3.2166345 Z m 4.4246685,-2.2834 c -0.143334,-0.24265 -0.298248,-0.44117 -0.3442524,-0.44117 -0.046005,0 -0.2009183,0.19852 -0.3442529,0.44117 l -0.2606075,0.44117 h 0.6048604 0.6048604 z m 1.4157682,0.25735 c -0.00528,-0.20681 -0.3471548,-0.69852 -0.4856972,-0.69852 -0.049668,0 -0.1929684,0.19852 -0.3184457,0.44117 l -0.2281401,0.44117 h 0.5184799 c 0.3192395,0 0.5166828,-0.0706 0.5138031,-0.18382 z"
       id="path4975"
       inkscape:connector-curvature="0" />
    <path
       style="fill:#000000;stroke-width:0.99999994"
       d="M 3.7083211,242.72686 C 3.1836238,242.40301 3.0786658,242.19306 2.6516406,240.61324 2.4950669,240.03397 2.1910758,238.93094 1.976105,238.16206 0.25872483,232.01955 -0.00166941,230.99183 8.0136694e-6,230.36287 0.00128722,229.8782 0.16142043,229.2078 0.88746397,226.64722 c 0.16637963,-0.58677 0.42908973,-1.5304 0.58380083,-2.09695 0.154711,-0.56655 0.3800362,-1.38155 0.5007228,-1.81113 0.120687,-0.42957 0.4254323,-1.52219 0.6772125,-2.42804 0.6889373,-2.47867 0.2860801,-2.3092 5.4896759,-2.3092 4.681559,0 4.747756,0.011 5.07628,0.84028 0.18177,0.45885 1.632904,5.64693 2.769645,9.902 0.414473,1.55147 0.398344,2.09968 -0.114738,3.89959 -0.161499,0.56654 -0.455724,1.62606 -0.653837,2.35446 -0.198112,0.72842 -0.517409,1.88727 -0.70955,2.57521 -0.19214,0.68796 -0.558949,2.01234 -0.815131,2.9431 -0.323807,1.17644 -0.576668,1.80441 -0.829553,2.06016 l -0.363766,0.36788 -4.1539926,0.0399 c -3.9494779,0.0379 -4.1777185,0.0252 -4.6359123,-0.25759 z m 8.8593089,-0.44448 c 0.252964,-0.25578 0.505744,-0.88351 0.829606,-2.06016 0.256183,-0.93075 0.622991,-2.25514 0.815131,-2.94309 0.19214,-0.68794 0.512445,-1.84678 0.711791,-2.57519 0.199346,-0.72842 0.466548,-1.68861 0.593781,-2.13375 0.529895,-1.85391 0.542725,-2.14497 0.158061,-3.58542 -1.11563,-4.17769 -2.574343,-9.39186 -2.755152,-9.84829 -0.326269,-0.82363 -0.421038,-0.84028 -4.781972,-0.84028 -4.8631553,0 -4.5098877,-0.15701 -5.1953672,2.30921 -0.2517797,0.90586 -0.5565249,1.99847 -0.677212,2.42805 -0.1206871,0.42957 -0.3460123,1.24458 -0.5007228,1.81112 -0.1547111,0.56654 -0.4221331,1.52673 -0.5942708,2.13374 -0.17213825,0.60701 -0.44901027,1.61731 -0.61527084,2.24511 l -0.30229253,1.14144 0.30307618,1.21303 c 0.28042207,1.12235 0.72238729,2.74462 1.71359759,6.28986 0.2149709,0.76887 0.5189619,1.87191 0.6755357,2.45116 0.4267715,1.57889 0.531818,1.78936 1.056681,2.11715 0.458686,0.28645 0.6679983,0.29887 4.3415502,0.25758 l 3.8596305,-0.0434 z m -8.4931348,-1.67725 c -0.1386771,-0.52043 -0.2522796,-0.96849 -0.2524504,-0.99567 -1.763e-4,-0.0272 0.7059129,-0.0284 1.5690751,-0.003 1.9345549,0.0576 2.2927079,-0.0157 2.2300165,-0.45661 -0.044911,-0.31583 -0.1081721,-0.32716 -2.0462539,-0.36669 l -1.9999121,-0.0405 -0.1568429,-0.51103 -0.1568428,-0.51105 h 4.902128 4.9021293 l -0.156844,0.51105 -0.156842,0.51103 -1.999912,0.0408 c -1.9380824,0.0395 -2.0013456,0.0509 -2.046255,0.36669 -0.062691,0.44087 0.2954621,0.51421 2.230018,0.45661 0.863162,-0.0257 1.568345,-0.0136 1.567075,0.0269 -0.0013,0.0405 -0.121205,0.4709 -0.266523,0.9565 l -0.264213,0.88293 -3.8227056,0.0392 -3.8227052,0.0392 z m 3.1087928,-0.022 c 0.2334593,-0.51238 0.2363525,-0.50811 -0.3442659,-0.50811 -0.2832724,0 -0.5150403,0.03 -0.5150403,0.0667 0,0.22873 0.3707135,0.81628 0.5150403,0.81628 0.09542,0 0.2503398,-0.16868 0.3442659,-0.37482 z m 1.3243906,0 c 0.2334593,-0.51238 0.2363524,-0.50811 -0.3442659,-0.50811 -0.2832725,0 -0.5150404,0.03 -0.5150404,0.0667 0,0.22873 0.3707136,0.81628 0.5150404,0.81628 0.09542,0 0.2503396,-0.16868 0.3442659,-0.37482 z m 1.2660895,0.0478 c 0.3317169,-0.4736 0.2893869,-0.55588 -0.2859648,-0.55588 -0.5806185,0 -0.5777247,-0.004 -0.3442654,0.50812 0.2095771,0.45997 0.3348549,0.46947 0.6302302,0.0478 z m -6.3560878,-7.56959 c -0.3329849,-0.13436 -0.1953846,-0.52196 0.7840838,-2.20869 0.6602224,-1.13695 1.0512532,-1.66702 1.2297691,-1.66702 0.1791113,0 0.5703523,0.53474 1.2392906,1.69385 0.5376517,0.93161 0.9775485,1.78539 0.9775485,1.89726 0,0.11189 -0.1047455,0.24361 -0.2327674,0.29274 -0.2763609,0.10604 -3.7323729,0.099 -3.9979246,-0.008 z m 5.4447164,0 c -0.3242653,-0.13084 -0.2038892,-0.4665 0.7848462,-2.18848 0.6807331,-1.18555 1.0489921,-1.68723 1.2385291,-1.68723 0.189535,0 0.557795,0.50168 1.238528,1.68723 1.020632,1.77753 1.112633,2.0521 0.736022,2.19662 -0.276362,0.10604 -3.7323732,0.099 -3.9979253,-0.008 z M 6.857244,229.77908 c -0.804077,-1.40603 -0.9766173,-1.81183 -0.8402355,-1.97616 0.2710594,-0.3266 3.8680413,-0.33276 4.1936275,-0.007 0.259601,0.25961 0.199183,0.39647 -1.230679,2.78786 -0.7989981,1.3363 -0.9259483,1.28817 -2.122713,-0.80451 z m -3.4391165,-7.13783 0.1568429,-0.51104 1.9999121,-0.0408 c 1.9477798,-0.0397 2.0011381,-0.0495 2.0469357,-0.37189 0.046707,-0.32888 0.034083,-0.3311 -1.8762201,-0.3311 -1.0577837,0 -1.9232429,-0.0388 -1.9232429,-0.0862 0,-0.0474 0.1134629,-0.51202 0.25214,-1.03246 l 0.25214,-0.94626 3.8227052,0.0392 3.8227056,0.0391 0.264213,0.88293 c 0.145318,0.48561 0.265113,0.93259 0.266213,0.99329 0.0011,0.0607 -0.863461,0.11037 -1.921245,0.11037 -1.910304,0 -1.9229264,0.002 -1.8762193,0.3311 0.045795,0.32246 0.099156,0.33216 2.0469363,0.37188 l 1.999912,0.0408 0.156842,0.51104 0.156844,0.51104 H 8.1634127 3.2612847 Z m 3.9359356,-1.91008 c 0,-0.18016 -0.3559366,-0.81628 -0.45674,-0.81628 -0.1304079,0 -0.5733413,0.59371 -0.5733413,0.76852 0,0.0629 0.2317679,0.11441 0.5150403,0.11441 0.2832725,0 0.515041,-0.03 0.515041,-0.0667 z m 1.3243905,0 c 0,-0.22874 -0.3707142,-0.81628 -0.5150409,-0.81628 -0.1443268,0 -0.5150404,0.58754 -0.5150404,0.81628 0,0.0367 0.2317679,0.0667 0.5150404,0.0667 0.2832725,0 0.5150409,-0.03 0.5150409,-0.0667 z m 1.3243904,-0.0478 c 0,-0.1748 -0.4429338,-0.76851 -0.5733417,-0.76851 -0.1008028,0 -0.4567395,0.63612 -0.4567395,0.81627 0,0.0366 0.2317679,0.0666 0.5150405,0.0666 0.2832724,0 0.5150407,-0.0515 0.5150407,-0.11441 z"
       id="path4973"
       inkscape:connector-curvature="0" />
    <path
       style="fill:#000000;stroke-width:1"
       d="m 3.4621377,215.66488 c -0.2254547,-0.19984 -0.4615239,-0.65779 -0.5908882,-1.14628 -0.3910504,-1.47663 -2.12667,-7.74048 -2.51476992,-9.07581 -0.60153352,-2.06969 -0.66581259,-1.68432 1.61934422,-9.7083 0.5444316,-1.91169 1.0239911,-3.62706 1.0656876,-3.81192 0.041697,-0.18487 0.2431364,-0.46774 0.4476453,-0.62861 0.3512132,-0.27626 0.6122364,-0.29248 4.7068792,-0.29248 5.1954261,0 4.8499331,-0.13123 5.4515261,2.07069 0.211142,0.77281 0.478185,1.7379 0.593431,2.14464 0.115246,0.40675 0.37629,1.33856 0.580097,2.07069 0.203808,0.73214 0.618631,2.19641 0.921829,3.25394 0.712173,2.48401 0.723211,3.38968 0.0685,5.62045 -0.488271,1.66368 -1.317658,4.64259 -2.100174,7.54323 -0.66309,2.45795 -0.264347,2.29255 -5.5269087,2.29255 -4.2978843,0 -4.3509646,-0.004 -4.7221986,-0.33279 z m 9.1437563,-0.29582 c 0.272679,-0.24484 0.486619,-0.76275 0.809539,-1.95976 0.722456,-2.67799 1.592975,-5.81375 2.094084,-7.54323 0.259274,-0.89482 0.472589,-1.95975 0.474031,-2.3665 0.0015,-0.41354 -0.237685,-1.58709 -0.542542,-2.66231 -0.299843,-1.05753 -0.711921,-2.5218 -0.915728,-3.25394 -0.203808,-0.73214 -0.464852,-1.66395 -0.580098,-2.07069 -0.115245,-0.40674 -0.38229,-1.37184 -0.593431,-2.14465 -0.598311,-2.18991 -0.301468,-2.07068 -5.1557131,-2.07068 -3.7999517,0 -4.06126,0.0173 -4.4110662,0.29248 -0.2045089,0.16087 -0.4059493,0.44374 -0.4476453,0.6286 -0.041697,0.18487 -0.5213079,1.90022 -1.0658039,3.81192 -1.33441519,4.68505 -1.35771219,4.7697 -1.71982904,6.24897 -0.36623904,1.49612 -0.51293165,0.67857 1.26723874,7.06261 0.6238048,2.23709 1.2307999,4.43349 1.3488781,4.88091 0.1291501,0.48937 0.364278,0.94608 0.5901425,1.14627 0.3699112,0.32788 0.4352708,0.3328 4.4263865,0.3328 3.9925457,0 4.0562727,-0.005 4.4215567,-0.3328 z m -8.2412936,-0.81101 c -0.0886,-0.14638 -0.5435032,-1.68371 -0.5435032,-1.83675 0,-0.0642 0.8486132,-0.13527 1.8858074,-0.15804 1.7734041,-0.0389 1.8858067,-0.059 1.8858067,-0.33721 0,-0.27929 -0.1122701,-0.2981 -2.0101315,-0.33681 l -2.0101314,-0.041 -0.1576443,-0.51366 -0.1576443,-0.51365 h 4.9271775 4.9271767 l -0.157644,0.51365 -0.157644,0.51366 -2.010132,0.041 c -1.8978611,0.0387 -2.0101312,0.0575 -2.0101312,0.33681 0,0.27818 0.1124032,0.29828 1.8858072,0.33721 1.037194,0.0228 1.884903,0.0893 1.883798,0.14791 -0.0011,0.0586 -0.121512,0.50586 -0.267571,0.99395 l -0.265561,0.88744 -3.789597,0.0395 c -2.0842787,0.0217 -3.820486,-0.0116 -3.8582386,-0.074 z m 2.1927661,-0.92689 0.2294561,-0.44371 H 6.2653519 c -0.5575322,0 -0.6296313,0.12663 -0.3379857,0.59363 0.2484263,0.39779 0.3605689,0.3711 0.6300003,-0.14992 z m 1.2520005,0.15764 c 0.2475537,-0.46256 0.1804813,-0.60135 -0.2906086,-0.60135 -0.2440459,0 -0.4437193,0.0709 -0.4437193,0.15763 0,0.249 0.2923254,0.7298 0.4437193,0.7298 0.075624,0 0.2063978,-0.12874 0.2906086,-0.28608 z m 1.2783761,0.0272 c 0.3357575,-0.4423 0.2422302,-0.6286 -0.3155782,-0.6286 H 8.2506937 l 0.2294561,0.44372 c 0.2660376,0.51445 0.3402632,0.53704 0.6075933,0.18488 z m 1.3311579,0 c 0.335052,-0.44138 0.24219,-0.6286 -0.31178,-0.6286 -0.5911389,0 -0.604718,0.0255 -0.2788025,0.52287 0.2843565,0.43398 0.3345755,0.44298 0.5905825,0.10573 z m -6.9876048,-6.17397 c -0.1289539,-0.33605 1.8299173,-3.62483 2.1590289,-3.62483 0.3109495,0 2.2823136,3.333 2.1599572,3.65186 -0.1161725,0.30274 -4.2022545,0.27717 -4.3189861,-0.027 z m 5.1811079,0.0114 c -0.1246433,-0.32481 1.8492179,-3.63625 2.1674749,-3.63625 0.317251,0 2.277541,3.31201 2.152757,3.63719 -0.117559,0.30635 -4.2026545,0.30546 -4.3202319,-0.001 z m -4.0960498,-6.0397 C 3.40957,199.72346 3.3436978,199.58531 3.4352999,199.3466 c 0.1179184,-0.30728 4.2027325,-0.30911 4.3206106,-0.002 0.1283737,0.33454 -1.8362755,3.63719 -2.1636557,3.63719 -0.1903027,0 -0.5212282,-0.42081 -1.0759005,-1.36813 z m 5.0042542,-0.32942 c -0.5504853,-0.94798 -0.9575079,-1.81022 -0.9113304,-1.93055 0.1260554,-0.32849 4.2038469,-0.32052 4.3300919,0.008 0.130779,0.34081 -1.763343,3.53493 -2.129135,3.59043 -0.23666,0.0359 -0.491169,-0.29334 -1.2896265,-1.66834 z m -6.1058044,-5.61979 0.1576443,-0.51365 2.0101314,-0.041 c 1.947985,-0.0397 2.0115715,-0.0511 2.0567104,-0.36856 0.063012,-0.44312 -0.2969719,-0.51683 -2.2414123,-0.45893 -0.8675727,0.0258 -1.5772642,0.0246 -1.5770926,-0.003 1.778e-4,-0.0273 0.1140679,-0.47659 0.2531025,-0.99837 l 0.2527906,-0.94869 h 3.863187 3.8631866 l 0.169774,0.70256 c 0.09337,0.3864 0.208203,0.83567 0.255173,0.99837 0.08219,0.28471 0.02589,0.29405 -1.499604,0.24885 -1.9523226,-0.0579 -2.3120592,0.0155 -2.2490105,0.45893 0.045141,0.31744 0.1087248,0.32883 2.0567095,0.36856 l 2.010132,0.041 0.157644,0.51365 0.157644,0.51365 H 8.1843373 3.2571598 Z m 3.2701718,-1.96791 c 0.039114,-0.0633 -0.057628,-0.2796 -0.2149803,-0.48071 -0.2800181,-0.35786 -0.2907674,-0.35952 -0.5061044,-0.0785 -0.3423411,0.44675 -0.2697942,0.67429 0.2149803,0.67429 0.2392445,0 0.4669917,-0.0518 0.5061044,-0.11506 z m 1.2775018,-0.0785 c 0,-0.10648 -0.099837,-0.32279 -0.2218596,-0.4807 -0.2196169,-0.2842 -0.2241025,-0.2842 -0.4437193,0 -0.3466332,0.44857 -0.2723674,0.67429 0.2218596,0.67429 0.2670148,0 0.4437193,-0.0771 0.4437193,-0.19359 z m 1.3311578,0 c 0,-0.10648 -0.099005,-0.32279 -0.2200104,-0.4807 -0.215337,-0.281 -0.2260864,-0.27934 -0.5061044,0.0785 -0.1573519,0.20111 -0.2540925,0.41742 -0.2149798,0.48071 0.1225794,0.19834 0.9410946,0.13003 0.9410946,-0.0785 z m 1.3311575,0 c 0,-0.10648 -0.099,-0.32279 -0.22001,-0.4807 -0.215259,-0.2809 -0.226366,-0.27912 -0.5143835,0.0827 -0.407182,0.51147 -0.3778179,0.59163 0.2167215,0.59163 0.327952,0 0.517672,-0.071 0.517672,-0.19359 z"
       id="path4971"
       inkscape:connector-curvature="0" />
    <path
       style="fill:#000000;stroke-width:0.99999994"
       d="M 3.5879572,188.81071 C 3.1893142,188.52901 2.9833125,187.9542 1.974874,184.30965 0.42039412,178.69167 -0.00126533,177.02632 2.849671e-6,176.50982 0.00111529,176.02417 0.16090625,175.3452 0.84814418,172.90424 c 0.15951842,-0.56659 0.70126022,-2.52023 1.20386642,-4.34142 1.033118,-3.74349 1.195106,-4.15956 1.7109725,-4.3946 0.2460496,-0.11211 1.6852417,-0.16756 4.3488748,-0.16756 4.9244251,0 5.0057671,0.0257 5.3603011,1.69241 0.05165,0.24283 0.276827,1.07064 0.500391,1.83959 0.403752,1.38871 0.615634,2.15094 1.186355,4.26783 0.163667,0.60706 0.431168,1.56732 0.594446,2.13391 0.16328,0.5666 0.368685,1.42752 0.456456,1.91317 0.182905,1.01203 0.141435,1.21609 -1.271095,6.25458 -0.465182,1.65931 -1.027983,3.7004 -1.250671,4.53577 -0.222686,0.83538 -0.537289,1.6963 -0.699119,1.91317 l -0.294234,0.39431 -4.3992774,0.0416 c -3.6944984,0.0349 -4.448644,0.007 -4.7074534,-0.17623 z m 9.1066478,-0.55396 c 0.161821,-0.21686 0.476506,-1.0778 0.699301,-1.91316 0.222795,-0.83537 0.748131,-2.74402 1.167412,-4.24144 0.419282,-1.49742 0.924908,-3.35149 1.123612,-4.12015 0.392244,-1.51734 0.389542,-1.56124 -0.231103,-3.75326 -0.160424,-0.56659 -0.425588,-1.52686 -0.589255,-2.13392 -0.570722,-2.11689 -0.782603,-2.87912 -1.186356,-4.26783 -0.223563,-0.76894 -0.448738,-1.59676 -0.50039,-1.83958 -0.351298,-1.65152 -0.473729,-1.69242 -5.0659681,-1.69242 -2.4435312,0 -3.810804,0.0565 -4.0545397,0.16756 -0.5158665,0.23504 -0.6778545,0.65111 -1.7109724,4.39461 -0.5026062,1.82119 -1.0454105,3.77482 -1.2062249,4.34141 -0.16081442,0.56659 -0.42662652,1.55997 -0.59068368,2.2075 l -0.29829536,1.17733 0.6742335,2.50183 c 1.31232944,4.8696 2.27308864,8.24802 2.49635544,8.77817 0.1243431,0.29528 0.3481772,0.60946 0.4974056,0.69819 0.1834581,0.10909 1.6007796,0.1497 4.3762909,0.12541 l 4.1049607,-0.0359 z m -8.3593547,-0.74374 c -0.1343438,-0.36488 -0.5095367,-1.65988 -0.5111052,-1.76409 -0.00111,-0.0583 0.8427738,-0.12451 1.8747793,-0.14717 1.7645364,-0.0387 1.8763756,-0.0587 1.8763756,-0.33552 0,-0.27789 -0.1117057,-0.29661 -2.0000735,-0.33513 l -2.000079,-0.0408 -0.1568541,-0.51108 -0.1568597,-0.51108 h 4.8427261 c 5.1381292,0 4.9449082,-0.0283 4.7510242,0.69499 -0.08446,0.31506 -0.161406,0.32857 -2.095117,0.36791 -1.8957098,0.0386 -2.0074322,0.0572 -2.0074322,0.33518 0,0.27678 0.1118392,0.29679 1.8763752,0.33552 1.032006,0.0226 1.875475,0.0889 1.874373,0.14717 -0.0011,0.0583 -0.120905,0.50332 -0.266234,0.98897 l -0.264233,0.88301 -3.784511,0.0393 c -2.9490353,0.0306 -3.7996629,-0.002 -3.8531547,-0.14717 z m 1.5240101,-0.78203 c 0.233479,-0.51244 0.2363714,-0.50817 -0.3442947,-0.50817 -0.5881807,0 -0.6016913,0.0254 -0.2774038,0.52027 0.2998473,0.45762 0.4086439,0.4555 0.6216985,-0.0121 z m 1.4952924,-0.3773 c 0,-0.072 -0.231788,-0.13087 -0.5150877,-0.13087 -0.5809943,0 -0.6187227,0.0809 -0.2700059,0.57874 l 0.2450706,0.34989 0.2700116,-0.33345 c 0.1485051,-0.1834 0.2700114,-0.39234 0.2700114,-0.46431 z m 1.3244996,0 c 0,-0.072 -0.2317881,-0.13087 -0.5150822,-0.13087 -0.5809999,0 -0.6187284,0.0809 -0.2700116,0.57874 l 0.2450707,0.34989 0.2700115,-0.33345 c 0.1485053,-0.1834 0.2700116,-0.39234 0.2700116,-0.46431 z m 1.086821,0.3894 c 0.3242876,-0.49493 0.3107766,-0.52027 -0.2774037,-0.52027 -0.5806662,0 -0.5777738,-0.004 -0.3442947,0.50817 0.2130545,0.4676 0.3218512,0.46972 0.6216984,0.0121 z m 1.3244996,0 c 0.324287,-0.49493 0.310777,-0.52027 -0.277404,-0.52027 -0.580666,0 -0.577774,-0.004 -0.344295,0.50817 0.213055,0.4676 0.321851,0.46972 0.621699,0.0121 z m -3.4826732,-4.59483 c -0.8549883,-1.36713 -1.4528917,-2.57159 -1.376011,-2.77195 0.1250939,-0.32599 3.7417771,-0.31996 3.8670262,0.006 0.11303,0.29455 -1.5774011,3.21831 -1.8962266,3.27972 -0.1520594,0.0293 -0.3759214,-0.16425 -0.5947886,-0.51422 z m -4.4426424,-3.71757 c -0.091665,-0.14831 1.3781415,-2.83577 1.7720566,-3.2401 0.2775873,-0.28493 0.397703,-0.15192 1.3617328,1.50791 1.108547,1.90866 1.1792871,1.7908 -1.1037245,1.83906 -1.185272,0.0251 -1.9741981,-0.0165 -2.0300649,-0.10687 z m 6.0312354,-0.004 c -0.087844,-0.14214 1.3826802,-2.83322 1.7605312,-3.22179 0.107696,-0.11075 0.260662,-0.16129 0.339918,-0.11231 0.261173,0.16142 1.957252,3.19086 1.867632,3.33587 -0.115956,0.18762 -3.8520593,0.18595 -3.9680812,-0.002 z m -1.588593,-0.84037 c -0.8549883,-1.36713 -1.4528917,-2.57159 -1.376011,-2.77194 0.1227745,-0.31995 3.7414935,-0.3207 3.8642522,-7.3e-4 0.112456,0.29307 -1.5722076,3.22631 -1.8874621,3.28635 -0.1590011,0.0303 -0.3774066,-0.15644 -0.6007791,-0.51361 z m -1.4236679,-3.9828 c 0.010235,-0.3871 1.6934014,-3.19422 1.9457251,-3.24502 0.2717081,-0.0547 2.083256,2.98078 1.964142,3.29118 -0.06476,0.16876 -0.4677425,0.21138 -1.9988946,0.21138 -1.7309463,0 -1.9171243,-0.0251 -1.9109725,-0.25754 z m -2.7645148,-4.81971 0.1580834,-0.51508 1.851685,-0.002 c 1.9525945,-0.002 2.2815376,-0.0819 2.1954847,-0.53047 -0.048113,-0.25092 -0.22785,-0.28053 -1.9293444,-0.3179 l -1.87627,-0.0412 0.0979,-0.40029 c 0.053842,-0.22017 0.1734128,-0.6652 0.265712,-0.98897 L 4.3505794,165.3988 H 8.1541971 11.95781 l 0.181822,0.6158 c 0.100003,0.33869 0.224469,0.7857 0.276592,0.99337 l 0.09477,0.37758 H 10.82781 c -1.8673317,0 -2.1487569,0.0578 -2.1487569,0.4415 0,0.3872 0.2799179,0.4415 2.2759529,0.4415 1.753029,0 1.813193,0.0105 1.899121,0.33113 0.195091,0.72798 0.391736,0.69904 -4.7499665,0.69904 H 3.2614337 Z m 2.6072602,-2.02354 c -0.00167,-0.10118 -0.1266236,-0.34443 -0.2773816,-0.54055 l -0.2741108,-0.35659 -0.2377007,0.45965 c -0.3177019,0.61437 -0.3145426,0.62145 0.2773815,0.62145 0.315705,0 0.5138195,-0.0712 0.5118116,-0.18396 z m 1.3244994,0 c -0.00167,-0.10118 -0.1266235,-0.34443 -0.2773814,-0.54055 l -0.274111,-0.35659 -0.2377006,0.45965 c -0.3177019,0.61437 -0.3145426,0.62145 0.2773814,0.62145 0.3157051,0 0.5138196,-0.0712 0.5118116,-0.18396 z m 1.3277757,0.10307 c 0,-0.0445 -0.1069667,-0.28774 -0.2377007,-0.54056 L 8.2036509,165.86292 7.92954,166.21951 c -0.4118699,0.5358 -0.3508081,0.72451 0.2344302,0.72451 0.2832941,0 0.5150822,-0.0364 0.5150822,-0.0809 z m 1.3244996,0 c 0,-0.0445 -0.1069669,-0.28774 -0.2377009,-0.54056 l -0.2377006,-0.45965 -0.274111,0.35659 c -0.41187,0.5358 -0.3508081,0.72451 0.2344302,0.72451 0.283294,0 0.5150823,-0.0364 0.5150823,-0.0809 z m 1.323526,-0.0295 c -5.3e-4,-0.0607 -0.12501,-0.29854 -0.276613,-0.52848 l -0.275652,-0.41809 -0.238463,0.34046 c -0.371205,0.52997 -0.299203,0.71647 0.276619,0.71647 0.283294,0 0.514643,-0.0497 0.514109,-0.11038 z"
       id="path4969"
       inkscape:connector-curvature="0" />
    <path
       style="fill:#000000;stroke-width:1"
       d="M 3.7291096,161.83582 C 3.2627006,161.61011 3.0040336,161.00201 2.332151,158.55177 1.9993511,157.3381 1.5968554,155.88171 1.4377142,155.31533 0.63713196,152.46609 0,149.83754 0,149.3839 c 0,-0.52099 0.04737206,-0.7217 0.73507314,-3.1159 0.22079161,-0.76866 0.58166436,-2.05956 0.80194446,-2.86867 0.2202801,-0.80911 0.5262969,-1.90141 0.6800393,-2.42733 0.1537423,-0.52592 0.4066546,-1.42886 0.5620261,-2.00652 0.3574088,-1.32883 0.5323352,-1.65111 0.9907711,-1.82541 C 3.9724752,137.06303 5.9577371,137 8.1815439,137 c 4.2594101,0 4.7254361,0.0648 4.9837091,0.69334 0.100593,0.24479 0.586691,1.95023 1.24899,4.38199 0.154254,0.56638 0.421482,1.52628 0.593842,2.13311 0.735545,2.58968 1.321236,4.93471 1.321236,5.29005 0,0.37253 -0.449055,2.1797 -1.244347,5.00772 -0.608274,2.163 -1.844984,6.74589 -1.844984,6.83697 0,0.0449 -0.21515,0.21276 -0.478113,0.37309 -0.447649,0.27293 -0.740522,0.29091 -4.5972191,0.2821 -2.5334544,-0.006 -4.2409225,-0.0684 -4.4355483,-0.16255 z m 8.7385494,-0.41377 c 0.262959,-0.16034 0.478109,-0.32823 0.478109,-0.37309 0,-0.0929 1.311288,-4.95021 1.845718,-6.83696 0.194806,-0.68775 0.558753,-2.02977 0.808769,-2.98229 l 0.454579,-1.73183 -0.513498,-1.94595 c -0.282425,-1.07026 -0.654653,-2.44244 -0.827174,-3.04927 -0.172524,-0.60683 -0.439887,-1.56673 -0.594141,-2.13311 -0.662299,-2.43176 -1.148397,-4.13719 -1.248991,-4.38199 -0.255267,-0.6212 -0.743204,-0.69333 -4.6894861,-0.69333 -2.0619856,0 -3.9148448,0.063 -4.1174715,0.14006 -0.4584359,0.1743 -0.6333623,0.49659 -0.9907711,1.82542 -0.1553659,0.57766 -0.4082782,1.48059 -0.5620206,2.00651 -0.1537479,0.52592 -0.4597647,1.61822 -0.6800392,2.42733 -0.2202801,0.80911 -0.5836549,2.10001 -0.8075046,2.86866 -0.85062872,2.92094 -0.83973648,2.59991 -0.17483181,5.15222 0.32623891,1.25229 0.72348031,2.7403 0.88276611,3.30667 0.1592858,0.56638 0.5618982,2.02278 0.8947036,3.23645 0.6718826,2.45025 0.9305496,3.05834 1.3969587,3.28405 0.1927186,0.0933 1.8118534,0.15682 4.1413244,0.16255 3.5634631,0.009 3.8575651,-0.0105 4.3030011,-0.2821 z M 4.3648849,160.577 c -0.037864,-0.062 -0.1457024,-0.41069 -0.2396292,-0.77479 -0.093921,-0.3641 -0.2037555,-0.77584 -0.2440717,-0.91498 -0.066182,-0.22843 0.1095784,-0.25699 1.8108692,-0.29422 1.7723433,-0.0388 1.8841625,-0.0587 1.8841625,-0.33546 0,-0.2778 -0.1116635,-0.29651 -1.9993233,-0.335 l -1.9993178,-0.0408 -0.1542705,-0.50266 c -0.084853,-0.27647 -0.1234621,-0.53348 -0.085798,-0.57115 0.037642,-0.0376 2.2149273,-0.0771 4.8383664,-0.0877 4.7579575,-0.0192 4.7698955,-0.0185 4.7698955,0.29059 0,0.1704 -0.06853,0.43787 -0.152287,0.59437 -0.139047,0.25981 -0.325405,0.28455 -2.143341,0.28455 -1.9806529,0 -1.9908112,0.002 -1.9440451,0.331 0.045593,0.32098 0.1038126,0.33224 1.9243731,0.37218 l 1.877357,0.0412 -0.09362,0.37303 c -0.05149,0.20517 -0.175382,0.65003 -0.275308,0.98859 l -0.181688,0.61557 -3.7617361,0.0393 c -2.0689525,0.0216 -3.7927172,-0.0115 -3.8305871,-0.0736 z m 0.8219609,-0.90125 c 0.2781663,-0.4709 0.2158931,-0.60909 -0.2744633,-0.60909 -0.4432568,0 -0.539947,0.19062 -0.3301977,0.65097 0.2191347,0.48095 0.2990834,0.47541 0.604661,-0.0419 z m 1.323999,0 c 0.2886638,-0.48868 0.218145,-0.60909 -0.3567027,-0.60909 -0.4604264,0 -0.4984464,0.10121 -0.2460901,0.65507 0.2171831,0.47666 0.2976823,0.47052 0.6027928,-0.046 z m 1.3193786,-0.0275 c 0.322041,-0.56588 0.08994,-0.68236 -0.8875478,-0.4454 -0.074461,0.0181 0.4698674,0.89368 0.5549259,0.89267 0.043258,-4.4e-4 0.1929188,-0.20178 0.3326219,-0.44727 z m 1.2670469,0.0735 c 0.2523563,-0.55387 0.2143363,-0.65508 -0.2460901,-0.65508 -0.5748477,0 -0.6453664,0.12042 -0.3567027,0.60909 0.305105,0.5165 0.3856097,0.52265 0.6027928,0.046 z m 1.3239987,0 c 0.252357,-0.55387 0.214337,-0.65508 -0.24609,-0.65508 -0.5748475,0 -0.6453662,0.12042 -0.3567025,0.60909 0.3051055,0.5165 0.3856095,0.52265 0.6027925,0.046 z m 1.323999,0 c 0.252357,-0.55387 0.214337,-0.65508 -0.24609,-0.65508 -0.567619,0 -0.638466,0.11241 -0.382651,0.6071 0.269209,0.52059 0.408556,0.53123 0.628741,0.048 z m -0.748723,-6.06607 c -1.4323096,-0.0344 -1.7285518,-0.0799 -1.7285518,-0.26563 0,-0.25904 1.5520298,-2.94465 1.7849038,-3.08858 0.08568,-0.0529 0.243849,-0.006 0.351498,0.10503 0.296682,0.30513 1.688483,2.77162 1.688483,2.99227 0,0.28038 -0.182883,0.30279 -2.096333,0.25691 z m -7.7601048,-0.25701 c 0,-0.42265 1.6738851,-3.16951 1.9043902,-3.12512 0.2526343,0.0487 1.895544,2.70808 1.9104896,3.09257 0.00906,0.2325 -0.1753211,0.25745 -1.902433,0.25745 -1.6178838,0 -1.9124468,-0.0346 -1.9124468,-0.2249 z m 3.8797105,-1.34519 c -1.2235391,-2.07897 -1.247859,-2.02534 0.9410471,-2.07546 2.0890802,-0.0478 2.2110242,0.0296 1.6466017,1.04633 -0.7664044,1.3805 -1.4020573,2.36022 -1.5658635,2.41344 -0.095606,0.0311 -0.5554096,-0.59188 -1.0217853,-1.38431 z m -0.6923048,-3.08843 c -0.2042559,-0.20425 -0.074389,-0.54697 0.7164968,-1.89079 0.8733306,-1.48392 0.9513389,-1.57629 1.2008428,-1.42176 0.2984607,0.18484 1.8331265,2.98968 1.7517875,3.20165 -0.06305,0.16431 -0.453237,0.20898 -1.8256201,0.20898 -0.9599903,0 -1.7895629,-0.0442 -1.843507,-0.0981 z M 4.0793515,147.3063 c -0.4636012,-0.80913 -0.8429113,-1.57235 -0.8429113,-1.69605 0,-0.19026 0.294563,-0.2249 1.9124468,-0.2249 1.5497502,0 1.9124411,0.0394 1.9124411,0.20791 0,0.33985 -1.6864564,3.09704 -1.9220879,3.14241 -0.1398421,0.0269 -0.5166112,-0.48117 -1.0598887,-1.42937 z m 6.0345275,-0.006 c -0.4652357,-0.80734 -0.8458858,-1.56857 -0.8458858,-1.69162 0,-0.18877 0.2989166,-0.22374 1.9124408,-0.22374 1.724566,0 1.912119,0.0253 1.909127,0.25745 -0.0049,0.38017 -1.651811,3.04413 -1.909127,3.08809 -0.14236,0.0243 -0.520837,-0.48319 -1.066555,-1.43018 z m -6.6967911,-5.59314 0.1493665,-0.58844 H 5.618343 c 2.0437429,0 2.051705,-0.001 2.0048834,-0.331 -0.045593,-0.32098 -0.1038127,-0.33225 -1.9243732,-0.37218 l -1.8773625,-0.0412 0.097863,-0.40015 c 0.053822,-0.22008 0.1733473,-0.66495 0.2656116,-0.98859 l 0.1677483,-0.58845 h 3.811944 3.8119494 l 0.167749,0.58845 c 0.09226,0.32364 0.21179,0.76851 0.265611,0.98859 l 0.09786,0.40015 -1.877357,0.0412 c -1.8205607,0.0399 -1.8787861,0.0512 -1.9243733,0.37218 -0.04676,0.32933 -0.036919,0.331 1.9528633,0.331 h 1.999868 l 0.143473,0.37735 c 0.319172,0.83949 0.553819,0.79954 -4.6955499,0.79954 H 3.2677269 Z M 5.3411552,139.848 c 0.1006935,-0.1007 -0.3406785,-0.93558 -0.4945987,-0.93558 -0.1040351,0 -0.4332264,0.67596 -0.4332264,0.88958 0,0.15579 0.7793983,0.19442 0.9278251,0.046 z m 1.3239991,0 c 0.1006934,-0.1007 -0.3406785,-0.93558 -0.4945988,-0.93558 -0.104035,0 -0.4332264,0.67596 -0.4332264,0.88958 0,0.15579 0.7793983,0.19442 0.9278252,0.046 z m 1.2788399,-0.0626 c 0,-0.14299 -0.2563707,-0.71093 -0.3892238,-0.86225 -0.09649,-0.10991 -0.4838956,0.49375 -0.4887662,0.76159 -0.00334,0.18901 0.112631,0.25745 0.436657,0.25745 0.2427317,0 0.441333,-0.0706 0.441333,-0.15679 z m 1.323999,0.0166 c 0,-0.21362 -0.3291913,-0.88959 -0.4332264,-0.88959 -0.1539203,0 -0.5952922,0.83489 -0.4945988,0.93558 0.1484269,0.14843 0.9278252,0.1098 0.9278252,-0.046 z m 1.3239988,0 c 0,-0.24183 -0.335802,-0.88959 -0.461171,-0.88959 -0.1678875,0 -0.5769219,0.82532 -0.4646634,0.93757 0.1469701,0.14698 0.9258344,0.10661 0.9258344,-0.048 z m 1.323999,0 c 0,-0.24183 -0.335802,-0.88959 -0.461171,-0.88959 -0.167887,0 -0.576922,0.82532 -0.464663,0.93757 0.14697,0.14698 0.925834,0.10661 0.925834,-0.048 z"
       id="path4967"
       inkscape:connector-curvature="0" />
    <path
       style="fill:none;fill-opacity:1;stroke:#ff0000;stroke-width:0.03999999;stroke-miterlimit:4;stroke-dasharray:none;stroke-opacity:1"
       d="m 6.3581187,272.00045 c -1.6703993,0.003 -2.5103773,0.0459 -2.670638,0.13176 -0.3641223,0.19489 -0.5996676,0.71824 -1.0330127,2.29497 -0.1751965,0.63738 -0.4391872,1.58932 -0.5865257,2.11563 -1.72167019,6.14963 -2.04683781,7.41032 -2.04793848,7.94938 -0.0012356,0.46318 0.30033648,1.67789 1.38906248,5.59449 0.191307,0.6882 0.5915845,2.1455 0.8898678,3.23858 0.7500567,2.74865 0.9381305,3.21799 1.3849297,3.46075 0.3020854,0.16409 1.2391311,0.20743 4.4746624,0.21343 4.3142298,0.006 4.7774968,-0.0571 5.0306998,-0.68781 0.09815,-0.24447 1.74719,-6.12436 2.757456,-9.83197 0.408144,-1.49801 0.4299,-1.69672 0.286287,-2.64996 -0.08529,-0.56679 -0.317455,-1.59332 -0.51625,-2.28153 -0.454212,-1.57374 -1.157374,-4.07183 -1.657778,-5.88851 -0.634328,-2.30309 -0.907566,-3.08086 -1.17719,-3.35071 -0.229682,-0.22968 -0.701413,-0.2608 -4.5707798,-0.29919 -0.7468394,-0.007 -1.3960528,-0.0104 -1.9528525,-0.009 z"
       id="path4570"
       inkscape:connector-curvature="0" />
    <path
       style="fill:none;stroke:#ff0000;stroke-width:0.019;stroke-miterlimit:4;stroke-dasharray:none"
       d="m 3.7841144,245.00003 -0.3436461,0.34365 c -0.188931,0.18893 -0.4438782,0.70155 -0.566375,1.13946 -0.1224968,0.4379 -0.4339272,1.52411 -0.6919463,2.41381 -0.2580216,0.8897 -0.556424,1.94843 -0.6635273,2.35283 -0.4327075,1.63388 -0.96473699,3.58984 -1.25986911,4.63227 -0.3584866,1.26619 -0.31655808,2.34407 0.14727766,3.7698 0.15437379,0.47452 0.38898777,1.29276 0.52089843,1.81849 0.13190802,0.52574 0.39677182,1.48563 0.58859472,2.13269 0.1918203,0.64705 0.6260095,2.18643 0.9653138,3.42098 0.527177,1.91815 0.6803151,2.29774 1.0516155,2.61016 l 0.4345993,0.3659 h 4.0472994 c 5.0429666,0 4.8929286,0.046 5.4048366,-1.67175 0.19608,-0.65794 0.728877,-2.55251 1.183907,-4.2106 0.455031,-1.65807 0.993934,-3.6103 1.197343,-4.33823 0.664787,-2.37904 0.672521,-2.25206 -0.380854,-6.02961 -0.338312,-1.21323 -0.669206,-2.40422 -0.735357,-2.64686 -0.06615,-0.24264 -0.222647,-0.80521 -0.3483,-1.25006 -0.125648,-0.44484 -0.422526,-1.50886 -0.659389,-2.36471 -0.487416,-1.76112 -0.65037,-2.12421 -1.049549,-2.33784 -0.17312,-0.0926 -1.925251,-0.15038 -4.5619963,-0.15038 z"
       id="path4735"
       inkscape:connector-curvature="0" />
    <path
       style="fill:none;stroke:#ff0000;stroke-width:0.019;stroke-miterlimit:4;stroke-dasharray:none"
       d="m 6.4573374,217.99961 c -3.4183134,0.001 -3.185578,0.14265 -3.7883994,2.31149 -0.2517801,0.90585 -0.5562732,1.9987 -0.6769602,2.42827 -0.1206871,0.42958 -0.3460353,1.2442 -0.5007451,1.81075 -0.1547125,0.56654 -0.4175655,1.51026 -0.58394339,2.09702 -0.72604576,2.56058 -0.88598374,3.23087 -0.88728549,3.71554 -0.0016775,0.62896 0.2587281,1.65701 1.97610678,7.79952 0.2149713,0.76888 0.5188373,1.87175 0.6754124,2.45102 0.4270243,1.57982 0.532085,1.78971 1.0567829,2.11356 0.4581922,0.28279 0.6864138,0.29577 4.6358915,0.25787 l 4.1537516,-0.0403 0.363802,-0.36742 c 0.252886,-0.25575 0.506117,-0.8839 0.829924,-2.06034 0.256183,-0.93076 0.622798,-2.25501 0.814938,-2.94297 0.19214,-0.68794 0.511405,-1.84713 0.709517,-2.57555 0.198112,-0.7284 0.492207,-1.78784 0.653706,-2.35438 0.513083,-1.79991 0.529196,-2.34803 0.114721,-3.89951 -1.13674,-4.25506 -2.587569,-9.44338 -2.769338,-9.90223 -0.328525,-0.82928 -0.394618,-0.84026 -5.0761769,-0.84026 -0.650449,0 -1.2133738,-0.002 -1.7017047,-0.002 z"
       id="path4714"
       inkscape:connector-curvature="0" />
    <path
       style="fill:none;stroke:#ff0000;stroke-width:0.019;stroke-miterlimit:4;stroke-dasharray:none"
       d="m 9.917074,191.00022 c -0.4889447,-7.1e-4 -1.0517584,10e-4 -1.7011888,10e-4 -4.0946413,0 -4.3554729,0.0162 -4.7066887,0.29249 -0.2045071,0.16087 -0.4058179,0.44403 -0.4475163,0.6289 -0.041696,0.18486 -0.5216551,1.89996 -1.0660856,3.81165 -2.28515592,8.02398 -2.22055526,7.63876 -1.61902241,9.70845 0.38809877,1.33533 2.12352461,7.59931 2.51457351,9.07594 0.1293654,0.48849 0.3657256,0.94634 0.5911797,1.14618 0.3712342,0.32879 0.4243096,0.3328 4.7221933,0.3328 5.2625603,0 4.8637033,0.16558 5.5267943,-2.29237 0.782515,-2.90064 1.611857,-5.87953 2.10013,-7.54321 0.654711,-2.23077 0.643443,-3.13683 -0.06873,-5.62085 -0.303197,-1.05752 -0.718098,-2.5214 -0.921906,-3.25354 -0.203809,-0.73213 -0.464564,-1.66393 -0.579811,-2.07068 -0.115244,-0.40674 -0.382103,-1.37228 -0.593246,-2.14509 -0.526394,-1.92668 -0.328049,-2.06672 -3.750675,-2.07171 z"
       id="path4603"
       inkscape:connector-curvature="0" />
    <path
       style="fill:none;stroke:#ff0000;stroke-width:0.019;stroke-miterlimit:4;stroke-dasharray:none"
       d="m 8.1316551,164.00084 c -2.6636345,0 -4.1025233,0.0553 -4.3485725,0.16743 -0.5158661,0.23504 -0.677889,0.65108 -1.7110075,4.39457 -0.5026052,1.82119 -1.0445433,3.77474 -1.20406054,4.34133 -0.68723668,2.44096 -0.84691007,3.11982 -0.84801074,3.60547 -0.0012673,0.5165 0.42059489,2.18206 1.97507488,7.80004 1.0084382,3.64455 1.2141782,4.21931 1.6128206,4.50101 0.2588101,0.18324 1.0132245,0.21112 4.7077232,0.17622 l 4.3992135,-0.0413 0.29404,-0.39429 c 0.161829,-0.21687 0.476496,-1.0782 0.699182,-1.91358 0.222687,-0.83537 0.785387,-2.87633 1.250569,-4.53564 1.412531,-5.03849 1.454145,-5.24237 1.271241,-6.2544 -0.08777,-0.48565 -0.293023,-1.34646 -0.456303,-1.91306 -0.16328,-0.56659 -0.431128,-1.52718 -0.594796,-2.13424 -0.57072,-2.11689 -0.782738,-2.87924 -1.18649,-4.26795 -0.223565,-0.76895 -0.44858,-1.59634 -0.500229,-1.83917 -0.354534,-1.66671 -0.43597,-1.6924 -5.3603949,-1.6924 z"
       id="path4687"
       inkscape:connector-curvature="0" />
    <path
       style="fill:none;stroke:#ff0000;stroke-width:0.019;stroke-miterlimit:4;stroke-dasharray:none"
       d="m 8.2014178,136.9999 c -2.223807,0 -4.2089969,0.0631 -4.4116175,0.14005 -0.4584356,0.1743 -0.6332299,0.4969 -0.990637,1.82573 -0.1553713,0.57766 -0.4084981,1.48015 -0.5622396,2.00608 -0.1537441,0.52592 -0.4597823,1.61864 -0.6800611,2.42775 -0.2202815,0.80912 -0.58122877,2.0999 -0.80201827,2.86856 -0.68770499,2.3942 -0.73484051,2.59458 -0.73484051,3.11557 0,0.45364 0.6370558,3.0827 1.43763998,5.93194 0.1591389,0.56638 0.5617183,2.02231 0.8945192,3.23598 0.6718803,2.45024 0.9304046,3.05833 1.3968121,3.28404 0.1946275,0.0942 1.9019335,0.15678 4.4353877,0.16278 3.8566992,0.009 4.1500052,-0.009 4.5976542,-0.28215 0.262961,-0.16033 0.478007,-0.32821 0.478007,-0.37311 0,-0.0911 1.236575,-4.67379 1.844846,-6.83679 0.795293,-2.82802 1.24437,-4.63543 1.24437,-5.00796 0,-0.35534 -0.585822,-2.70044 -1.321366,-5.29012 -0.17236,-0.60683 -0.439507,-1.56631 -0.593762,-2.13269 -0.6623,-2.43176 -1.148427,-4.13737 -1.249018,-4.38216 -0.258273,-0.62854 -0.724268,-0.6935 -4.9836762,-0.6935 z"
       id="path4648"
       inkscape:connector-curvature="0" />
    <path
       id="path4977-4-3-7-0-8-5"
       style="fill:#000000;stroke-width:1"
       d="M 3.663758,134.78592 C 3.2169616,134.54308 3.029189,134.07378 2.279133,131.32513 1.980855,130.23209 1.5802848,128.77468 1.388973,128.08645 0.30025538,124.16987 -0.00123182,122.95554 3.7783308e-6,122.49237 0.00112378,121.95329 0.32623108,120.69249 2.0478851,114.54284 c 0.1473387,-0.52629 0.4112547,-1.47845 0.5864644,-2.11583 0.4333334,-1.57672 0.6689366,-2.10014 1.0330594,-2.29502 0.2136811,-0.11447 1.6362409,-0.152 4.6235889,-0.1222 3.8693732,0.0384 4.3410882,0.0696 4.5707602,0.29939 0.269618,0.26984 0.542793,1.0473 1.177133,3.3504 0.500397,1.81671 1.203751,4.3148 1.657978,5.88853 0.198782,0.68823 0.430941,1.71507 0.516226,2.28184 0.143614,0.95326 0.121932,1.1518 -0.286214,2.64983 -1.010248,3.70758 -2.659387,9.58741 -2.757514,9.83189 -0.253204,0.63074 -0.71684,0.69412 -5.0310528,0.68795 -3.2355423,-0.006 -4.1724707,-0.0495 -4.4745562,-0.21367 z m 8.689104,-0.29025 c 0.22904,-0.11868 0.464006,-0.3338 0.522079,-0.47846 0.112697,-0.28107 2.031931,-7.14656 2.745226,-9.82082 0.477171,-1.7891 0.47101,-1.90947 -0.223454,-4.35389 -0.610484,-2.14879 -1.251773,-4.43432 -1.652276,-5.88852 -0.634362,-2.30307 -0.907526,-3.0806 -1.177105,-3.3504 -0.228576,-0.2288 -0.688192,-0.26099 -4.2939401,-0.2999 -3.4014318,-0.0368 -4.0912619,-0.01 -4.3764459,0.17831 -0.3493627,0.2288 -0.5682377,0.80869 -1.3108131,3.47198 -0.2143687,0.7692 -0.4835234,1.72976 -0.5979482,2.1346 -0.6805434,2.40721 -1.11011412,3.98264 -1.40493692,5.15244 l -0.3339261,1.32493 0.5428549,1.98739 c 0.29856882,1.09306 0.69948582,2.5505 0.89093712,3.23868 0.1913397,0.68825 0.5921113,2.14562 0.890406,3.23868 0.7500672,2.74866 0.937823,3.21793 1.3846251,3.46086 0.5688248,0.30923 7.7978262,0.31272 8.3946672,0.006 z m -7.9874545,-0.92308 c -0.037739,-0.0622 -0.1457062,-0.41098 -0.239819,-0.77532 -0.093822,-0.36436 -0.2039024,-0.77637 -0.2442133,-0.91559 -0.066398,-0.22857 0.1094375,-0.25716 1.8103212,-0.29442 1.7086494,-0.0375 1.8885723,-0.0671 1.9367328,-0.31808 0.029353,-0.15223 -0.03623,-0.33342 -0.1454713,-0.40256 -0.1094431,-0.0694 -1.0412335,-0.12669 -2.0712514,-0.12805 l -1.8727556,-0.003 -0.1241027,-0.47845 -0.1241081,-0.47844 4.7795208,-0.0389 c 2.6287431,-0.0209 4.8088341,-0.0122 4.8446551,0.0263 0.03584,0.0358 0.02091,0.26859 -0.03422,0.51729 l -0.09939,0.45216 -1.865263,0.003 c -1.9660352,0.003 -2.2953319,0.0815 -2.2091639,0.53064 0.048194,0.251 0.2278822,0.28064 1.9299459,0.31802 l 1.876842,0.0413 -0.09355,0.37324 c -0.05144,0.2053 -0.175495,0.65048 -0.2755,0.98926 l -0.18178,0.616 -3.7643408,0.0394 c -2.0704017,0.0209 -3.7953432,-0.0122 -3.8332556,-0.0736 z m 4.328889,-1.39838 c -0.054568,-0.0353 -1.0740245,-0.03 -1.0776754,0.0122 -0.00816,0.0888 0.146953,0.34914 0.2826401,0.55619 l 0.2466846,0.37649 c 0.2016326,-0.2831 0.417511,-0.62317 0.5483507,-0.94498 z M 3.3405611,115.18699 c -0.03936,-0.0396 -0.0028,-0.29815 0.08269,-0.57476 l 0.1543274,-0.50306 2.0006991,-0.0408 c 1.8889805,-0.0384 2.0007271,-0.0573 2.0007271,-0.33523 0,-0.2769 -0.112015,-0.29689 -1.8769878,-0.33563 -1.0323438,-0.0234 -1.8760541,-0.0889 -1.8749808,-0.14711 0.00112,-0.0582 0.1209775,-0.50349 0.2664264,-0.98933 l 0.2643631,-0.88325 h 3.802511 3.8025384 l 0.181785,0.61601 c 0.0998,0.33877 0.224623,0.78594 0.276691,0.99361 l 0.09478,0.37775 h -1.81353 c -1.8200994,0 -2.2299787,0.10591 -2.0659677,0.53317 0.06069,0.15852 0.5186963,0.20297 2.1059047,0.20297 1.978754,0 2.030219,0.01 2.116829,0.33126 0.240959,0.89912 0.553947,0.84326 -4.6771785,0.83439 -2.6234712,-0.006 -4.8022651,-0.0405 -4.8417092,-0.0796 z m 4.7909097,-3.34053 c -0.1704294,0.28317 -0.3718048,0.67335 -0.4579057,0.93497 0.2633177,-0.007 0.7672986,0.0206 0.9967406,-0.0177 -0.1602482,-0.3651 -0.3484569,-0.64781 -0.5388349,-0.91732 z m -0.059745,14.16862 c 0.195108,0 0.399715,0.2212 0.6376665,0.6894 l 0.3503858,0.68941 -0.070066,-0.72878 c -0.068025,-0.70796 -0.055938,-0.73561 0.4213575,-0.96805 l 0.4913621,-0.23926 1.0024823,0.9743 1.002494,0.97431 -0.611758,-1.22893 -0.611736,-1.22892 0.412709,-0.74823 c 0.333585,-0.60475 0.41273,-0.93076 0.41273,-1.70019 0,-0.76943 -0.07916,-1.09544 -0.41273,-1.70019 l -0.412709,-0.74824 0.61187,-1.22892 0.61187,-1.22894 -0.950084,0.93196 -0.950073,0.93197 -0.5455272,-0.18003 -0.5455385,-0.18004 0.0702,-0.73039 0.0702,-0.73037 -0.3707257,0.67412 c -0.4854021,0.88262 -0.7963381,0.87732 -1.2623507,-0.0215 l -0.3606732,-0.69567 0.083233,0.75149 0.083233,0.75148 -0.5466231,0.1804 -0.5466119,0.18039 -0.8307225,-0.82204 c -0.4568992,-0.45212 -0.8681651,-0.82203 -0.9139273,-0.82203 -0.045734,0 0.1854356,0.52185 0.5137819,1.15965 0.5669408,1.10129 0.5844405,1.17354 0.3476128,1.43523 -0.345997,0.38232 -0.6964722,1.43488 -0.6964722,2.09172 0,0.65683 0.3504752,1.70938 0.6964722,2.09171 0.2368277,0.26167 0.219328,0.33394 -0.3476128,1.43521 -0.3283463,0.63781 -0.5555742,1.15966 -0.5049537,1.15966 0.050654,0 0.4733984,-0.38536 0.9395059,-0.85638 l 0.8474618,-0.85638 0.5183832,0.23395 c 0.5128313,0.23142 0.5175165,0.24177 0.4377726,0.96622 l -0.080655,0.73227 0.360662,-0.69567 c 0.2441463,-0.47091 0.4534777,-0.69565 0.6479874,-0.69565 z m -1.1603546,-0.52189 -0.5012748,-0.21751 0.4878621,-0.50333 c 0.2683272,-0.27685 0.534759,-0.47437 0.5920609,-0.43896 0.057296,0.0354 0.1866711,0.26353 0.2874706,0.5069 0.1007492,0.24338 0.233216,0.44251 0.2942358,0.44251 0.060969,0 0.1933971,-0.19913 0.2942134,-0.44251 0.1007492,-0.24337 0.2301857,-0.47148 0.2874875,-0.5069 0.057296,-0.0354 0.3238623,0.16228 0.5923684,0.43929 l 0.4881864,0.50367 -0.5335068,0.22291 c -0.6694007,0.27968 -1.6364589,0.27713 -2.2891035,-0.006 z M 5.160549,123.82771 c -0.1710166,-0.39756 -0.3109527,-0.99497 -0.3109527,-1.32757 0,-0.58301 0.516745,-2.0504 0.7220452,-2.0504 0.055127,0 0.3233201,0.46134 0.5960864,1.0252 l 0.4959802,1.0252 -0.4959802,1.02518 c -0.2727663,0.56386 -0.5410153,1.0252 -0.5960864,1.0252 -0.055127,0 -0.2400592,-0.32528 -0.4110925,-0.72281 z m 4.8118479,-0.30919 -0.4926759,-1.01838 0.4959802,-1.0252 c 0.2727828,-0.56386 0.5410268,-1.0252 0.5961028,-1.0252 0.211395,0 0.721878,1.47542 0.71882,2.07754 -0.0028,0.61282 -0.411305,1.75362 -0.688841,1.92514 -0.07522,0.0465 -0.358409,-0.37379 -0.6293861,-0.9339 z m -3.075758,-3.29197 c -0.2690485,-0.27758 -0.4607403,-0.52886 -0.4259701,-0.55838 0.1892095,-0.16066 1.1308231,-0.39007 1.6010569,-0.39007 0.469261,0 1.4113722,0.22924 1.6003693,0.38941 0.1018338,0.0864 -0.7607404,0.92868 -0.9509396,0.92868 -0.095997,0 -0.256424,-0.19771 -0.356519,-0.43935 -0.22947,-0.554 -0.3566421,-0.55333 -0.5871465,0.003 -0.1008834,0.24338 -0.2301744,0.47149 -0.2874706,0.5069 -0.057302,0.0355 -0.3243152,-0.16272 -0.5933804,-0.44032 z"
       inkscape:connector-curvature="0" />
    <path
       style="fill:none;stroke:#ff0000;stroke-width:0.019;stroke-miterlimit:4;stroke-dasharray:none"
       d="m 6.3481346,110 c -1.6703966,0.003 -2.5108932,0.0459 -2.671154,0.13178 -0.3641222,0.19488 -0.5996781,0.71875 -1.0330126,2.29547 -0.1752071,0.63737 -0.4391872,1.58934 -0.5865257,2.11563 -1.72165434,6.14965 -2.04683783,7.4103 -2.0479385,7.94938 -0.00123561,0.46317 0.30034441,1.6774 1.3890625,5.59398 0.1913122,0.68823 0.5921084,2.14604 0.8903864,3.23908 0.7500567,2.74864 0.9376145,3.21793 1.3844111,3.46077 0.3020854,0.16417 1.2391205,0.20742 4.4746624,0.21342 4.3142138,0.006 4.7780128,-0.0571 5.0312158,-0.68781 0.09813,-0.24448 1.747208,-6.12438 2.757456,-9.83196 0.408146,-1.49803 0.4299,-1.69671 0.286287,-2.64997 -0.08529,-0.56677 -0.317466,-1.59328 -0.516247,-2.28151 -0.454226,-1.57373 -1.157901,-4.07182 -1.658297,-5.88853 -0.634339,-2.3031 -0.907571,-3.08086 -1.17719,-3.3507 -0.229671,-0.22979 -0.701407,-0.26081 -4.5707798,-0.29921 -0.7468368,-0.007 -1.3955369,-0.0109 -1.9523366,-0.01 z"
       id="path4536"
       inkscape:connector-curvature="0" />
  </g>
</svg>
